<svg width="142" height="142" viewBox="0 0 142 142" fill="none" xmlns="http://www.w3.org/2000/svg">
<path d="M137.008 17.0186L114.105 38.6331L136.013 75.5087L137.008 74.2723V17.0186ZM4.99219 17.3339V79.9839C6.23469 80.1454 7.72763 80.2344 9.23416 80.2502C12.5262 80.2849 15.2398 80.0699 16.764 79.9329L31.3676 42.981L4.99219 17.3339ZM112.922 46.4162L110.969 47.6798C110.928 47.7067 109.482 48.605 109.057 48.8696L106.116 50.6501L106.158 50.6751C104.795 51.5229 104.416 51.7614 102.869 52.7219C102.084 53.2092 102.065 53.2205 101.321 53.6829C95.6933 50.6579 89.5873 48.3329 82.4618 46.5047C73.5003 49.2121 64.0068 53.1299 54.5272 56.8058C58.4627 61.5447 62.8364 63.0879 67.242 63.1431C72.3507 63.2069 77.573 60.9853 81.1696 58.4965L83.222 57.0765L85.2815 60.0524L117.302 83.1634L129.813 74.8467L112.922 46.4162ZM35.0776 47.1761L22.4954 79.0116L27.1131 82.5624L35.6539 72.8817L36.3381 72.1065L37.3699 72.0422C37.7859 72.0161 38.1963 72.0039 38.6013 72.0061C41.4335 72.0244 43.9656 72.7594 45.8649 74.4357C47.2716 75.676 48.2068 77.3273 48.7493 79.2393L49.3816 79.1999C52.7083 78.9919 55.7056 79.6783 57.8767 81.5934C60.0474 83.509 61.1022 86.3978 61.3102 89.7251L61.3296 90.0246C63.1157 90.3619 64.7146 91.0652 66.0147 92.2123C68.1858 94.1276 69.2403 97.0159 69.4483 100.343L69.5029 101.208C69.6801 101.265 69.8559 101.325 70.0299 101.391L70.5937 100.6L72.1108 98.4703L72.8909 97.3748L74.9239 98.8233L91.4058 110.565C93.1986 110.123 94.2672 109.435 94.8615 108.6C95.457 107.764 95.7582 106.528 95.5893 104.687L75.8263 90.5344L73.7967 89.0811L75.2361 87.0715L77.086 84.4741L79.119 85.9227L101.399 101.794C103.192 101.352 104.262 100.664 104.856 99.829C105.451 98.9942 105.752 97.7608 105.584 95.9234L79.9579 77.7436L77.9222 76.2986L80.8105 72.2272L82.847 73.6716L108.477 91.8556C110.272 91.4136 111.342 90.7255 111.937 89.8898C112.533 89.0536 112.833 87.8164 112.663 85.9723L82.0336 63.8653C77.9691 66.2748 72.7697 68.2052 67.1799 68.1353C60.6382 68.0534 53.6408 64.9275 48.4933 57.0276C48.2897 56.7152 48.1587 56.3612 48.1099 55.9915C48.061 55.6218 48.0957 55.2459 48.2112 54.8914C48.3268 54.5368 48.5203 54.2127 48.7775 53.9428C49.0348 53.6728 49.3492 53.4639 49.6978 53.3315C53.3071 51.96 56.9539 50.5109 60.6093 49.0731L35.0782 47.1778L35.0776 47.1761ZM38.6559 77.0238L25.4643 91.9755C25.7214 93.8464 26.3074 95.0101 27.097 95.7068C27.8866 96.4035 29.1147 96.8398 31.0031 96.8617L44.1945 81.9106C43.9374 80.0394 43.3513 78.8751 42.5617 78.1784C41.7721 77.4817 40.5443 77.0458 38.6556 77.0241L38.6559 77.0238ZM50.6671 84.1821L35.7701 101.067C36.027 102.938 36.6133 104.102 37.4026 104.799C38.193 105.495 39.4203 105.931 41.309 105.953L56.2059 89.0686C55.9491 87.1971 55.3628 86.0334 54.5732 85.3364C53.7839 84.6397 52.5561 84.2035 50.6674 84.1815L50.6671 84.1821ZM58.8044 94.8005L45.6139 109.752C45.871 111.623 46.457 112.787 47.2466 113.484C48.0365 114.181 49.2643 114.616 51.1527 114.638L64.3438 99.6884C64.0867 97.8163 63.5006 96.6523 62.711 95.9553C61.9214 95.2587 60.6936 94.8229 58.8049 94.801L58.8044 94.8005ZM65.6553 105.655L54.896 117.936C55.1526 119.811 55.7386 120.976 56.529 121.673C57.3181 122.369 58.5445 122.805 60.4304 122.828L71.1903 110.547C70.9334 108.673 70.3471 107.507 69.5567 106.809C68.7679 106.113 67.5415 105.678 65.6556 105.655L65.6553 105.655ZM75.4572 106.983C75.927 108.265 76.1985 109.685 76.2931 111.197L76.3574 112.224L74.0619 114.844L81.4736 120.124C83.2664 119.682 84.3347 118.994 84.9293 118.159C85.5242 117.324 85.826 116.089 85.6582 114.25L75.4575 106.984L75.4572 106.983Z" fill="#FFD233"/>
</svg>