<svg width="25" height="27" viewBox="0 0 25 27" fill="none" xmlns="http://www.w3.org/2000/svg">
<g clip-path="url(#clip0_832_5526)">
<path d="M20.3125 10.9688C20.3125 13.3893 19.585 15.6252 18.3594 17.4393L24.541 24.1207C25.1514 24.7799 25.1514 25.8504 24.541 26.5096C23.9307 27.1688 22.9395 27.1688 22.3291 26.5096L16.1475 19.8281C14.4678 21.157 12.3975 21.9375 10.1562 21.9375C4.5459 21.9375 0 17.0279 0 10.9688C0 4.90957 4.5459 0 10.1562 0C15.7666 0 20.3125 4.90957 20.3125 10.9688ZM10.1562 18.5625C11.0796 18.5625 11.9939 18.3661 12.847 17.9845C13.7001 17.6028 14.4752 17.0435 15.1281 16.3383C15.781 15.6332 16.2989 14.7961 16.6523 13.8748C17.0056 12.9534 17.1875 11.966 17.1875 10.9688C17.1875 9.97152 17.0056 8.98406 16.6523 8.06275C16.2989 7.14143 15.781 6.3043 15.1281 5.59916C14.4752 4.89401 13.7001 4.33466 12.847 3.95304C11.9939 3.57142 11.0796 3.375 10.1562 3.375C9.23289 3.375 8.31858 3.57142 7.46551 3.95304C6.61244 4.33466 5.83732 4.89401 5.18441 5.59916C4.53149 6.3043 4.01358 7.14143 3.66022 8.06275C3.30687 8.98406 3.125 9.97152 3.125 10.9688C3.125 11.966 3.30687 12.9534 3.66022 13.8748C4.01358 14.7961 4.53149 15.6332 5.18441 16.3383C5.83732 17.0435 6.61244 17.6028 7.46551 17.9845C8.31858 18.3661 9.23289 18.5625 10.1562 18.5625Z" fill="#6251A3"/>
</g>
<defs>
<clipPath id="clip0_832_5526">
<rect width="25" height="27" fill="white"/>
</clipPath>
</defs>
</svg>
