<svg version="1.1" id="Layer_1" xmlns="http://www.w3.org/2000/svg" xmlns:xlink="http://www.w3.org/1999/xlink" x="0px" y="0px"
	 width="100%" viewBox="0 0 1240 469" enable-background="new 0 0 1240 469" xml:space="preserve">
<path fill="#B9AFDA" opacity="1.000000" stroke="none" 
	d="
M0.999998,468.000000 
	C1.000000,464.305298 1.000000,460.610596 1.253125,456.231384 
	C3.846722,451.340607 6.211402,447.147552 8.523629,442.925781 
	C21.254139,419.681915 35.479103,397.610748 55.575466,379.796753 
	C79.154076,358.895996 106.693291,348.315460 138.350311,346.988220 
	C139.806259,346.640076 140.901230,346.289825 142.399719,345.875397 
	C146.201950,345.551453 149.600693,345.291687 153.340729,345.263702 
	C162.455032,345.341156 171.228043,345.186829 180.463470,345.031952 
	C184.929092,345.052979 188.932266,345.074554 193.107437,345.442688 
	C198.186661,345.871826 203.093887,345.954376 208.469696,346.036743 
	C219.291946,346.037872 229.645615,346.039185 240.336365,346.268311 
	C244.780289,346.305481 248.887131,346.114838 253.395020,345.862488 
	C256.863953,345.541260 259.931824,345.281799 263.289612,345.239929 
	C265.408356,345.004120 267.237213,344.550720 269.489563,344.088867 
	C271.608551,344.063904 273.304047,344.047363 275.253479,344.235352 
	C276.693848,343.991913 277.880280,343.543976 279.477722,343.087280 
	C281.259155,343.056763 282.629578,343.035034 284.173279,343.183289 
	C284.896790,343.217224 285.447021,343.081238 286.362396,342.932983 
	C288.151611,342.623108 289.575653,342.325470 291.193878,342.185944 
	C291.952148,341.933105 292.516266,341.522217 293.472290,341.100708 
	C294.909393,341.070251 295.954590,341.050415 297.194214,341.187958 
	C297.953369,340.935425 298.518097,340.525543 299.447418,340.104797 
	C300.541321,340.082855 301.270660,340.071777 302.197266,340.213623 
	C302.957581,339.950012 303.520599,339.533539 304.510376,339.103363 
	C310.602539,338.023010 316.267944,336.956360 322.288391,335.862732 
	C324.117645,334.920288 325.591888,334.004822 327.453400,333.057007 
	C337.481537,328.615417 347.524902,324.906128 356.675629,319.644470 
	C373.348236,310.057831 386.602631,296.412048 397.903015,280.993347 
	C404.275604,272.298309 410.855560,263.520599 415.607849,253.921555 
	C425.489441,233.961884 433.776154,213.215836 443.542664,193.195084 
	C453.226868,173.343094 465.809998,155.376404 482.185486,140.284912 
	C498.623383,125.135910 517.973145,116.739220 540.308716,116.128731 
	C559.582947,115.601913 577.714417,121.160141 595.628052,127.755501 
	C621.079041,137.125931 646.604858,146.309967 672.269287,155.074097 
	C680.541565,157.899017 689.352051,159.148010 698.019531,161.402420 
	C698.769958,162.090485 699.417175,162.494064 700.497681,162.910217 
	C704.596375,163.316681 708.261719,163.710602 712.026489,164.384125 
	C713.084351,164.800674 714.042847,164.937637 715.366699,165.073944 
	C716.462769,165.085556 717.193359,165.097839 718.024170,165.389969 
	C719.083252,165.794601 720.042175,165.919403 721.339722,166.095245 
	C722.786560,166.409698 723.894714,166.673080 725.206665,167.148102 
	C726.273926,167.254196 727.137512,167.148636 728.375122,167.104919 
	C730.500366,167.426895 732.251648,167.687042 734.261353,168.175552 
	C736.013611,168.289642 737.507446,168.175369 739.429321,168.059753 
	C743.905823,168.354065 747.954285,168.649750 752.241272,169.167175 
	C753.652100,169.241318 754.824341,169.093704 756.443848,168.951294 
	C760.593750,168.654709 764.296448,168.352936 768.270752,168.259933 
	C770.026978,168.294540 771.511597,168.120377 773.361145,167.933868 
	C775.150391,167.632935 776.574707,167.344360 778.218445,167.246643 
	C779.290833,167.274445 780.143860,167.111404 781.364380,166.946014 
	C782.466736,166.926727 783.201599,166.909805 784.276794,166.905701 
	C785.436951,166.316437 786.256653,165.714340 787.441772,165.103424 
	C788.538147,165.084976 789.269043,165.075363 790.197754,165.218079 
	C790.958130,164.952301 791.520691,164.534180 792.511353,164.104034 
	C794.937256,164.025848 796.935181,163.959671 799.236633,163.854858 
	C800.053955,163.248734 800.567688,162.681213 801.499451,162.100906 
	C803.589722,162.024094 805.261963,161.960083 807.237976,161.856186 
	C808.053284,161.245575 808.564941,160.674835 809.479614,160.085968 
	C810.705200,159.948364 811.575256,159.962479 812.343445,159.689743 
	C828.959717,153.789566 845.580139,147.900452 862.166748,141.917557 
	C874.985413,137.293808 887.482300,131.451370 900.622253,128.127243 
	C917.168152,123.941528 934.178894,121.490479 951.070618,118.803505 
	C968.566162,116.020515 986.257019,115.767494 1003.759888,118.323006 
	C1037.936768,123.313019 1072.003174,129.054855 1106.151367,134.247849 
	C1129.678223,137.825623 1150.319946,131.498322 1167.538940,114.922356 
	C1187.789062,95.428398 1202.190308,72.206078 1212.013672,45.877972 
	C1217.736084,30.540354 1222.325439,14.438452 1234.591675,2.418094 
	C1234.897461,2.118505 1234.871338,1.480301 1235.000000,1.000001 
	C1236.999512,1.000000 1238.999023,1.000000 1240.998901,1.000000 
	C1240.999268,157.294281 1240.999268,313.588562 1240.999268,470.000000 
	C828.640869,470.000000 416.281677,470.000000 3.805337,469.667480 
	C2.792109,468.890015 1.896053,468.445007 0.999998,468.000000 
z"/>
<path fill="#D8D0EE" opacity="1.000000" stroke="none" 
	d="
M697.916321,161.117920 
	C689.352051,159.148010 680.541565,157.899017 672.269287,155.074097 
	C646.604858,146.309967 621.079041,137.125931 595.628052,127.755501 
	C577.714417,121.160141 559.582947,115.601913 540.308716,116.128731 
	C517.973145,116.739220 498.623383,125.135910 482.185486,140.284912 
	C465.809998,155.376404 453.226868,173.343094 443.542664,193.195084 
	C433.776154,213.215836 425.489441,233.961884 415.607849,253.921555 
	C410.855560,263.520599 404.275604,272.298309 397.903015,280.993347 
	C386.602631,296.412048 373.348236,310.057831 356.675629,319.644470 
	C347.524902,324.906128 337.481537,328.615417 327.098083,333.088196 
	C324.881470,334.064392 323.407410,334.977051 321.933380,335.889709 
	C316.267944,336.956360 310.602539,338.023010 304.210754,339.117920 
	C302.989594,339.451019 302.494781,339.755859 301.999969,340.060730 
	C301.270660,340.071777 300.541321,340.082855 299.149445,340.117523 
	C297.991211,340.437622 297.495514,340.734131 296.999817,341.030609 
	C295.954590,341.050415 294.909393,341.070251 293.174835,341.114624 
	C291.990234,341.435394 291.494995,341.731628 290.999725,342.027863 
	C289.575653,342.325470 288.151611,342.623108 286.187988,342.768890 
	C285.098969,342.749146 284.549500,342.881256 284.000000,343.013336 
	C282.629578,343.035034 281.259155,343.056763 279.111816,343.061707 
	C277.223083,343.373535 276.111298,343.702148 274.999542,344.030823 
	C273.304047,344.047363 271.608551,344.063904 269.084045,344.060852 
	C266.503265,344.368256 264.751495,344.695312 262.999695,345.022339 
	C259.931824,345.281799 256.863953,345.541260 253.056839,345.640320 
	C248.211502,345.666779 244.105408,345.853638 239.999298,346.040497 
	C229.645615,346.039185 219.291946,346.037872 208.137665,345.789734 
	C202.536530,345.393982 197.735977,345.245056 192.935440,345.096130 
	C188.932266,345.074554 184.929092,345.052979 180.128906,344.785950 
	C170.554413,344.704346 161.776917,344.868134 152.999420,345.031921 
	C149.600693,345.291687 146.201950,345.551453 142.143112,345.674591 
	C140.318451,346.020691 139.153885,346.503387 137.989334,346.986115 
	C106.693291,348.315460 79.154076,358.895996 55.575466,379.796753 
	C35.479103,397.610748 21.254139,419.681915 8.523629,442.925781 
	C6.211402,447.147552 3.846722,451.340607 1.253125,455.773438 
	C1.000000,304.372620 1.000000,152.745224 1.000000,1.000000 
	C412.020905,1.000000 823.041809,1.000000 1234.531372,1.000001 
	C1234.871338,1.480301 1234.897461,2.118505 1234.591675,2.418094 
	C1222.325439,14.438452 1217.736084,30.540354 1212.013672,45.877972 
	C1202.190308,72.206078 1187.789062,95.428398 1167.538940,114.922356 
	C1150.319946,131.498322 1129.678223,137.825623 1106.151367,134.247849 
	C1072.003174,129.054855 1037.936768,123.313019 1003.759888,118.323006 
	C986.257019,115.767494 968.566162,116.020515 951.070618,118.803505 
	C934.178894,121.490479 917.168152,123.941528 900.622253,128.127243 
	C887.482300,131.451370 874.985413,137.293808 862.166748,141.917557 
	C845.580139,147.900452 828.959717,153.789566 812.343445,159.689743 
	C811.575256,159.962479 810.705200,159.948364 809.174500,160.125031 
	C807.955688,160.753479 807.444946,161.324768 806.934265,161.896057 
	C805.261963,161.960083 803.589722,162.024094 801.193665,162.136292 
	C799.957642,162.754166 799.445312,163.323837 798.933044,163.893494 
	C796.935181,163.959671 794.937256,164.025848 792.211182,164.118439 
	C790.988586,164.451813 790.494324,164.758774 790.000000,165.065735 
	C789.269043,165.075363 788.538147,165.084976 787.099670,165.088608 
	C785.573547,165.686035 784.755005,166.289459 783.936401,166.892883 
	C783.201599,166.909805 782.466736,166.926727 781.145996,166.754517 
	C779.706421,166.728836 778.852722,166.892319 777.999084,167.055786 
	C776.574707,167.344360 775.150391,167.632935 773.090210,167.725510 
	C770.969299,167.703400 769.484253,167.877289 767.999146,168.051163 
	C764.296448,168.352936 760.593750,168.654709 756.197998,168.749207 
	C754.337585,168.676407 753.170105,168.810913 752.002686,168.945435 
	C747.954285,168.649750 743.905823,168.354065 739.171143,167.829361 
	C736.990906,167.715958 735.496887,167.831573 734.002869,167.947205 
	C732.251648,167.687042 730.500366,167.426895 728.170288,166.895538 
	C726.728577,166.728378 725.865784,166.832413 725.002930,166.936462 
	C723.894714,166.673080 722.786560,166.409698 721.095215,165.866867 
	C719.649414,165.428314 718.786682,165.269211 717.924011,165.110123 
	C717.193359,165.097839 716.462769,165.085556 715.125000,164.840088 
	C713.654236,164.439438 712.790649,164.271973 711.927063,164.104507 
	C708.261719,163.710602 704.596375,163.316681 700.398315,162.623627 
	C699.215820,161.922287 698.566101,161.520111 697.916321,161.117920 
z"/>
<path fill="#000000" opacity="1.000000" stroke="none" 
	d="
M1.000001,468.500000 
	C1.896053,468.445007 2.792109,468.890015 3.344085,469.667480 
	C2.333338,469.666656 1.666671,469.333313 1.000001,468.500000 
z"/>
<path fill="#C9C0E5" opacity="1.000000" stroke="none" 
	d="
M153.340729,345.263702 
	C161.776917,344.868134 170.554413,344.704346 179.666473,344.786499 
	C171.228043,345.186829 162.455032,345.341156 153.340729,345.263702 
z"/>
<path fill="#C9C0E5" opacity="1.000000" stroke="none" 
	d="
M193.107437,345.442688 
	C197.735977,345.245056 202.536530,345.393982 207.669098,345.789917 
	C203.093887,345.954376 198.186661,345.871826 193.107437,345.442688 
z"/>
<path fill="#C9C0E5" opacity="1.000000" stroke="none" 
	d="
M240.336365,346.268311 
	C244.105408,345.853638 248.211502,345.666779 252.655792,345.702087 
	C248.887131,346.114838 244.780289,346.305481 240.336365,346.268311 
z"/>
<path fill="#C9C0E5" opacity="1.000000" stroke="none" 
	d="
M263.289612,345.239929 
	C264.751495,344.695312 266.503265,344.368256 268.660583,344.069275 
	C267.237213,344.550720 265.408356,345.004120 263.289612,345.239929 
z"/>
<path fill="#C9C0E5" opacity="1.000000" stroke="none" 
	d="
M768.270752,168.259933 
	C769.484253,167.877289 770.969299,167.703400 772.725342,167.737854 
	C771.511597,168.120377 770.026978,168.294540 768.270752,168.259933 
z"/>
<path fill="#C9C0E5" opacity="1.000000" stroke="none" 
	d="
M734.261353,168.175568 
	C735.496887,167.831573 736.990906,167.715958 738.743103,167.830719 
	C737.507446,168.175369 736.013611,168.289642 734.261353,168.175568 
z"/>
<path fill="#C9C0E5" opacity="1.000000" stroke="none" 
	d="
M322.288391,335.862732 
	C323.407410,334.977051 324.881470,334.064392 326.710815,333.120544 
	C325.591888,334.004822 324.117645,334.920288 322.288391,335.862732 
z"/>
<path fill="#C9C0E5" opacity="1.000000" stroke="none" 
	d="
M752.241272,169.167175 
	C753.170105,168.810913 754.337585,168.676407 755.750793,168.743988 
	C754.824341,169.093704 753.652100,169.241318 752.241272,169.167175 
z"/>
<path fill="#C9C0E5" opacity="1.000000" stroke="none" 
	d="
M138.350311,346.988220 
	C139.153885,346.503387 140.318451,346.020691 141.739594,345.738770 
	C140.901230,346.289825 139.806259,346.640076 138.350311,346.988220 
z"/>
<path fill="#C9C0E5" opacity="1.000000" stroke="none" 
	d="
M275.253479,344.235321 
	C276.111298,343.702148 277.223083,343.373535 278.700775,343.070496 
	C277.880280,343.543976 276.693848,343.991913 275.253479,344.235321 
z"/>
<path fill="#C9C0E5" opacity="1.000000" stroke="none" 
	d="
M725.206665,167.148102 
	C725.865784,166.832413 726.728577,166.728378 727.796265,166.833710 
	C727.137512,167.148636 726.273926,167.254196 725.206665,167.148102 
z"/>
<path fill="#C9C0E5" opacity="1.000000" stroke="none" 
	d="
M778.218445,167.246643 
	C778.852722,166.892319 779.706421,166.728836 780.778442,166.756866 
	C780.143860,167.111404 779.290833,167.274445 778.218445,167.246643 
z"/>
<path fill="#C9C0E5" opacity="1.000000" stroke="none" 
	d="
M718.024170,165.389969 
	C718.786682,165.269211 719.649414,165.428314 720.756592,165.815796 
	C720.042175,165.919403 719.083252,165.794601 718.024170,165.389969 
z"/>
<path fill="#C9C0E5" opacity="1.000000" stroke="none" 
	d="
M784.276794,166.905716 
	C784.755005,166.289459 785.573547,165.686035 786.734253,165.097427 
	C786.256653,165.714340 785.436951,166.316437 784.276794,166.905716 
z"/>
<path fill="#C9C0E5" opacity="1.000000" stroke="none" 
	d="
M712.026489,164.384125 
	C712.790649,164.271973 713.654236,164.439438 714.759583,164.840759 
	C714.042847,164.937637 713.084351,164.800674 712.026489,164.384125 
z"/>
<path fill="#C9C0E5" opacity="1.000000" stroke="none" 
	d="
M807.237976,161.856186 
	C807.444946,161.324768 807.955688,160.753479 808.771484,160.143143 
	C808.564941,160.674835 808.053284,161.245575 807.237976,161.856186 
z"/>
<path fill="#C9C0E5" opacity="1.000000" stroke="none" 
	d="
M698.019531,161.402405 
	C698.566101,161.520111 699.215820,161.922287 699.964966,162.611069 
	C699.417175,162.494064 698.769958,162.090485 698.019531,161.402405 
z"/>
<path fill="#C9C0E5" opacity="1.000000" stroke="none" 
	d="
M799.236633,163.854874 
	C799.445312,163.323837 799.957642,162.754166 800.775696,162.149094 
	C800.567688,162.681213 800.053955,163.248734 799.236633,163.854874 
z"/>
<path fill="#C9C0E5" opacity="1.000000" stroke="none" 
	d="
M284.173279,343.183289 
	C284.549500,342.881256 285.098969,342.749146 285.822876,342.781189 
	C285.447021,343.081238 284.896790,343.217224 284.173279,343.183289 
z"/>
<path fill="#C9C0E5" opacity="1.000000" stroke="none" 
	d="
M291.193878,342.185944 
	C291.494995,341.731628 291.990234,341.435394 292.782959,341.125244 
	C292.516266,341.522217 291.952148,341.933105 291.193878,342.185944 
z"/>
<path fill="#C9C0E5" opacity="1.000000" stroke="none" 
	d="
M297.194214,341.187988 
	C297.495514,340.734131 297.991211,340.437622 298.784851,340.128357 
	C298.518097,340.525543 297.953369,340.935425 297.194214,341.187988 
z"/>
<path fill="#C9C0E5" opacity="1.000000" stroke="none" 
	d="
M302.197266,340.213623 
	C302.494781,339.755859 302.989594,339.451019 303.783997,339.131622 
	C303.520599,339.533539 302.957581,339.950012 302.197266,340.213623 
z"/>
<path fill="#C9C0E5" opacity="1.000000" stroke="none" 
	d="
M790.197754,165.218079 
	C790.494324,164.758774 790.988586,164.451813 791.783081,164.130463 
	C791.520691,164.534180 790.958130,164.952301 790.197754,165.218079 
z"/>
</svg>