<svg width="51" height="65" viewBox="0 0 51 65" fill="none" xmlns="http://www.w3.org/2000/svg">
<rect y="3" width="51" height="55" rx="9" fill="#6251A3"/>
<path d="M15.872 29.28C16.3627 29.28 16.7893 29.4613 17.152 29.824C17.5147 30.1867 17.696 30.6133 17.696 31.104V34.176C17.696 34.6667 17.5147 35.0933 17.152 35.456C16.7893 35.8187 16.3627 36 15.872 36H12.48C11.9893 36 11.5627 35.8187 11.2 35.456C10.8373 35.0933 10.656 34.6667 10.656 34.176V31.104C10.656 30.6133 10.8373 30.1867 11.2 29.824C11.5627 29.4613 11.9893 29.28 12.48 29.28H15.872ZM27.4033 29.28C27.8939 29.28 28.3206 29.4613 28.6833 29.824C29.0459 30.1867 29.2273 30.6133 29.2273 31.104V34.176C29.2273 34.6667 29.0459 35.0933 28.6833 35.456C28.3206 35.8187 27.8939 36 27.4033 36H24.0113C23.5206 36 23.0939 35.8187 22.7313 35.456C22.3686 35.0933 22.1873 34.6667 22.1873 34.176V31.104C22.1873 30.6133 22.3686 30.1867 22.7313 29.824C23.0939 29.4613 23.5206 29.28 24.0113 29.28H27.4033ZM38.9345 29.28C39.4252 29.28 39.8518 29.4613 40.2145 29.824C40.5772 30.1867 40.7585 30.6133 40.7585 31.104V34.176C40.7585 34.6667 40.5772 35.0933 40.2145 35.456C39.8518 35.8187 39.4252 36 38.9345 36H35.5425C35.0518 36 34.6252 35.8187 34.2625 35.456C33.8998 35.0933 33.7185 34.6667 33.7185 34.176V31.104C33.7185 30.6133 33.8998 30.1867 34.2625 29.824C34.6252 29.4613 35.0518 29.28 35.5425 29.28H38.9345Z" fill="white"/>
</svg>
