<svg width="904" height="445" viewBox="0 0 904 445" fill="none" xmlns="http://www.w3.org/2000/svg">
<rect width="904" height="445" rx="10" fill="#D8D0EE"/>
<g clip-path="url(#clip0_2244_9926)">
<path d="M455.329 139.359C453.488 137.552 450.497 137.552 448.656 139.359L429.799 157.859C427.957 159.666 427.957 162.6 429.799 164.406C431.64 166.213 434.631 166.213 436.472 164.406L447.286 153.798V184.25C447.286 186.808 449.392 188.875 452 188.875C454.608 188.875 456.714 186.808 456.714 184.25V153.798L467.528 164.406C469.369 166.213 472.36 166.213 474.201 164.406C476.043 162.6 476.043 159.666 474.201 157.859L455.344 139.359H455.329ZM428.429 188.875C428.429 186.317 426.322 184.25 423.714 184.25C421.107 184.25 419 186.317 419 188.875V198.125C419 205.785 425.335 212 433.143 212H470.857C478.665 212 485 205.785 485 198.125V188.875C485 186.317 482.893 184.25 480.286 184.25C477.678 184.25 475.571 186.317 475.571 188.875V198.125C475.571 200.683 473.465 202.75 470.857 202.75H433.143C430.535 202.75 428.429 200.683 428.429 198.125V188.875Z" fill="#6251A3"/>
</g>
<path d="M406.772 241.065C406.035 241.802 404.97 242.17 403.576 242.17C402.182 242.17 401.117 241.802 400.38 241.065C399.643 240.317 399.275 239.212 399.275 237.75V230.287C399.275 230.094 399.343 229.93 399.479 229.794C399.615 229.658 399.774 229.59 399.955 229.59C400.148 229.59 400.312 229.658 400.448 229.794C400.584 229.93 400.652 230.094 400.652 230.287V237.801C400.652 238.9 400.89 239.711 401.366 240.232C401.853 240.753 402.596 241.014 403.593 241.014C404.59 241.014 405.333 240.753 405.82 240.232C406.307 239.711 406.551 238.9 406.551 237.801V230.253C406.551 230.06 406.613 229.902 406.738 229.777C406.874 229.652 407.033 229.59 407.214 229.59C407.395 229.59 407.548 229.652 407.673 229.777C407.809 229.902 407.877 230.06 407.877 230.253V237.75C407.877 239.212 407.509 240.317 406.772 241.065ZM411.74 236.373V238.787C411.74 239.433 411.995 239.988 412.505 240.453C413.015 240.918 413.61 241.15 414.29 241.15C415.095 241.15 415.718 240.85 416.16 240.249C416.614 239.637 416.84 238.747 416.84 237.58C416.84 235.2 415.99 234.01 414.29 234.01C413.599 234.01 412.998 234.248 412.488 234.724C411.99 235.189 411.74 235.738 411.74 236.373ZM411.553 245.553C411.429 245.678 411.276 245.74 411.094 245.74C410.913 245.74 410.754 245.678 410.618 245.553C410.494 245.428 410.431 245.275 410.431 245.094V233.772C410.431 233.602 410.488 233.46 410.601 233.347C410.726 233.222 410.873 233.16 411.043 233.16C411.213 233.16 411.361 233.222 411.485 233.347C411.61 233.46 411.672 233.602 411.672 233.772L411.689 234.418C411.689 234.429 411.695 234.435 411.706 234.435L411.74 234.401C412.488 233.46 413.435 232.99 414.579 232.99C415.679 232.99 416.546 233.392 417.18 234.197C417.826 234.99 418.149 236.118 418.149 237.58C418.149 238.997 417.815 240.119 417.146 240.946C416.489 241.762 415.633 242.17 414.579 242.17C413.423 242.17 412.494 241.734 411.791 240.861C411.78 240.85 411.769 240.844 411.757 240.844C411.746 240.844 411.74 240.85 411.74 240.861V245.094C411.74 245.275 411.678 245.428 411.553 245.553ZM422.029 241.796C421.904 241.932 421.746 242 421.553 242C421.36 242 421.196 241.932 421.06 241.796C420.935 241.66 420.873 241.501 420.873 241.32V229.93C420.873 229.749 420.935 229.59 421.06 229.454C421.196 229.318 421.36 229.25 421.553 229.25C421.746 229.25 421.904 229.318 422.029 229.454C422.165 229.59 422.233 229.749 422.233 229.93V241.32C422.233 241.501 422.165 241.66 422.029 241.796ZM431.627 237.58C431.627 235.2 430.72 234.01 428.907 234.01C427.093 234.01 426.187 235.2 426.187 237.58C426.187 239.96 427.093 241.15 428.907 241.15C430.72 241.15 431.627 239.96 431.627 237.58ZM431.882 240.963C431.168 241.768 430.176 242.17 428.907 242.17C427.637 242.17 426.646 241.768 425.932 240.963C425.218 240.158 424.861 239.031 424.861 237.58C424.861 236.129 425.218 235.002 425.932 234.197C426.646 233.392 427.637 232.99 428.907 232.99C430.176 232.99 431.168 233.392 431.882 234.197C432.596 235.002 432.953 236.129 432.953 237.58C432.953 239.031 432.596 240.158 431.882 240.963ZM439.186 237.325C438.064 237.325 437.214 237.506 436.636 237.869C436.069 238.232 435.786 238.742 435.786 239.399C435.786 239.909 435.928 240.323 436.211 240.64C436.506 240.946 436.891 241.099 437.367 241.099C438.183 241.099 438.857 240.827 439.39 240.283C439.934 239.739 440.206 239.019 440.206 238.124V237.478C440.206 237.376 440.155 237.325 440.053 237.325H439.186ZM437.095 242.17C436.324 242.17 435.695 241.926 435.208 241.439C434.721 240.952 434.477 240.306 434.477 239.501C434.477 238.56 434.851 237.807 435.599 237.24C436.347 236.673 437.543 236.39 439.186 236.39H440.053C440.155 236.39 440.206 236.345 440.206 236.254V235.931C440.206 235.24 440.047 234.758 439.73 234.486C439.413 234.203 438.852 234.061 438.047 234.061C437.265 234.061 436.421 234.208 435.514 234.503C435.378 234.548 435.253 234.531 435.14 234.452C435.027 234.373 434.97 234.259 434.97 234.112C434.97 233.715 435.157 233.46 435.531 233.347C436.37 233.109 437.208 232.99 438.047 232.99C439.35 232.99 440.251 233.228 440.75 233.704C441.26 234.18 441.515 235.036 441.515 236.271V241.388C441.515 241.558 441.453 241.705 441.328 241.83C441.215 241.943 441.073 242 440.903 242C440.733 242 440.586 241.943 440.461 241.83C440.336 241.705 440.274 241.558 440.274 241.388L440.257 240.504C440.257 240.493 440.251 240.487 440.24 240.487C440.217 240.487 440.206 240.498 440.206 240.521C439.537 241.62 438.5 242.17 437.095 242.17ZM447.315 234.01C445.615 234.01 444.765 235.2 444.765 237.58C444.765 238.759 444.986 239.648 445.428 240.249C445.881 240.85 446.51 241.15 447.315 241.15C447.972 241.15 448.562 240.923 449.083 240.47C449.604 240.005 449.865 239.478 449.865 238.889V236.271C449.865 235.693 449.604 235.172 449.083 234.707C448.573 234.242 447.984 234.01 447.315 234.01ZM447.043 242.17C445.989 242.17 445.128 241.762 444.459 240.946C443.802 240.119 443.473 238.997 443.473 237.58C443.473 236.118 443.79 234.99 444.425 234.197C445.071 233.392 445.944 232.99 447.043 232.99C448.154 232.99 449.077 233.426 449.814 234.299C449.825 234.31 449.837 234.316 449.848 234.316C449.859 234.316 449.865 234.31 449.865 234.299V229.896C449.865 229.715 449.927 229.562 450.052 229.437C450.188 229.312 450.347 229.25 450.528 229.25C450.709 229.25 450.862 229.312 450.987 229.437C451.112 229.562 451.174 229.715 451.174 229.896V241.388C451.174 241.558 451.112 241.705 450.987 241.83C450.874 241.943 450.732 242 450.562 242C450.392 242 450.245 241.943 450.12 241.83C449.995 241.705 449.933 241.558 449.933 241.388V240.759C449.933 240.748 449.927 240.742 449.916 240.742C449.905 240.742 449.893 240.748 449.882 240.759C449.123 241.7 448.176 242.17 447.043 242.17ZM459.702 236.373V238.787C459.702 239.433 459.957 239.988 460.467 240.453C460.977 240.918 461.572 241.15 462.252 241.15C463.057 241.15 463.68 240.85 464.122 240.249C464.575 239.637 464.802 238.747 464.802 237.58C464.802 235.2 463.952 234.01 462.252 234.01C461.561 234.01 460.96 234.248 460.45 234.724C459.951 235.189 459.702 235.738 459.702 236.373ZM459.515 245.553C459.39 245.678 459.237 245.74 459.056 245.74C458.875 245.74 458.716 245.678 458.58 245.553C458.455 245.428 458.393 245.275 458.393 245.094V233.772C458.393 233.602 458.45 233.46 458.563 233.347C458.688 233.222 458.835 233.16 459.005 233.16C459.175 233.16 459.322 233.222 459.447 233.347C459.572 233.46 459.634 233.602 459.634 233.772L459.651 234.418C459.651 234.429 459.657 234.435 459.668 234.435L459.702 234.401C460.45 233.46 461.396 232.99 462.541 232.99C463.64 232.99 464.507 233.392 465.142 234.197C465.788 234.99 466.111 236.118 466.111 237.58C466.111 238.997 465.777 240.119 465.108 240.946C464.451 241.762 463.595 242.17 462.541 242.17C461.385 242.17 460.456 241.734 459.753 240.861C459.742 240.85 459.73 240.844 459.719 240.844C459.708 240.844 459.702 240.85 459.702 240.861V245.094C459.702 245.275 459.64 245.428 459.515 245.553ZM469.362 241.813C469.237 241.938 469.084 242 468.903 242C468.722 242 468.563 241.938 468.427 241.813C468.302 241.688 468.24 241.535 468.24 241.354V229.896C468.24 229.715 468.302 229.562 468.427 229.437C468.563 229.312 468.722 229.25 468.903 229.25C469.084 229.25 469.237 229.312 469.362 229.437C469.487 229.562 469.549 229.715 469.549 229.896V234.486C469.549 234.497 469.555 234.503 469.566 234.503C469.577 234.503 469.589 234.497 469.6 234.486C470.416 233.489 471.362 232.99 472.439 232.99C473.47 232.99 474.218 233.279 474.683 233.857C475.148 234.424 475.38 235.381 475.38 236.73V241.354C475.38 241.535 475.318 241.688 475.193 241.813C475.08 241.938 474.932 242 474.751 242C474.57 242 474.417 241.938 474.292 241.813C474.167 241.688 474.105 241.535 474.105 241.354V236.951C474.105 235.806 473.952 235.041 473.646 234.656C473.351 234.259 472.836 234.061 472.099 234.061C471.51 234.061 470.937 234.344 470.382 234.911C469.827 235.466 469.549 236.039 469.549 236.628V241.354C469.549 241.535 469.487 241.688 469.362 241.813ZM484.021 237.58C484.021 235.2 483.115 234.01 481.301 234.01C479.488 234.01 478.581 235.2 478.581 237.58C478.581 239.96 479.488 241.15 481.301 241.15C483.115 241.15 484.021 239.96 484.021 237.58ZM484.276 240.963C483.562 241.768 482.571 242.17 481.301 242.17C480.032 242.17 479.04 241.768 478.326 240.963C477.612 240.158 477.255 239.031 477.255 237.58C477.255 236.129 477.612 235.002 478.326 234.197C479.04 233.392 480.032 232.99 481.301 232.99C482.571 232.99 483.562 233.392 484.276 234.197C484.99 235.002 485.347 236.129 485.347 237.58C485.347 239.031 484.99 240.158 484.276 240.963ZM487.215 234.52C487.068 234.52 486.943 234.475 486.841 234.384C486.751 234.282 486.705 234.157 486.705 234.01C486.705 233.863 486.751 233.744 486.841 233.653C486.943 233.551 487.068 233.5 487.215 233.5H488.456C488.558 233.5 488.609 233.449 488.609 233.347V230.916C488.609 230.735 488.672 230.582 488.796 230.457C488.921 230.332 489.074 230.27 489.255 230.27C489.437 230.27 489.59 230.332 489.714 230.457C489.839 230.582 489.901 230.735 489.901 230.916V233.347C489.901 233.449 489.952 233.5 490.054 233.5H492.604C492.752 233.5 492.871 233.551 492.961 233.653C493.063 233.744 493.114 233.863 493.114 234.01C493.114 234.157 493.063 234.282 492.961 234.384C492.871 234.475 492.752 234.52 492.604 234.52H490.054C489.952 234.52 489.901 234.571 489.901 234.673V239.161C489.901 239.977 490.009 240.515 490.224 240.776C490.44 241.025 490.853 241.15 491.465 241.15C491.828 241.15 492.128 241.122 492.366 241.065C492.491 241.042 492.604 241.071 492.706 241.15C492.82 241.218 492.876 241.314 492.876 241.439C492.876 241.598 492.825 241.739 492.723 241.864C492.633 241.989 492.514 242.062 492.366 242.085C492.072 242.142 491.698 242.17 491.244 242.17C490.247 242.17 489.556 241.966 489.17 241.558C488.796 241.139 488.609 240.379 488.609 239.28V234.673C488.609 234.571 488.558 234.52 488.456 234.52H487.215ZM501.669 237.58C501.669 235.2 500.762 234.01 498.949 234.01C497.135 234.01 496.229 235.2 496.229 237.58C496.229 239.96 497.135 241.15 498.949 241.15C500.762 241.15 501.669 239.96 501.669 237.58ZM501.924 240.963C501.21 241.768 500.218 242.17 498.949 242.17C497.679 242.17 496.688 241.768 495.974 240.963C495.26 240.158 494.903 239.031 494.903 237.58C494.903 236.129 495.26 235.002 495.974 234.197C496.688 233.392 497.679 232.99 498.949 232.99C500.218 232.99 501.21 233.392 501.924 234.197C502.638 235.002 502.995 236.129 502.995 237.58C502.995 239.031 502.638 240.158 501.924 240.963Z" fill="#6251A3"/>
<path d="M381.601 310.796C381.476 310.932 381.318 311 381.125 311C380.932 311 380.768 310.932 380.632 310.796C380.507 310.66 380.445 310.501 380.445 310.32V299.559C380.445 299.298 380.541 299.072 380.734 298.879C380.927 298.686 381.153 298.59 381.414 298.59H386.956C387.115 298.59 387.251 298.647 387.364 298.76C387.477 298.873 387.534 299.004 387.534 299.151C387.534 299.298 387.477 299.434 387.364 299.559C387.251 299.672 387.115 299.729 386.956 299.729H381.958C381.856 299.729 381.805 299.774 381.805 299.865V303.809C381.805 303.9 381.856 303.945 381.958 303.945H386.65C386.809 303.945 386.939 304.002 387.041 304.115C387.143 304.217 387.194 304.342 387.194 304.489C387.194 304.636 387.143 304.767 387.041 304.88C386.939 304.982 386.809 305.033 386.65 305.033H381.958C381.856 305.033 381.805 305.084 381.805 305.186V310.32C381.805 310.501 381.737 310.66 381.601 310.796ZM395.842 306.58C395.842 304.2 394.936 303.01 393.122 303.01C391.309 303.01 390.402 304.2 390.402 306.58C390.402 308.96 391.309 310.15 393.122 310.15C394.936 310.15 395.842 308.96 395.842 306.58ZM396.097 309.963C395.383 310.768 394.392 311.17 393.122 311.17C391.853 311.17 390.861 310.768 390.147 309.963C389.433 309.158 389.076 308.031 389.076 306.58C389.076 305.129 389.433 304.002 390.147 303.197C390.861 302.392 391.853 301.99 393.122 301.99C394.392 301.99 395.383 302.392 396.097 303.197C396.811 304.002 397.168 305.129 397.168 306.58C397.168 308.031 396.811 309.158 396.097 309.963ZM400.274 310.796C400.149 310.932 399.99 311 399.798 311C399.605 311 399.441 310.932 399.305 310.796C399.18 310.66 399.118 310.501 399.118 310.32V302.806C399.118 302.625 399.18 302.472 399.305 302.347C399.429 302.222 399.582 302.16 399.764 302.16C399.945 302.16 400.098 302.222 400.223 302.347C400.347 302.472 400.41 302.625 400.41 302.806V304.115C400.41 304.126 400.415 304.132 400.427 304.132C400.449 304.132 400.461 304.121 400.461 304.098C400.801 303.531 401.277 303.078 401.889 302.738C402.512 302.387 403.209 302.194 403.98 302.16C404.138 302.149 404.274 302.2 404.388 302.313C404.501 302.426 404.558 302.562 404.558 302.721C404.558 302.868 404.501 302.999 404.388 303.112C404.286 303.225 404.155 303.288 403.997 303.299C402.875 303.344 402.008 303.673 401.396 304.285C400.784 304.886 400.478 305.73 400.478 306.818V310.32C400.478 310.501 400.41 310.66 400.274 310.796ZM407.893 310.813C407.768 310.938 407.615 311 407.434 311C407.253 311 407.094 310.938 406.958 310.813C406.833 310.688 406.771 310.535 406.771 310.354V302.789C406.771 302.619 406.833 302.472 406.958 302.347C407.083 302.222 407.23 302.16 407.4 302.16C407.57 302.16 407.717 302.222 407.842 302.347C407.967 302.472 408.029 302.619 408.029 302.789L408.046 303.35C408.046 303.361 408.052 303.367 408.063 303.367C408.086 303.367 408.097 303.356 408.097 303.333C408.743 302.438 409.514 301.99 410.409 301.99C410.953 301.99 411.389 302.109 411.718 302.347C412.058 302.585 412.336 302.982 412.551 303.537C412.551 303.56 412.557 303.571 412.568 303.571C412.591 303.571 412.602 303.56 412.602 303.537C413.237 302.506 414.064 301.99 415.084 301.99C415.991 301.99 416.642 302.251 417.039 302.772C417.447 303.293 417.651 304.166 417.651 305.39V310.354C417.651 310.535 417.589 310.688 417.464 310.813C417.351 310.938 417.203 311 417.022 311C416.841 311 416.688 310.938 416.563 310.813C416.438 310.688 416.376 310.535 416.376 310.354V305.73C416.376 304.676 416.251 303.962 416.002 303.588C415.764 303.203 415.339 303.01 414.727 303.01C414.308 303.01 413.894 303.237 413.486 303.69C413.078 304.132 412.874 304.591 412.874 305.067V310.354C412.874 310.535 412.812 310.688 412.687 310.813C412.562 310.938 412.409 311 412.228 311C412.047 311 411.894 310.938 411.769 310.813C411.644 310.688 411.582 310.535 411.582 310.354V305.73C411.582 304.676 411.457 303.962 411.208 303.588C410.97 303.203 410.551 303.01 409.95 303.01C409.531 303.01 409.111 303.237 408.692 303.69C408.284 304.132 408.08 304.591 408.08 305.067V310.354C408.08 310.535 408.018 310.688 407.893 310.813ZM424.403 306.325C423.281 306.325 422.431 306.506 421.853 306.869C421.286 307.232 421.003 307.742 421.003 308.399C421.003 308.909 421.144 309.323 421.428 309.64C421.722 309.946 422.108 310.099 422.584 310.099C423.4 310.099 424.074 309.827 424.607 309.283C425.151 308.739 425.423 308.019 425.423 307.124V306.478C425.423 306.376 425.372 306.325 425.27 306.325H424.403ZM422.312 311.17C421.541 311.17 420.912 310.926 420.425 310.439C419.937 309.952 419.694 309.306 419.694 308.501C419.694 307.56 420.068 306.807 420.816 306.24C421.564 305.673 422.759 305.39 424.403 305.39H425.27C425.372 305.39 425.423 305.345 425.423 305.254V304.931C425.423 304.24 425.264 303.758 424.947 303.486C424.629 303.203 424.068 303.061 423.264 303.061C422.482 303.061 421.637 303.208 420.731 303.503C420.595 303.548 420.47 303.531 420.357 303.452C420.243 303.373 420.187 303.259 420.187 303.112C420.187 302.715 420.374 302.46 420.748 302.347C421.586 302.109 422.425 301.99 423.264 301.99C424.567 301.99 425.468 302.228 425.967 302.704C426.477 303.18 426.732 304.036 426.732 305.271V310.388C426.732 310.558 426.669 310.705 426.545 310.83C426.431 310.943 426.29 311 426.12 311C425.95 311 425.802 310.943 425.678 310.83C425.553 310.705 425.491 310.558 425.491 310.388L425.474 309.504C425.474 309.493 425.468 309.487 425.457 309.487C425.434 309.487 425.423 309.498 425.423 309.521C424.754 310.62 423.717 311.17 422.312 311.17ZM428.77 303.52C428.623 303.52 428.498 303.475 428.396 303.384C428.305 303.282 428.26 303.157 428.26 303.01C428.26 302.863 428.305 302.744 428.396 302.653C428.498 302.551 428.623 302.5 428.77 302.5H430.011C430.113 302.5 430.164 302.449 430.164 302.347V299.916C430.164 299.735 430.226 299.582 430.351 299.457C430.476 299.332 430.629 299.27 430.81 299.27C430.991 299.27 431.144 299.332 431.269 299.457C431.394 299.582 431.456 299.735 431.456 299.916V302.347C431.456 302.449 431.507 302.5 431.609 302.5H434.159C434.306 302.5 434.425 302.551 434.516 302.653C434.618 302.744 434.669 302.863 434.669 303.01C434.669 303.157 434.618 303.282 434.516 303.384C434.425 303.475 434.306 303.52 434.159 303.52H431.609C431.507 303.52 431.456 303.571 431.456 303.673V308.161C431.456 308.977 431.564 309.515 431.779 309.776C431.994 310.025 432.408 310.15 433.02 310.15C433.383 310.15 433.683 310.122 433.921 310.065C434.046 310.042 434.159 310.071 434.261 310.15C434.374 310.218 434.431 310.314 434.431 310.439C434.431 310.598 434.38 310.739 434.278 310.864C434.187 310.989 434.068 311.062 433.921 311.085C433.626 311.142 433.252 311.17 432.799 311.17C431.802 311.17 431.11 310.966 430.725 310.558C430.351 310.139 430.164 309.379 430.164 308.28V303.673C430.164 303.571 430.113 303.52 430.011 303.52H428.77ZM439.432 304.132C439.285 304.291 439.098 304.37 438.871 304.37C438.645 304.37 438.452 304.291 438.293 304.132C438.146 303.973 438.072 303.786 438.072 303.571V302.84C438.072 302.613 438.146 302.426 438.293 302.279C438.452 302.12 438.645 302.041 438.871 302.041C439.098 302.041 439.285 302.12 439.432 302.279C439.591 302.426 439.67 302.613 439.67 302.84V303.571C439.67 303.786 439.591 303.973 439.432 304.132ZM439.432 310.762C439.285 310.921 439.098 311 438.871 311C438.645 311 438.452 310.921 438.293 310.762C438.146 310.603 438.072 310.416 438.072 310.201V309.47C438.072 309.243 438.146 309.056 438.293 308.909C438.452 308.75 438.645 308.671 438.871 308.671C439.098 308.671 439.285 308.75 439.432 308.909C439.591 309.056 439.67 309.243 439.67 309.47V310.201C439.67 310.416 439.591 310.603 439.432 310.762ZM449.357 299.831V304.829C449.357 304.92 449.408 304.976 449.51 304.999C450.054 305.078 450.666 305.118 451.346 305.118C452.468 305.118 453.323 304.874 453.913 304.387C454.513 303.9 454.814 303.203 454.814 302.296C454.814 301.389 454.519 300.704 453.93 300.239C453.352 299.763 452.49 299.525 451.346 299.525C450.734 299.525 450.122 299.57 449.51 299.661C449.408 299.684 449.357 299.74 449.357 299.831ZM449.153 310.796C449.028 310.932 448.869 311 448.677 311C448.484 311 448.32 310.932 448.184 310.796C448.059 310.66 447.997 310.501 447.997 310.32V299.644C447.997 299.372 448.087 299.134 448.269 298.93C448.45 298.715 448.677 298.59 448.949 298.556C449.821 298.465 450.654 298.42 451.448 298.42C452.989 298.42 454.156 298.749 454.95 299.406C455.754 300.052 456.157 300.981 456.157 302.194C456.157 303.509 455.754 304.506 454.95 305.186C454.145 305.866 452.978 306.206 451.448 306.206C450.836 306.206 450.19 306.178 449.51 306.121C449.408 306.121 449.357 306.161 449.357 306.24V310.32C449.357 310.501 449.289 310.66 449.153 310.796ZM459.312 310.813C459.187 310.938 459.034 311 458.853 311C458.672 311 458.513 310.938 458.377 310.813C458.252 310.688 458.19 310.53 458.19 310.337V299.287C458.19 299.094 458.258 298.93 458.394 298.794C458.53 298.658 458.694 298.59 458.887 298.59C459.352 298.59 459.703 298.794 459.941 299.202L465.585 308.773C465.585 308.784 465.596 308.79 465.619 308.79C465.63 308.79 465.636 308.784 465.636 308.773V299.253C465.636 299.06 465.698 298.902 465.823 298.777C465.959 298.652 466.118 298.59 466.299 298.59C466.48 298.59 466.633 298.652 466.758 298.777C466.894 298.902 466.962 299.06 466.962 299.253V310.303C466.962 310.496 466.894 310.66 466.758 310.796C466.622 310.932 466.458 311 466.265 311C465.8 311 465.449 310.796 465.211 310.388L459.567 300.817C459.567 300.806 459.556 300.8 459.533 300.8C459.522 300.8 459.516 300.806 459.516 300.817V310.337C459.516 310.53 459.448 310.688 459.312 310.813ZM474.859 311.17C473.159 311.17 471.771 310.598 470.694 309.453C469.618 308.297 469.079 306.744 469.079 304.795C469.079 302.823 469.623 301.27 470.711 300.137C471.799 298.992 473.278 298.42 475.148 298.42C476.044 298.42 476.854 298.505 477.579 298.675C477.749 298.709 477.885 298.8 477.987 298.947C478.101 299.083 478.157 299.236 478.157 299.406C478.157 299.553 478.095 299.672 477.97 299.763C477.846 299.854 477.71 299.876 477.562 299.831C476.826 299.627 476.061 299.525 475.267 299.525C473.76 299.525 472.581 299.99 471.731 300.919C470.893 301.837 470.473 303.129 470.473 304.795C470.473 306.416 470.881 307.702 471.697 308.654C472.525 309.595 473.618 310.065 474.978 310.065C475.806 310.065 476.571 309.946 477.273 309.708C477.364 309.674 477.409 309.606 477.409 309.504V305.016C477.409 304.914 477.364 304.863 477.273 304.863H473.941C473.783 304.863 473.652 304.812 473.55 304.71C473.448 304.597 473.397 304.466 473.397 304.319C473.397 304.172 473.448 304.047 473.55 303.945C473.652 303.832 473.783 303.775 473.941 303.775H477.749C478.01 303.775 478.237 303.871 478.429 304.064C478.622 304.257 478.718 304.483 478.718 304.744V309.453C478.718 309.748 478.633 310.02 478.463 310.269C478.305 310.507 478.089 310.671 477.817 310.762C476.956 311.034 475.97 311.17 474.859 311.17ZM481.617 312.87C481.47 312.87 481.345 312.808 481.243 312.683C481.153 312.558 481.13 312.422 481.175 312.275L481.991 309.487C482.059 309.249 482.195 309.056 482.399 308.909C482.615 308.75 482.847 308.671 483.096 308.671C483.3 308.671 483.459 308.756 483.572 308.926C483.686 309.096 483.703 309.277 483.623 309.47L482.484 312.292C482.416 312.473 482.303 312.615 482.144 312.717C481.986 312.819 481.81 312.87 481.617 312.87ZM490.676 310.847C490.494 310.79 490.347 310.688 490.234 310.541C490.12 310.394 490.064 310.224 490.064 310.031C490.064 309.884 490.126 309.765 490.251 309.674C490.375 309.583 490.511 309.566 490.659 309.623C491.441 309.895 492.245 310.031 493.073 310.031C493.968 310.031 494.625 309.765 495.045 309.232C495.464 308.699 495.674 307.815 495.674 306.58V299.304C495.674 299.111 495.742 298.947 495.878 298.811C496.025 298.664 496.195 298.59 496.388 298.59C496.58 298.59 496.745 298.664 496.881 298.811C497.028 298.947 497.102 299.111 497.102 299.304V306.92C497.102 308.393 496.773 309.47 496.116 310.15C495.458 310.83 494.444 311.17 493.073 311.17C492.268 311.17 491.469 311.062 490.676 310.847ZM501.187 299.831V304.829C501.187 304.92 501.238 304.976 501.34 304.999C501.884 305.078 502.496 305.118 503.176 305.118C504.298 305.118 505.154 304.874 505.743 304.387C506.344 303.9 506.644 303.203 506.644 302.296C506.644 301.389 506.349 300.704 505.76 300.239C505.182 299.763 504.321 299.525 503.176 299.525C502.564 299.525 501.952 299.57 501.34 299.661C501.238 299.684 501.187 299.74 501.187 299.831ZM500.983 310.796C500.858 310.932 500.7 311 500.507 311C500.314 311 500.15 310.932 500.014 310.796C499.889 310.66 499.827 310.501 499.827 310.32V299.644C499.827 299.372 499.918 299.134 500.099 298.93C500.28 298.715 500.507 298.59 500.779 298.556C501.652 298.465 502.485 298.42 503.278 298.42C504.819 298.42 505.987 298.749 506.78 299.406C507.585 300.052 507.987 300.981 507.987 302.194C507.987 303.509 507.585 304.506 506.78 305.186C505.975 305.866 504.808 306.206 503.278 306.206C502.666 306.206 502.02 306.178 501.34 306.121C501.238 306.121 501.187 306.161 501.187 306.24V310.32C501.187 310.501 501.119 310.66 500.983 310.796ZM515.035 311.17C513.335 311.17 511.947 310.598 510.87 309.453C509.794 308.297 509.255 306.744 509.255 304.795C509.255 302.823 509.799 301.27 510.887 300.137C511.975 298.992 513.454 298.42 515.324 298.42C516.22 298.42 517.03 298.505 517.755 298.675C517.925 298.709 518.061 298.8 518.163 298.947C518.277 299.083 518.333 299.236 518.333 299.406C518.333 299.553 518.271 299.672 518.146 299.763C518.022 299.854 517.886 299.876 517.738 299.831C517.002 299.627 516.237 299.525 515.443 299.525C513.936 299.525 512.757 299.99 511.907 300.919C511.069 301.837 510.649 303.129 510.649 304.795C510.649 306.416 511.057 307.702 511.873 308.654C512.701 309.595 513.794 310.065 515.154 310.065C515.982 310.065 516.747 309.946 517.449 309.708C517.54 309.674 517.585 309.606 517.585 309.504V305.016C517.585 304.914 517.54 304.863 517.449 304.863H514.117C513.959 304.863 513.828 304.812 513.726 304.71C513.624 304.597 513.573 304.466 513.573 304.319C513.573 304.172 513.624 304.047 513.726 303.945C513.828 303.832 513.959 303.775 514.117 303.775H517.925C518.186 303.775 518.413 303.871 518.605 304.064C518.798 304.257 518.894 304.483 518.894 304.744V309.453C518.894 309.748 518.809 310.02 518.639 310.269C518.481 310.507 518.265 310.671 517.993 310.762C517.132 311.034 516.146 311.17 515.035 311.17Z" fill="#6251A3"/>
<defs>
<clipPath id="clip0_2244_9926">
<rect width="66" height="74" fill="white" transform="translate(419 138)"/>
</clipPath>
</defs>
</svg>
