<svg width="30" height="32" viewBox="0 0 30 32" fill="none" xmlns="http://www.w3.org/2000/svg">
<path d="M13.0179 13.2312C12.6278 13.4746 12.293 13.7873 12.0325 14.1514C11.7719 14.5155 11.5908 14.924 11.4994 15.3535C11.3148 16.2208 11.5069 17.1211 12.0335 17.8563C12.5601 18.5914 13.378 19.1012 14.3073 19.2735C15.2366 19.4458 16.2012 19.2665 16.9888 18.775C17.7765 18.2835 18.3227 17.5201 18.5073 16.6528C18.6919 15.7854 18.4998 14.8851 17.9732 14.15C17.4466 13.4149 16.6287 12.9051 15.6994 12.7328C14.7701 12.5605 13.8055 12.7398 13.0179 13.2312ZM22.5469 8.95625C22.1987 8.63125 21.7768 8.375 21.3147 8.20625C20.1027 7.7625 17.4576 7.78125 15.75 7.8C15.4754 7.8 15.221 7.80625 15 7.80625C14.779 7.80625 14.5179 7.80625 14.2366 7.8C12.529 7.78125 9.89732 7.75625 8.68527 8.20625C8.22321 8.375 7.80804 8.63125 7.45312 8.95625C7.09821 9.28125 6.83036 9.675 6.64955 10.1062C6.17411 11.2375 6.20089 13.7125 6.21429 15.3062C6.21429 15.5625 6.22098 15.8 6.22098 16C6.22098 16.2 6.22098 16.4375 6.21429 16.6938C6.20089 18.2875 6.17411 20.7625 6.64955 21.8937C6.83036 22.325 7.10491 22.7125 7.45312 23.0438C7.80134 23.375 8.22321 23.625 8.68527 23.7938C9.89732 24.2375 12.5424 24.2188 14.25 24.2C14.5246 24.2 14.779 24.1938 15 24.1938C15.221 24.1938 15.4821 24.1938 15.7634 24.2C17.471 24.2188 20.1027 24.2438 21.3147 23.7938C21.7768 23.625 22.192 23.3688 22.5469 23.0438C22.9018 22.7188 23.1696 22.325 23.3504 21.8937C23.8326 20.7687 23.8058 18.3062 23.7857 16.7062C23.7857 16.4437 23.779 16.2 23.779 15.9937C23.779 15.7875 23.779 15.55 23.7857 15.2812C23.8058 13.6875 23.8326 11.225 23.3504 10.0938C23.1696 9.6625 22.8951 9.275 22.5469 8.94375V8.95625ZM18.0536 11.7375C19.2648 12.4934 20.1047 13.6674 20.3885 15.0012C20.6723 16.3351 20.3768 17.7195 19.567 18.85C19.166 19.4098 18.6508 19.8903 18.0508 20.2642C17.4508 20.6382 16.7778 20.8981 16.0701 21.0293C14.641 21.2942 13.1577 21.0184 11.9464 20.2625C10.7352 19.5075 9.89493 18.3343 9.61049 17.001C9.32604 15.6677 9.62072 14.2836 10.4297 13.1531C11.2387 12.0226 12.4957 11.2384 13.9242 10.9729C15.3527 10.7074 16.8356 10.9825 18.0469 11.7375H18.0536ZM20.0089 11.6562C19.8013 11.525 19.6339 11.3375 19.5335 11.1187C19.433 10.9 19.4129 10.6625 19.4598 10.425C19.5067 10.1875 19.6339 9.98125 19.808 9.8125C19.9821 9.64375 20.2165 9.53125 20.4643 9.4875C20.7121 9.44375 20.9732 9.4625 21.2076 9.55625C21.442 9.65 21.6429 9.8 21.7835 9.99375C21.9241 10.1875 21.9978 10.4187 21.9978 10.6562C21.9978 10.8125 21.9643 10.9688 21.904 11.1125C21.8438 11.2563 21.7433 11.3875 21.6295 11.5C21.5156 11.6125 21.3683 11.7 21.2143 11.7625C21.0603 11.825 20.8929 11.8562 20.7254 11.8562C20.471 11.8562 20.2232 11.7875 20.0156 11.6562H20.0089ZM30 6C30 3.79375 28.0781 2 25.7143 2H4.28571C1.92188 2 0 3.79375 0 6V26C0 28.2062 1.92188 30 4.28571 30H25.7143C28.0781 30 30 28.2062 30 26V6ZM23.9062 24.3125C22.654 25.4813 21.1339 25.85 19.4196 25.9312C17.6518 26.025 12.3482 26.025 10.5804 25.9312C8.86607 25.85 7.34598 25.4813 6.09375 24.3125C4.84152 23.1437 4.44643 21.725 4.36607 20.125C4.26562 18.475 4.26562 13.525 4.36607 11.875C4.45312 10.275 4.84152 8.85625 6.09375 7.6875C7.34598 6.51875 8.87277 6.15 10.5804 6.075C12.3482 5.98125 17.6518 5.98125 19.4196 6.075C21.1339 6.15625 22.654 6.51875 23.9062 7.6875C25.1585 8.85625 25.5536 10.275 25.6339 11.875C25.7344 13.5188 25.7344 18.4625 25.6339 20.1187C25.5469 21.7188 25.1585 23.1375 23.9062 24.3062V24.3125Z" fill="black"/>
</svg>
