<svg width="1020" height="362" viewBox="0 0 1020 362" fill="none" xmlns="http://www.w3.org/2000/svg">
<path d="M33.6201 236.552L2.58616 90.434H50.4302L72.9298 209.915L92.5846 123.02C98.2742 97.4166 110.429 86.5547 129.05 86.5547C147.67 86.5547 159.825 97.4166 165.514 123.02L185.169 209.915L207.669 90.434H255.513L224.479 236.552C220.082 257.5 206.117 269.138 187.238 269.138C170.17 269.138 154.911 257.759 150.515 238.621L129.05 144.226L107.584 238.621C103.188 257.759 87.9295 269.138 70.8609 269.138C51.9819 269.138 38.0166 257.5 33.6201 236.552ZM289.165 265L334.165 118.106C340.63 96.6408 358.733 86.5547 376.836 86.5547C394.939 86.5547 413.043 96.6408 419.508 118.106L464.507 265H415.629L407.612 235.518H346.32L338.044 265H289.165ZM375.026 132.071L358.216 192.846H395.715L379.164 132.071C378.647 130.261 378.129 129.485 377.095 129.485C376.06 129.485 375.543 130.261 375.026 132.071ZM575.714 90.434V221.035H652.782V265H569.249C539.767 265 527.87 249.483 527.87 224.914V90.434H575.714ZM794.049 268.879C741.291 268.879 701.982 229.828 701.982 177.846C701.982 125.864 741.291 86.8134 794.049 86.8134C846.807 86.8134 886.116 125.864 886.116 177.846C886.116 229.828 846.807 268.879 794.049 268.879ZM794.049 223.621C818.359 223.621 836.979 203.708 836.979 177.846C836.979 151.985 818.359 132.071 794.049 132.071C769.739 132.071 751.119 151.985 751.119 177.846C751.119 203.708 769.739 223.621 794.049 223.621Z" fill="#6251A3"/>
<path d="M973.769 268.103C958.511 268.103 945.839 255.431 945.839 240.173C945.839 224.914 958.511 212.242 973.769 212.242C989.028 212.242 1001.7 224.914 1001.7 240.173C1001.7 255.431 989.028 268.103 973.769 268.103Z" fill="#5AD192"/>
<rect x="881.453" y="242.224" width="213.399" height="24.2453" transform="rotate(-150.877 881.453 242.224)" fill="white"/>
</svg>
