<svg width="571" height="571" viewBox="0 0 571 571" fill="none" xmlns="http://www.w3.org/2000/svg">
<g opacity="0.3">
<path d="M284.364 534.039H279.904V477.539L301.779 455.664V116.358L280.492 95.0772V46.2795H284.952V93.2329L306.239 114.514V457.508L284.364 479.383V534.039ZM426.394 402.909H421.935V328.656L367.153 273.874V161.41L343.103 137.36V97.8066H347.562V135.515L371.613 159.566V272.03L426.394 326.812V402.909Z" fill="white"/>
<path d="M425.739 369.443L422.587 366.291L458.874 330.004V252.765L414.428 208.324V169.13H418.887V206.479L463.328 250.92V331.848L425.739 369.443Z" fill="white"/>
<path d="M414.889 316.231H410.43V268.033L443.856 234.601L447.008 237.753L414.889 269.877V316.231ZM462.676 305.673L459.524 302.521L486.544 275.502V241.247H491.003V277.346L462.676 305.673ZM335.069 495.006H330.615V439.71L355.791 414.529V149.128H360.25V416.373L335.069 441.554V495.006Z" fill="white"/>
<path d="M410.133 419.942H405.679V367.039L356.448 317.807L359.599 314.655L410.133 365.194V419.942ZM259.075 519.33H254.615V490.809L238.719 474.906V119.088L254.695 105.744V60.9885H259.155V107.828L243.178 121.172V473.062L259.075 488.964V519.33Z" fill="white"/>
<path d="M199.765 174.566H195.311V139.061L255.351 79.015L258.503 82.1669L199.765 140.906V174.566ZM149.454 409.63H145V287.179L177.713 254.46L180.865 257.612L149.454 289.023V409.63Z" fill="white"/>
<path d="M177.056 138.627H181.516V441.691H177.056V138.627ZM63.8043 326.212L60.6523 323.06L111.683 272.03V204.001H116.142V273.874L63.8043 326.212ZM123.046 192.644H127.505V387.68H123.046V192.644Z" fill="white"/>
<path d="M87.9707 350.38L123.695 314.655L126.848 317.808L91.1241 353.533L87.9707 350.38Z" fill="white"/>
<path d="M165.249 270.077L143.031 247.854V172.659H147.491V246.01L168.401 266.925L165.249 270.077ZM475.542 287.43H480.001V350.08H475.542V287.43ZM496.463 333.612H492.009V300.649L506.153 286.505V260.85H510.607V288.349L496.463 302.493V333.612ZM83.9443 231.74H88.4039V300.689H83.9443V231.74ZM68.5273 247.157H72.9869V316.231H68.5273V247.157ZM100.064 284.581H104.523V339.22H100.064V284.581ZM401.837 303.178H397.378V211.025L383.925 197.572V138.627H388.384V195.727L401.837 209.18V303.178ZM316.022 70.7241H320.481V509.6H316.022V70.7241ZM280.562 480.04L259.715 459.193V126.802L268.931 115.199V48.8948H273.391V116.752L264.175 128.361V457.348L283.709 476.888L280.562 480.04Z" fill="white"/>
</g>
<path d="M236.977 270.911C210.192 259.468 179.209 271.91 167.772 298.69C156.335 325.476 168.771 356.458 195.557 367.895C222.343 379.332 253.319 366.896 264.762 340.116C276.199 313.331 263.757 282.348 236.977 270.911ZM203.266 349.835C186.461 342.657 178.65 323.209 185.833 306.404C193.01 289.594 212.459 281.788 229.263 288.972C246.073 296.149 253.885 315.597 246.701 332.402C239.524 349.206 220.076 357.018 203.266 349.835Z" fill="#A9E8EF"/>
<path d="M224.973 298.998C213.708 294.185 200.677 299.421 195.858 310.687C191.039 321.953 196.281 334.989 207.547 339.802C218.812 344.616 231.848 339.385 236.662 328.119C241.475 316.848 236.239 303.806 224.973 298.998ZM239.831 288.481L220.44 280.195L237.016 247.58L251.936 253.952L239.831 288.481ZM211.504 354.802L192.067 346.625L180.15 381.217L195.099 387.509L211.504 354.802ZM252.204 315.42L245.547 295.407L280.954 286.197L286.082 301.596L252.204 315.42ZM246.215 347.688L253.289 327.811L286.87 342.349L281.428 357.64L246.215 347.688ZM177.603 316.391L185.089 296.674L150.098 285.985L144.337 301.151L177.603 316.391ZM192.044 289.725L211.11 280.692L193.277 248.745L178.614 255.694L192.044 289.725ZM239.802 349.149L220.577 357.823L237.798 390.101L252.587 383.432L239.802 349.149ZM178.197 323.146L184.478 343.279L148.899 351.822L144.074 336.33L178.197 323.146Z" fill="#A9E8EF"/>
<path d="M437.729 443.53C437.729 453.945 352.815 462.39 248.06 462.39C143.316 462.39 58.3965 453.945 58.3965 443.53C58.3965 433.115 143.316 424.664 248.06 424.664C352.815 424.664 437.729 433.109 437.729 443.53Z" fill="#D0CFD9"/>
<path d="M137.719 408.956H173.892V445.42H137.719V408.956Z" fill="#FFE9BA"/>
<path d="M137.719 408.956H173.892V427.188H137.719V408.956Z" fill="#725559"/>
<path d="M199.434 372.498H236.874V445.42H199.434V372.498Z" fill="#FFE9BA"/>
<path d="M199.434 372.498H236.874V408.962H199.434V372.498Z" fill="#725559"/>
<path d="M260.371 310.79H298.577V445.42H260.371V310.79Z" fill="#FFE9BA"/>
<path d="M260.371 310.79H298.577V354.562H260.371V310.79Z" fill="#725559"/>
<path d="M320.211 230.387H358.417V445.42H320.211V230.387Z" fill="#FFE9BA"/>
<path d="M320.211 230.387H358.417V279.916H320.211V230.387Z" fill="#725559"/>
<path d="M137.719 383.507L215.814 349.109L339.31 160.942L328.798 154.764L207.86 336.051L137.719 383.507Z" fill="#5AD192"/>
<path d="M293.025 166.121L326.594 169.667L340.019 192.884L340.327 190.777L347.396 141.465L293.025 166.121Z" fill="#5AD192"/>
<path d="M205.504 326.07C205.504 326.07 216.604 334.68 212.224 334.343C207.851 334.006 204.168 333.527 201.467 327.126L205.504 326.07Z" fill="#EFC18F"/>
<path d="M209.866 260.176C209.849 257.801 208.855 252.69 204.173 255.214C196.739 259.223 187.169 285.123 186.775 291.301C186.387 297.485 201.558 328.039 201.558 328.039C201.558 328.039 205.007 329.119 206.2 325.773L195.991 291.427C195.985 291.438 209.929 268.387 209.866 260.176Z" fill="#9991E2"/>
<path d="M199.496 457.394L200.01 464.155L193.13 462.898L192.936 454.225L199.496 457.394ZM243.206 451.467L243.715 458.222L236.84 456.966L236.64 448.292L243.206 451.467Z" fill="#FFD9A7"/>
<path d="M243.275 455.778C243.275 455.778 240.317 459.689 236.137 456.777C236.137 456.777 231.638 468.688 239.843 469.562C248.043 470.43 262.546 467.398 264.168 463.726C266.492 458.433 253.119 456.275 243.275 455.778ZM199.622 462.527C199.622 462.527 195.574 465.302 192.53 461.214C192.53 461.214 184.496 471.086 191.999 474.512C199.502 477.927 214.223 479.646 216.918 476.677C220.812 472.394 208.804 466.119 199.622 462.527Z" fill="#6B5A84"/>
<path d="M211.641 238.924C211.641 238.924 215.678 247.78 212.668 253.832C210.756 257.687 227.954 269.004 227.269 264.042C226.372 257.641 223.038 253.912 226.03 246.444L211.641 238.924Z" fill="#EFC18F"/>
<path d="M224.877 222.519C230.433 227.555 235.469 244.742 229.828 249.835C227.373 252.051 218.305 255.163 211.607 245.336C208.849 241.299 205.395 233.716 209.392 225.916C211.196 222.382 218.402 216.655 224.877 222.519Z" fill="#FFD9A8"/>
<path d="M233.921 224.54C233.921 224.54 231.409 228.617 222.889 230.09C214.37 231.558 216.763 234.036 217.676 236.051C220.343 241.99 214.416 239.831 217.676 246.912C220.937 253.998 210.67 247.403 209.831 246.352C209.003 245.296 201.317 236.742 206.005 226.293C210.676 215.844 226.253 218.95 233.921 224.54Z" fill="#9B4D34"/>
<path d="M224.803 322.952L216.409 392.18C216.409 392.18 211.544 442.548 204.418 458.53C202.865 462.019 191.057 461.836 189.732 457.828C183.302 438.357 195.425 376.968 195.425 376.968L197.943 322.958H224.803V322.952Z" fill="#AFAE35"/>
<path d="M211.641 322.952C200.175 336.793 225.031 393.607 225.031 393.607C225.031 393.607 223.284 437.26 232.368 449.994C234.418 452.866 246.603 453.323 247.483 449.994C252.41 431.351 247.483 383.809 247.483 383.809L242.332 322.952H224.803C224.803 322.952 213.742 320.417 211.641 322.952Z" fill="#D8D844"/>
<path d="M230.279 258.452C238.164 265.024 244.474 280.418 245.781 330.089C246.072 341.013 196.07 338.723 196.281 327.794C196.835 298.719 188.972 289.371 198.32 263.505C200.861 256.476 214.65 245.422 230.279 258.452Z" fill="#B1A6F2"/>
<path d="M286.254 231.809C286.254 231.809 288.932 217.266 290.731 221.52C292.529 225.773 293.865 229.451 289.189 235.075L286.254 231.809Z" fill="#EFC18F"/>
<path d="M222.519 259.617C220.304 260.776 216.01 264.179 220.635 267.336C227.978 272.35 256.831 268.77 262.803 266.143C268.776 263.516 290.006 234.544 290.006 234.544C290.006 234.544 289.343 230.798 285.643 231.301L258.469 257.47C258.469 257.47 230.165 255.585 222.519 259.617Z" fill="#9991E2"/>
<g clip-path="url(#clip0_582_5423)">
<path d="M387.245 119.551H388.229L387.649 118.757C385.367 115.628 381.624 113.862 376.833 113.862H362.27C361.418 113.862 360.721 113.165 360.721 112.297V104.597C360.721 103.729 361.418 103.032 362.27 103.032H412.818C413.67 103.032 414.367 103.729 414.367 104.597V111.48C414.367 112.348 413.67 113.045 412.818 113.045H400.362H399.473L399.934 113.804C400.931 115.445 401.733 117.248 402.316 119.195L402.423 119.551H402.795H412.818C413.67 119.551 414.367 120.248 414.367 121.116V127.999C414.367 128.867 413.67 129.564 412.818 129.564H403.799H403.345L403.302 130.017C402.101 142.586 392.977 151.179 380.163 151.574L378.948 151.612L379.838 152.44L405.604 176.406C406.649 177.378 405.958 179.122 404.555 179.122H390.456C390.068 179.122 389.693 178.975 389.407 178.709L361.221 152.492C360.902 152.196 360.721 151.779 360.721 151.341V142.218C360.721 141.351 361.418 140.653 362.27 140.653H376.615C380.275 140.653 383.318 139.658 385.59 137.827C387.864 135.994 389.325 133.357 389.874 130.148L389.974 129.564H389.381H362.27C361.418 129.564 360.721 128.867 360.721 127.999V121.116C360.721 120.248 361.418 119.551 362.27 119.551H387.245Z" fill="white" stroke="white"/>
</g>
<defs>
<clipPath id="clip0_582_5423">
<rect width="54.6465" height="88.1035" fill="white" transform="translate(360.221 97.0254)"/>
</clipPath>
</defs>
</svg>
