<svg width="138" height="174" viewBox="0 0 138 174" fill="none" xmlns="http://www.w3.org/2000/svg">
<g opacity="0.3">
<path d="M68.6119 179H67.2441V158.265L73.9532 150.237V25.7178L67.4245 17.908V0H68.7922V17.2311L75.3209 25.041V150.914L68.6119 158.942V179ZM112.172 130.877H110.805V103.628L94.0031 83.5237V42.2511L86.6269 33.425V18.9096H87.9946V32.7481L95.3709 41.5743V82.8468L112.172 102.951V130.877Z" fill="white"/>
<path d="M111.971 118.595L111.004 117.439L122.134 104.122V75.7765L108.502 59.4674V45.084H109.87V58.7905L123.5 75.0996V104.799L111.971 118.595Z" fill="white"/>
<path d="M108.643 99.0674H107.276V81.3795L117.528 69.1105L118.494 70.2672L108.643 82.0563V99.0674ZM123.3 95.1929L122.333 94.0362L130.62 84.1204V71.5496H131.988V84.7972L123.3 95.1929ZM84.1628 164.675H82.7969V144.382L90.5181 135.141V37.7432H91.8858V135.818L84.1628 145.059V164.675Z" fill="white"/>
<path d="M107.184 137.127H105.818V117.713L90.7185 99.6454L91.6852 98.4887L107.184 117.036V137.127ZM60.8545 173.601H59.4868V163.134L54.6113 157.298V26.7186L59.5113 21.8215V5.39709H60.879V22.5863L55.979 27.4834V156.622L60.8545 162.457V173.601Z" fill="white"/>
<path d="M42.6653 47.0794H41.2993V34.0497L59.7137 12.0137L60.6804 13.1704L42.6653 34.7266V47.0794ZM27.2351 133.344H25.8691V88.4064L35.902 76.3993L36.8687 77.556L27.2351 89.0833V133.344Z" fill="white"/>
<path d="M35.7008 33.8903H37.0686V145.11H35.7008V33.8903ZM0.966686 102.731L0 101.574L15.6509 82.8469V57.8814H17.0186V83.5238L0.966686 102.731ZM19.1358 53.7135H20.5036V125.289H19.1358V53.7135Z" fill="white"/>
<path d="M8.37891 111.6L19.3353 98.4898L20.3025 99.647L9.34605 112.758L8.37891 111.6Z" fill="white"/>
<path d="M32.0803 82.1298L25.2662 73.9742V46.3788H26.634V73.2974L33.047 80.9731L32.0803 82.1298ZM127.246 88.498H128.614V111.49H127.246V88.498ZM133.663 105.446H132.297V93.349L136.635 88.1585V78.7435H138.001V88.8353L133.663 94.0258V105.446ZM7.14437 68.0608H8.51209V93.3637H7.14437V68.0608ZM2.41602 73.7186H3.78374V99.0676H2.41602V73.7186ZM12.0881 87.4523H13.4559V107.504H12.0881V87.4523ZM104.641 94.2773H103.274V60.4584L99.1477 55.5214V33.8898H100.515V54.8446L104.641 59.7815V94.2773ZM78.3219 8.97036H79.6896V170.031H78.3219V8.97036ZM67.4467 159.183L61.0529 151.532V29.5501L63.8794 25.292V0.959343H65.2471V25.862L62.4206 30.1221V150.855L68.4116 158.026L67.4467 159.183Z" fill="white"/>
</g>
<path d="M69.443 45.5713H70.8948V92.642H69.443V45.5713ZM73.4744 55.3488H74.9261V102.42H73.4744V55.3488ZM77.3183 37.5372H78.7719V84.608H77.3183V37.5372ZM81.4425 61.805H82.896V108.878H81.4425V61.805ZM31.7194 54.8983C25.5638 51.7509 18.4433 55.1728 15.8129 62.5384C13.1843 69.904 16.0423 78.4263 22.1997 81.5716C28.3553 84.7169 35.4759 81.2971 38.1062 73.9315C40.7349 66.5638 37.8751 58.0436 31.7194 54.8983ZM23.9719 76.6032C20.1087 74.6293 18.3137 69.2816 19.9634 64.659C21.613 60.0364 26.0822 57.8885 29.9454 59.8646C33.8087 61.8385 35.6037 67.1862 33.9523 71.8088C32.3044 76.4314 27.8334 78.5793 23.9719 76.6032Z" fill="#A9E8EF"/>
<path d="M28.9619 62.6215C26.3718 61.2972 23.3772 62.7368 22.2704 65.836C21.1636 68.9352 22.3667 72.5185 24.9568 73.8428C27.5451 75.1672 30.5415 73.7276 31.6483 70.6284C32.7551 67.5312 31.5502 63.9459 28.9619 62.6215ZM32.3768 59.7298L27.9182 57.452L31.7289 48.4812L35.1578 50.2331L32.3768 59.7298ZM25.8657 77.9688L21.3983 75.7204L18.6593 85.2338L22.0953 86.9647L25.8657 77.9688ZM35.2208 67.1394L33.6903 61.6346L41.8283 59.1011L43.0069 63.3361L35.2208 67.1394ZM33.8444 76.0116L35.4713 70.5466L43.189 74.5448L41.9369 78.7504L33.8444 76.0116ZM18.0727 67.4055L19.7941 61.9824L11.7524 59.0425L10.4285 63.2146L18.0727 67.4055ZM21.393 60.0713L25.7746 57.5882L21.6767 48.8019L18.3056 50.7129L21.393 60.0713ZM32.3698 76.414L27.9497 78.7986L31.9092 87.6772L35.3102 85.8415L32.3698 76.414ZM18.211 69.2621L19.654 74.8005L11.4775 77.1495L10.3672 72.8894L18.211 69.2621Z" fill="#A9E8EF"/>
<path d="M121.775 120.064C121.775 125.115 96.5746 129.209 65.4883 129.209C34.4055 129.209 9.20508 125.117 9.20508 120.064C9.20508 115.012 34.4055 110.92 65.4883 110.92C96.5746 110.92 121.775 115.012 121.775 120.064Z" fill="#D0CFD9"/>
<path d="M96.6188 113.813C96.6188 115.551 95.3527 116.959 93.7888 116.959H29.2695C27.7073 116.959 26.4395 115.551 26.4395 113.813V68.4442C26.4395 66.7071 27.7073 65.2968 29.2695 65.2968H93.7905C95.3526 65.2968 96.6205 66.7071 96.6205 68.4442V113.813H96.6188Z" fill="#FFE9BA"/>
<path d="M29.8438 70.9343H93.0181V114.323H29.8438V70.9343Z" fill="#725559"/>
<path d="M31.0723 108.852V115.091H31.1336C31.8078 116.754 38.086 118.062 45.7354 118.062C53.3831 118.062 59.6631 116.756 60.3356 115.091H60.3986V108.852H31.0723Z" fill="#F3A43D"/>
<path d="M36.4102 109.051V117.316C37.8917 117.588 39.6184 117.798 41.508 117.925V109.051H36.4102ZM42.466 110.537V117.98C42.881 118.001 43.3013 118.02 43.7269 118.032V110.537H42.466Z" fill="#FED150"/>
<path d="M60.4005 108.855C60.4005 110.408 53.8351 111.669 45.7374 111.669C37.6396 111.669 31.0742 110.41 31.0742 108.855C31.0742 107.302 37.6396 106.041 45.7374 106.041C53.8351 106.041 60.4005 107.302 60.4005 108.855Z" fill="#FFE984"/>
<path d="M56.845 109.026C56.845 110.202 51.8714 111.157 45.7351 111.157C39.5987 111.157 34.627 110.202 34.627 109.026C34.627 107.849 39.5987 106.895 45.7351 106.895C51.8714 106.893 56.845 107.849 56.845 109.026Z" fill="#F3A43D"/>
<path d="M45.7359 111.157C51.2586 111.157 55.7355 110.297 55.7355 109.237C55.7355 108.177 51.2586 107.318 45.7359 107.318C40.2133 107.318 35.7363 108.177 35.7363 109.237C35.7363 110.297 40.2133 111.157 45.7359 111.157Z" fill="#FED150"/>
<path d="M29.6328 101.181V107.419H29.6959C30.3701 109.083 36.6483 110.39 44.2977 110.39C51.9454 110.39 58.2254 109.085 58.8996 107.419H58.9609V101.181H29.6328Z" fill="#F3A43D"/>
<path d="M34.9707 101.376V109.641C36.454 109.913 38.1807 110.121 40.0686 110.249V101.376H34.9707ZM41.0283 102.862V110.305C41.4415 110.326 41.8618 110.343 42.2874 110.358V102.862H41.0283Z" fill="#FED150"/>
<path d="M58.9589 101.179C58.9589 102.732 52.3935 103.994 44.2958 103.994C36.1963 103.994 29.6309 102.732 29.6309 101.179C29.6309 99.6245 36.1963 98.3651 44.2958 98.3651C52.3953 98.3651 58.9589 99.6245 58.9589 101.179Z" fill="#FFE984"/>
<path d="M55.4051 101.349C55.4051 102.527 50.4316 103.481 44.2952 103.481C38.1589 103.481 33.1836 102.527 33.1836 101.349C33.1836 100.174 38.1571 99.2183 44.2952 99.2183C50.4316 99.2183 55.4051 100.172 55.4051 101.349Z" fill="#F3A43D"/>
<path d="M54.2945 101.563C54.2945 102.624 49.8201 103.481 44.2967 103.481C38.7733 103.481 34.2988 102.624 34.2988 101.563C34.2988 100.503 38.7733 99.6439 44.2967 99.6439C49.8201 99.6439 54.2945 100.503 54.2945 101.563Z" fill="#FED150"/>
<path d="M27.832 93.5039V99.7421H27.8951C28.5676 101.408 34.8458 102.713 42.4969 102.713C50.1464 102.713 56.4246 101.408 57.0988 99.7421H57.1619V93.5039H27.832Z" fill="#F3A43D"/>
<path d="M33.1699 93.7036V101.968C34.6515 102.243 36.3782 102.45 38.2678 102.578V93.7057H33.1699V93.7036ZM39.2275 95.1893V102.632C39.6408 102.653 40.0611 102.672 40.4866 102.685V95.1893H39.2275Z" fill="#FED150"/>
<path d="M57.1619 93.5035C57.1619 95.0584 50.5947 96.3177 42.4969 96.3177C34.3974 96.3177 27.832 95.0584 27.832 93.5035C27.832 91.9487 34.3957 90.6893 42.4969 90.6893C50.5947 90.6914 57.1619 91.9508 57.1619 93.5035Z" fill="#FFE984"/>
<path d="M53.6047 93.6767C53.6047 94.8544 48.6312 95.8099 42.4966 95.8099C36.3603 95.8099 31.3867 94.8565 31.3867 93.6767C31.3867 92.4991 36.3603 91.5456 42.4966 91.5456C48.6312 91.5435 53.6047 92.4991 53.6047 93.6767Z" fill="#F3A43D"/>
<path d="M52.4955 93.8875C52.4955 94.9478 48.0193 95.807 42.4976 95.807C36.9742 95.807 32.498 94.9478 32.498 93.8875C32.498 92.8293 36.9742 91.9702 42.4976 91.9702C48.0193 91.9702 52.4955 92.8293 52.4955 93.8875Z" fill="#FED150"/>
<path d="M31.0703 85.3078V91.546H31.1334C31.8058 93.212 38.084 94.5174 45.7352 94.5174C53.3847 94.5174 59.6629 93.212 60.3371 91.546H60.4001V85.3078H31.0703Z" fill="#F3A43D"/>
<path d="M36.4082 85.5055V93.7701C37.8898 94.0425 39.6182 94.252 41.5061 94.3799V85.5055H36.4082ZM42.4658 86.9912V94.4343C42.8808 94.4553 43.2993 94.4742 43.7249 94.4867V86.9912H42.4658Z" fill="#FED150"/>
<path d="M60.4001 85.3085C60.4001 86.8613 53.833 88.1227 45.7352 88.1227C37.6357 88.1227 31.0703 86.8634 31.0703 85.3085C31.0703 83.7537 37.634 82.4943 45.7352 82.4943C53.833 82.4964 60.4001 83.7558 60.4001 85.3085Z" fill="#FFE984"/>
<path d="M56.843 85.4807C56.843 86.6583 51.8695 87.6118 45.7349 87.6118C39.5985 87.6118 34.625 86.6583 34.625 85.4807C34.625 84.303 39.5985 83.3496 45.7349 83.3496C51.8695 83.3475 56.843 84.303 56.843 85.4807Z" fill="#F3A43D"/>
<path d="M55.7338 85.6915C55.7338 86.7518 51.2576 87.6109 45.7359 87.6109C40.2125 87.6109 35.7363 86.7518 35.7363 85.6915C35.7363 84.6333 40.2125 83.7741 45.7359 83.7741C51.2576 83.7741 55.7338 84.6333 55.7338 85.6915Z" fill="#FED150"/>
<path d="M61.2031 108.47V114.709H61.2662C61.9386 116.375 68.2169 117.68 75.868 117.68C83.5175 117.68 89.7939 116.375 90.4699 114.709H90.5329V108.47H61.2031Z" fill="#F3A43D"/>
<path d="M66.541 108.668V116.933C68.0243 117.205 69.751 117.415 71.6406 117.543V108.668H66.541ZM72.5986 110.154V117.597C73.0119 117.618 73.4322 117.637 73.8577 117.649V110.154H72.5986Z" fill="#FED150"/>
<path d="M90.5349 108.47C90.5349 110.025 83.9677 111.284 75.87 111.284C67.7705 111.284 61.2051 110.025 61.2051 108.47C61.2051 106.915 67.7705 105.656 75.87 105.656C83.966 105.656 90.5349 106.915 90.5349 108.47Z" fill="#FFE984"/>
<path d="M86.9778 108.64C86.9778 109.818 82.0043 110.771 75.8697 110.771C69.7333 110.771 64.7598 109.818 64.7598 108.64C64.7598 107.463 69.7333 106.509 75.8697 106.509C82.0043 106.509 86.9778 107.463 86.9778 108.64Z" fill="#F3A43D"/>
<path d="M85.8666 108.854C85.8666 109.914 81.3904 110.774 75.8687 110.774C70.3453 110.774 65.8691 109.914 65.8691 108.854C65.8691 107.796 70.3453 106.937 75.8687 106.937C81.3904 106.935 85.8666 107.794 85.8666 108.854Z" fill="#FED150"/>
<path d="M64.7598 101.272V107.51H64.8228C65.4953 109.176 71.7735 110.482 79.4247 110.482C87.0741 110.482 93.3523 109.176 94.0265 107.51H94.0896V101.272H64.7598Z" fill="#F3A43D"/>
<path d="M70.0977 101.471V109.736C71.581 110.008 73.3077 110.218 75.1973 110.343V101.471H70.0977ZM76.1552 102.957V110.4C76.5685 110.421 76.9888 110.44 77.4144 110.452V102.957H76.1552Z" fill="#FED150"/>
<path d="M94.0896 101.272C94.0896 102.827 87.5224 104.086 79.4247 104.086C71.3252 104.086 64.7598 102.827 64.7598 101.272C64.7598 99.7192 71.3252 98.4577 79.4247 98.4577C87.5224 98.4598 94.0896 99.7192 94.0896 101.272Z" fill="#FFE984"/>
<path d="M90.5323 101.444C90.5323 102.622 85.5588 103.577 79.4224 103.577C73.2878 103.577 68.3125 102.624 68.3125 101.444C68.3125 100.269 73.286 99.313 79.4224 99.313C85.5588 99.313 90.5323 100.266 90.5323 101.444Z" fill="#F3A43D"/>
<path d="M89.4213 101.658C89.4213 102.718 84.9451 103.577 79.4234 103.577C73.9018 103.577 69.4238 102.718 69.4238 101.658C69.4238 100.6 73.9 99.7406 79.4234 99.7406C84.9451 99.7385 89.4213 100.598 89.4213 101.658Z" fill="#FED150"/>
<path d="M19.0059 114.323H103.318V119.598H19.0059V114.323Z" fill="#EFCD92"/>
<path d="M111.702 118.569L112.383 120.31L110.898 120.618L110.115 118.341L111.702 118.569Z" fill="#FFD9A7"/>
<path d="M110.614 120.049C110.614 120.049 111.547 120.636 112.095 119.5C112.095 119.5 114.06 121.78 112.544 122.88C111.029 123.98 107.929 124.862 107.278 124.183C106.341 123.207 108.745 121.241 110.614 120.049Z" fill="#E66254"/>
<path d="M99.9895 119.477L100.07 121.397L98.5972 121.009L98.5938 118.545L99.9895 119.477Z" fill="#FFD9A7"/>
<path d="M107.395 84.0967C107.395 84.0967 108.244 88.4993 104.211 92.5121L99.3284 102.943C99.3284 102.943 101.248 113.911 100.388 118.865C100.057 120.763 98.2373 119.992 98.029 119.265C96.5719 114.15 93.7874 103.897 95.2357 98.0735C96.4738 93.103 99.127 89.9535 99.127 89.9535L107.395 84.0967Z" fill="#52456B"/>
<path d="M98.5154 120.355C98.5154 120.355 99.1932 121.321 100.058 120.516C100.058 120.516 101.156 123.517 99.4051 123.848C97.6556 124.179 94.5068 123.593 94.1181 122.671C93.5594 121.342 96.407 120.613 98.5154 120.355Z" fill="#E66254"/>
<path d="M107.366 82.4662C107.366 82.4662 109.545 86.1563 107.081 91.6989L105.86 103.563C105.86 103.563 111.107 112.844 111.878 117.821C112.172 119.728 110.242 119.839 109.822 119.261C106.855 115.187 101.034 106.956 100.535 100.911C100.109 95.7494 101.568 91.6318 101.568 91.6318L107.366 82.4662Z" fill="#675781"/>
<path d="M99.533 71.3336C99.9463 70.9752 100.804 70.4388 101.12 71.7547C101.433 73.0707 98.125 79.8475 97.1058 80.8743C96.0865 81.9011 89.3583 84.0845 89.3583 84.0845C89.3583 84.0845 88.6297 83.9902 89.1604 82.9341L95.5542 79.4808C95.5542 79.4808 98.1057 72.5762 99.533 71.3336Z" fill="#4CAE7A"/>
<path d="M105.239 71.2001C106.829 72.7884 108.102 76.5037 108.367 88.4983C108.425 91.1365 98.1843 90.5832 98.2263 87.945C98.3384 80.9252 96.1406 76.158 99.123 71.6003C99.1247 71.6003 102.087 68.0527 105.239 71.2001Z" fill="#5AD192"/>
<path d="M102.577 66.6973C102.577 66.6973 101.962 68.6566 102.577 69.9118C102.969 70.7102 100.022 73.3924 100.085 72.3174C100.167 70.9302 100.717 70.0815 100.09 68.5225L102.577 66.6973Z" fill="#EFC18F"/>
<path d="M100.001 63.3727C99.0662 64.5356 98.2133 69.4684 99.2868 70.4784C99.7544 70.9164 101.583 70.2794 102.663 68.0728C103.108 67.1655 103.633 65.487 102.821 63.8735C102.453 63.1422 101.089 62.0169 100.001 63.3727Z" fill="#FFD9A8"/>
<path d="M98.4043 63.9403C98.4043 63.9403 98.9052 64.7785 100.452 64.9671C101.996 65.1557 102.255 65.0195 102.117 65.4658C101.711 66.7797 102.861 66.7734 102.366 68.3408C101.868 69.9103 102.858 68.5022 102.994 68.2654C103.131 68.0265 104.402 66.0777 103.434 63.9047C102.465 61.7296 99.7107 62.6265 98.4043 63.9403Z" fill="#9B4D34"/>
<path d="M100.968 84.5149V90.3802H100.908C100.276 91.9455 94.3725 93.1735 87.1801 93.1735C79.9878 93.1735 74.0861 91.9455 73.4521 90.3802H73.3926V84.5149H100.968Z" fill="#F3A43D"/>
<path d="M95.9509 84.6991V92.4692C94.557 92.7269 92.9336 92.9218 91.1578 93.0412V84.6991H95.9509ZM90.2542 86.0968V93.0936C89.8654 93.1146 89.4713 93.1313 89.0703 93.1439V86.0968H90.2542Z" fill="#FED150"/>
<path d="M73.3926 84.5145C73.3926 85.9771 79.5675 87.159 87.1801 87.159C94.7945 87.159 100.968 85.975 100.968 84.5145C100.968 83.0539 94.7945 81.87 87.1801 81.87C79.5675 81.8679 73.3926 83.0518 73.3926 84.5145Z" fill="#FFE984"/>
<path d="M76.7363 84.6734C76.7363 85.7819 81.4121 86.6788 87.1807 86.6788C92.9493 86.6788 97.6252 85.7819 97.6252 84.6734C97.6252 83.567 92.9493 82.6701 87.1807 82.6701C81.4139 82.6701 76.7363 83.567 76.7363 84.6734Z" fill="#F3A43D"/>
<path d="M77.7793 84.876C77.7793 85.8734 81.9875 86.6802 87.18 86.6802C92.3724 86.6802 96.5806 85.8713 96.5806 84.876C96.5806 83.8806 92.3724 83.0738 87.18 83.0738C81.9893 83.0718 77.7793 83.8785 77.7793 84.876Z" fill="#FED150"/>
<path d="M99.603 89.2596C99.603 89.2596 96.7327 90.3828 97.6433 90.6804C98.5522 90.9758 99.3333 91.1812 100.344 89.8652L99.603 89.2596Z" fill="#EFC18F"/>
<path d="M103.493 72.9211C103.668 72.3469 104.239 71.1965 105.004 72.2128C106.218 73.8284 106.281 80.93 105.913 82.4618C105.546 83.9936 100.26 90.0788 100.26 90.0788C100.26 90.0788 99.4863 90.0411 99.4863 89.1275L104.04 81.6927C104.04 81.6948 102.885 74.9034 103.493 72.9211Z" fill="#4CAE7A"/>
<path d="M44.1493 86.7587C44.4488 86.3816 44.9409 84.9126 44.9409 84.9126C44.9409 84.9126 45.4978 86.348 45.813 86.7064C46.1282 87.0626 47.3576 87.6535 47.3576 87.6535C47.3576 87.6535 46.1563 88.3199 45.8585 88.6971C45.5608 89.0743 45.067 90.5432 45.067 90.5432C45.067 90.5432 44.5101 89.1078 44.1949 88.7495C43.8814 88.3932 42.652 87.8023 42.652 87.8023C42.652 87.8023 43.8499 87.1359 44.1493 86.7587ZM50.8058 77.3857C51.1035 77.0085 51.5974 75.5396 51.5974 75.5396C51.5974 75.5396 52.156 76.975 52.4695 77.3333C52.7847 77.6895 54.0123 78.2804 54.0123 78.2804C54.0123 78.2804 52.8127 78.9489 52.515 79.324C52.2156 79.7012 51.7235 81.1701 51.7235 81.1701C51.7235 81.1701 51.1666 79.7347 50.8513 79.3764C50.5361 79.0181 49.3085 78.4292 49.3085 78.4292C49.3085 78.4292 50.5081 77.7608 50.8058 77.3857ZM34.7452 93.8247C35.0429 93.4475 35.5367 91.9786 35.5367 91.9786C35.5367 91.9786 36.0936 93.414 36.4088 93.7723C36.7241 94.1285 37.9517 94.7195 37.9517 94.7195C37.9517 94.7195 36.7521 95.3858 36.4526 95.763C36.1549 96.1402 35.6611 97.6091 35.6611 97.6091C35.6611 97.6091 35.1042 96.1737 34.7889 95.8154C34.4755 95.4592 33.2461 94.8683 33.2461 94.8683C33.2461 94.8683 34.4474 94.1998 34.7452 93.8247ZM37.0988 105.264C37.3983 104.887 37.8904 103.418 37.8904 103.418C37.8904 103.418 38.449 104.853 38.7625 105.212C39.0777 105.568 40.3054 106.159 40.3054 106.159C40.3054 106.159 39.104 106.825 38.8063 107.202C38.5086 107.579 38.0147 109.048 38.0147 109.048C38.0147 109.048 37.4578 107.613 37.1426 107.255C36.8274 106.898 35.5998 106.307 35.5998 106.307C35.5998 106.307 36.7994 105.639 37.0988 105.264Z" fill="#F7F7FC"/>
<g clip-path="url(#clip0_1285_8306)">
<path d="M123.425 96.3736H124.315L123.852 95.6134C123.091 94.3654 121.828 93.6526 120.232 93.6526H115.765H115.765C115.763 93.6526 115.74 93.6527 115.706 93.6115C115.67 93.5688 115.637 93.4938 115.637 93.3948V90.569C115.637 90.47 115.67 90.3951 115.706 90.3524C115.74 90.3112 115.763 90.3112 115.765 90.3112L115.765 90.3112H131.268L131.268 90.3112C131.27 90.3112 131.294 90.3112 131.328 90.3524C131.363 90.3951 131.397 90.47 131.397 90.569V93.095C131.397 93.194 131.363 93.269 131.328 93.3117C131.294 93.3529 131.27 93.3528 131.268 93.3528H131.268H127.448H126.633L127.002 94.0792C127.297 94.6598 127.535 95.3004 127.709 95.9951L127.804 96.3736H128.194H131.268H131.268C131.27 96.3736 131.294 96.3735 131.328 96.4148C131.363 96.4574 131.397 96.5324 131.397 96.6314V99.1574C131.397 99.2564 131.363 99.3313 131.328 99.374C131.294 99.4152 131.27 99.4152 131.268 99.4152H131.268H128.502H128.041L128.004 99.8754C127.643 104.399 124.927 107.357 121.239 107.493L120.172 107.532L120.886 108.327L128.788 117.122C128.858 117.2 128.887 117.333 128.844 117.466C128.799 117.603 128.736 117.602 128.734 117.602H124.41C124.407 117.602 124.402 117.602 124.394 117.598C124.386 117.594 124.372 117.585 124.355 117.567L115.711 107.946C115.711 107.946 115.711 107.946 115.711 107.946C115.673 107.903 115.637 107.824 115.637 107.723V104.376C115.637 104.277 115.67 104.202 115.706 104.159C115.74 104.118 115.763 104.118 115.765 104.118H115.765H120.165C121.374 104.118 122.4 103.721 123.168 102.981C123.931 102.246 124.4 101.208 124.575 99.9859L124.657 99.4152H124.08H115.765H115.765C115.763 99.4152 115.74 99.4152 115.706 99.374C115.67 99.3313 115.637 99.2564 115.637 99.1574V96.6314C115.637 96.5324 115.67 96.4574 115.706 96.4148C115.74 96.3735 115.763 96.3736 115.765 96.3736H115.765H123.425Z" fill="#F3A43D" stroke="#F3A43D"/>
<path d="M121.816 103.263L124.367 107.174C125.04 106.874 125.718 106.234 126.336 105.551L123.601 101.526L121.816 103.263ZM123.784 101.122L126.619 105.19C126.769 105.059 126.882 104.849 126.992 104.674L123.988 100.43L123.784 101.122Z" fill="#FED150"/>
</g>
<defs>
<clipPath id="clip0_1285_8306">
<rect width="16.76" height="32.3326" fill="white" transform="translate(115.137 87.7905)"/>
</clipPath>
</defs>
</svg>
