<svg width="1800" height="1700" viewBox="0 0 1800 1700" fill="none" xmlns="http://www.w3.org/2000/svg">
<path d="M1701.33 504.963C1678.67 468.602 1642.17 439.954 1600 425.945C1581.83 419.963 1560 417.13 1545.17 428.621C1530.33 440.111 1535.5 469.547 1554.67 469.074C1495.5 430.352 1424.17 408.472 1352.17 406.741C1334.17 406.269 1313.67 408.158 1302.33 421.38C1290.83 434.602 1300.5 460.732 1318.17 457.741C1263.83 424.843 1192.17 434.917 1131.33 455.38C1113.67 461.361 1096.17 467.972 1078.67 474.584C1059.5 481.824 1065.17 508.741 1085.83 508.584L1701.33 504.963ZM155.166 317.334C132.5 322.528 109.5 304.741 114.333 289.787C119.166 274.834 141.166 264.602 163.333 258.463C213.5 244.611 273 244.769 323 258.935C311.333 253.269 312.333 241.306 321.5 234.222C330.833 227.139 345.666 223.991 360 222.259C428.333 214.074 503.166 232.963 543.333 268.852C530.166 260.037 537.333 244.297 553.166 237.685C568.999 231.074 589.999 231.074 608.833 233.278C689.833 242.408 758.499 270.269 773.999 321.269L155.166 317.334Z" fill="#CCE9FF"/>
<path d="M118.334 1510.48C183.501 1392.11 255.167 1276.89 333.001 1165.6C364.334 1120.74 399.667 1074.15 452.334 1053.53C498.501 1035.43 552.501 1040.78 598.001 1060.61C643.334 1080.44 681.001 1113.66 712.167 1150.65C739.001 1182.29 767.667 1220.38 810.501 1223.69C856.167 1227.31 892.334 1189.53 920.501 1155.21C1013 1042.67 1105.5 929.963 1198 817.417C1228.67 780.112 1266.5 739.343 1316.33 739.5C1361 739.658 1397.17 773.028 1425 806.084C1588.33 999.537 1652 1249.34 1711.17 1490.18L118.334 1510.48Z" fill="#F7F7F7"/>
<path d="M1629 1286.17C1694.91 1286.17 1748.33 1235.72 1748.33 1173.47C1748.33 1111.23 1694.91 1060.77 1629 1060.77C1563.09 1060.77 1509.67 1111.23 1509.67 1173.47C1509.67 1235.72 1563.09 1286.17 1629 1286.17Z" fill="#CCEEFF"/>
<path d="M1628.33 1484.51C1626.5 1484.19 1625.33 1482.62 1625.33 1480.89V1208.1C1625.33 1206.21 1626.83 1204.48 1628.83 1204.48C1631 1204.32 1632.67 1205.9 1632.67 1207.94V1481.2C1632.67 1483.25 1630.67 1484.98 1628.33 1484.51Z" fill="#B6EAFF"/>
<path d="M1629 1230.77C1628 1230.77 1627.17 1230.45 1626.33 1229.82C1624.83 1228.41 1624.83 1226.2 1626.33 1224.94L1659 1194.09C1660.5 1192.68 1662.83 1192.68 1664.17 1194.09C1665.67 1195.51 1665.67 1197.71 1664.17 1198.97L1631.67 1229.82C1630.83 1230.45 1630 1230.77 1629 1230.77ZM1629 1259.42C1628 1259.42 1627.17 1259.1 1626.33 1258.47C1624.83 1257.05 1624.83 1254.85 1626.33 1253.59L1659 1222.74C1660.5 1221.32 1662.83 1221.32 1664.17 1222.74C1665.67 1224.16 1665.67 1226.36 1664.17 1227.62L1631.67 1258.47C1630.83 1259.1 1630 1259.42 1629 1259.42Z" fill="#B6EAFF"/>
<path d="M259.167 1299.71C361.248 1299.71 444.001 1221.56 444.001 1125.15C444.001 1028.74 361.248 950.584 259.167 950.584C157.087 950.584 74.334 1028.74 74.334 1125.15C74.334 1221.56 157.087 1299.71 259.167 1299.71Z" fill="#B0E1FF"/>
<path d="M259.167 1470.03C256.833 1470.03 255 1468.3 255 1466.09V1125.15C255 1122.94 256.833 1121.21 259.167 1121.21C261.5 1121.21 263.333 1122.94 263.333 1125.15V1465.94C263.5 1468.14 261.5 1470.03 259.167 1470.03Z" fill="#CCEEFF"/>
<path d="M259.167 1219.43C258.167 1219.43 257 1219.12 256.167 1218.33L204.5 1169.54C202.833 1167.96 202.833 1165.44 204.5 1163.87C206.167 1162.3 208.833 1162.3 210.5 1163.87L262.167 1212.82C263.833 1214.4 263.833 1216.92 262.167 1218.49C261.333 1219.12 260.333 1219.43 259.167 1219.43ZM259.167 1264.93C258.167 1264.93 257 1264.61 256.167 1263.82L204.5 1215.03C202.833 1213.45 202.833 1210.93 204.5 1209.36C206.167 1207.79 208.833 1207.79 210.5 1209.36L262.167 1258.16C263.833 1259.73 263.833 1262.25 262.167 1263.82C261.333 1264.45 260.333 1264.93 259.167 1264.93Z" fill="#CCEEFF"/>
<path d="M149.167 1451.45H1680.33C1704.5 1451.45 1724 1469.87 1724 1492.69V1544.32C1724 1567.15 1704.5 1585.56 1680.33 1585.56H149.167C125 1585.56 105.5 1567.15 105.5 1544.32V1492.69C105.5 1470.03 125 1451.45 149.167 1451.45Z" fill="#F2F2F2"/>
<path d="M1187 756.972C1327.46 756.972 1441.33 649.429 1441.33 516.768C1441.33 384.107 1327.46 276.564 1187 276.564C1046.53 276.564 932.666 384.107 932.666 516.768C932.666 649.429 1046.53 756.972 1187 756.972Z" stroke="#FFBE55" stroke-miterlimit="10"/>
<path d="M1147.33 794.436C1199.83 818.676 1184.5 865.111 1184.5 865.111C1184.5 865.111 1155.17 905.093 1102.5 880.852C1050 856.611 994.166 777.278 994.166 777.278C994.166 777.278 1094.83 770.195 1147.33 794.436Z" fill="#2A94F4"/>
<path d="M1147.33 794.436C1199.83 818.676 1184.5 865.111 1184.5 865.111L994.166 777.278C994.166 777.278 1094.83 770.195 1147.33 794.436Z" fill="#CCE9FF"/>
<path d="M1231 1054.31C1178.5 1078.56 1193.83 1124.99 1193.83 1124.99C1193.83 1124.99 1223.17 1164.97 1275.83 1140.73C1328.33 1116.49 1384.17 1037.16 1384.17 1037.16C1384.17 1037.16 1283.67 1030.07 1231 1054.31Z" fill="#2A94F4"/>
<path d="M1231 1054.31C1178.5 1078.56 1193.83 1124.99 1193.83 1124.99L1384.17 1037.16C1384.17 1037.16 1283.67 1030.07 1231 1054.31ZM1352.5 1467.51C1285.67 1546.37 1184.5 1510.48 1184.5 1510.48C1184.5 1510.48 1125.17 1425.17 1192 1346.15C1258.83 1267.13 1445 1202.75 1445 1202.75C1445 1202.75 1419.33 1388.49 1352.5 1467.51Z" fill="#CCE9FF"/>
<path d="M1352.5 1467.51C1285.67 1546.37 1184.5 1510.48 1184.5 1510.48L1445 1202.75C1445 1202.75 1419.33 1388.49 1352.5 1467.51Z" fill="#2A94F4"/>
<path d="M1022.67 1467.51C1089.5 1546.37 1190.67 1510.48 1190.67 1510.48C1190.67 1510.48 1250 1425.17 1183.17 1346.15C1116.33 1267.29 930.166 1202.75 930.166 1202.75C930.166 1202.75 955.833 1388.49 1022.67 1467.51Z" fill="#CCE9FF"/>
<path d="M1022.67 1467.51C1089.5 1546.37 1190.67 1510.48 1190.67 1510.48L930.166 1202.75C930.166 1202.75 955.833 1388.49 1022.67 1467.51Z" fill="#2A94F4"/>
<path d="M854.667 846.851L806.834 861.333L799.834 858.184L786.334 845.592L787.667 824.971L814.167 824.342L854.667 846.851Z" fill="#FCD2B1"/>
<path d="M695.334 582.408C695.334 582.408 679 760.593 814 824.343C808.5 830.482 785.834 840.242 785.834 840.242C785.834 840.242 653.667 764.529 658.334 680.473C663 596.417 695.334 582.408 695.334 582.408Z" fill="#1D87D6"/>
<path d="M439.499 1394.79C439.499 1394.79 457.166 1471.92 470.166 1506.7C471.666 1510.8 466.166 1514.1 462.999 1511.11C441.166 1490.8 410.833 1449.72 400.833 1440.28C388.333 1428.47 369.166 1406.43 369.166 1406.43L414.999 1368.34L445.166 1382.67L439.499 1394.79Z" fill="#0B4870"/>
<path d="M603.499 1451.45C603.499 1451.45 676.333 1489.86 712.666 1503.87C716.999 1505.6 715.999 1511.58 711.333 1511.9C680.833 1513.94 627.999 1508.28 613.999 1509.06C596.499 1510.17 566.166 1509.06 566.166 1509.06V1451.45L597.499 1439.49L603.499 1451.45Z" fill="#083751"/>
<path d="M677.333 784.361C677.333 784.361 670.333 1128.61 666.333 1136.32C662.333 1143.88 603.499 1451.61 603.499 1451.61H566.166C566.166 1451.61 572.833 1130.03 587.499 1118.06C587.499 1089.73 577.333 787.195 605.833 765.63C647.499 763.269 677.333 784.361 677.333 784.361Z" fill="#083751"/>
<path d="M550.999 751.148C497.166 788.611 486.333 963.648 541.166 1098.86C505.333 1159.62 398.166 1400.61 398.166 1400.61L429.833 1418.56C429.833 1418.56 648.333 1134.75 639.999 1105.47C631.666 1076.19 647.499 763.111 647.499 763.111L550.999 751.148Z" fill="#0B4870"/>
<path d="M705.501 542.898C706.667 547.148 708.167 551.398 710.001 555.491C721.667 581.621 737.667 635.611 736.501 644.584C735.167 654.343 698.667 687.556 689.001 712.898C679.334 738.241 677.667 784.361 677.667 784.361L551.334 751.148C551.334 751.148 586.501 669.297 587.834 632.306C589.167 595.315 602.667 518.815 652.501 511.102C690.501 505.121 702.167 530.935 705.501 542.898Z" fill="#2A94F4"/>
<path d="M744.001 386.75C746.334 381.241 745.501 374.944 741.834 370.065C722.834 345.667 688.668 331.972 657.001 337.324C621.834 343.306 592.334 371.954 587.001 405.324C585.001 418.231 586.168 431.454 583.334 444.204C580.001 459.157 570.834 473.009 558.001 482.296C542.001 493.944 521.334 498.352 503.501 507.481C485.501 516.768 470.668 530.62 458.001 545.889C445.334 561.157 434.334 578.315 430.834 597.518C427.334 616.722 432.334 637.972 447.501 651.037C457.168 659.38 469.668 663.63 482.001 667.565C506.668 675.435 532.501 682.518 558.334 679.843C584.168 677.167 610.334 662.685 618.334 639.231C629.501 606.176 602.001 571.389 607.001 537.074C610.501 513.778 628.501 494.574 648.501 480.565C668.501 466.555 691.168 455.852 710.168 440.741C724.334 429.565 737.834 400.917 744.001 386.75Z" fill="#0B4870"/>
<path d="M709.834 485.602C703.501 497.879 697.667 530.148 703.167 543.842C708.167 557.379 706.334 559.583 706.334 559.583L650.834 516.611L663.667 457.583L709.834 485.602Z" fill="#FCD2B1"/>
<path d="M755.001 436.018C755.001 466.398 746.667 497.407 720.001 497.407C693.334 497.407 658.334 466.398 658.334 436.018C658.334 405.639 680.001 380.926 706.667 380.926C733.334 380.926 755.001 405.639 755.001 436.018Z" fill="#FFE3CA"/>
<path d="M752.167 375.417C761.667 374.629 768.167 384.231 763.5 391.944C754.333 407.528 738 423.111 700 418.704C682.667 416.657 655 418.704 653.333 429.722L640 399.815C640 399.815 643.333 380.926 646.667 380.926H683L752.167 375.417Z" fill="#0B4870"/>
<path d="M680.001 415.556C675.001 425 672.334 441.843 665.667 444.991C657.334 440.426 647.001 416.657 647.667 416.815C648.334 416.972 656.667 412.25 658.334 412.25C660.001 412.25 680.001 415.556 680.001 415.556Z" fill="#0B4870"/>
<path d="M667.498 460.096C672.2 458.1 673.258 450.697 669.862 443.561C666.467 436.424 659.902 432.256 655.201 434.252C650.499 436.248 649.44 443.651 652.836 450.787C656.232 457.924 662.796 462.091 667.498 460.096Z" fill="#FFE3CA"/>
<path d="M663.167 470.019C667.953 470.019 671.833 466.354 671.833 461.834C671.833 457.313 667.953 453.648 663.167 453.648C658.38 453.648 654.5 457.313 654.5 461.834C654.5 466.354 658.38 470.019 663.167 470.019Z" fill="#FFBE55"/>
<path d="M799.666 1027.56L696.166 941.14C692.499 938.149 692.166 932.797 695.332 929.334L759.499 854.566C762.666 851.103 768.332 850.788 771.999 853.779L881.999 945.547C885.666 948.538 885.999 953.89 882.832 957.353L812.166 1026.77C808.832 1030.23 803.332 1030.55 799.666 1027.56Z" fill="#2A94F4"/>
<path d="M901.499 1055.42L806.833 1014.02L831.333 987.259L909.333 1036.21L910.499 1037L901.499 1055.42ZM863.499 858.815C875.166 868.259 878.999 885.732 874.166 908.083L865.499 948.537L768.999 869.676L811.666 855.667C833.666 848.269 851.999 849.37 863.499 858.815ZM868.999 852.833C855.666 841.972 834.666 839.611 808.833 848.111L752.666 866.685L870.999 963.176L882.499 909.5C887.999 883.528 882.499 863.852 868.999 852.833Z" fill="#2A94F4"/>
<path d="M901.501 1055.42C895.501 1044.87 901.667 1039.2 909.334 1036.21L910.5 1037L901.501 1055.42Z" fill="#2286D1"/>
<path d="M623.999 554.074C621.666 625.537 652.332 808.759 709.832 881.009C719.666 876.13 730.332 870.62 730.332 870.62C730.332 870.62 656.999 711.324 680.499 577.528C682.999 561 680.499 549.194 675.166 541.009C661.166 518.815 624.832 528.417 623.999 554.074Z" fill="#49B0FC"/>
<path d="M709.834 881.166C709.834 881.166 726.334 913.435 730.334 916.898C734.167 920.361 762.501 934.685 770.501 937.518C778.501 940.194 759.667 923.981 759.667 923.981C759.667 923.981 774.334 932.796 781.167 936.259C782.167 936.731 783.001 935.629 782.334 934.842C777.167 929.018 764.501 919.574 764.501 919.574C764.501 919.574 784.334 930.75 793.167 935.157C794.167 935.629 795.001 934.527 794.334 933.74C788.001 928.074 773.667 917.527 771.167 916.268C781.667 920.518 789.167 924.611 793.834 926.657C794.501 926.972 795.001 926.185 794.501 925.713C785.334 917.842 746.334 891.713 744.334 891.24C736.334 889.509 728.834 871.564 728.834 871.564L709.834 881.166Z" fill="#FCD2B1"/>
<path d="M806.833 861.334L799.833 858.185L799 857.084C799 857.084 817.833 838.982 822.667 836.935C825.833 835.676 839.167 840.556 847.667 843.861C850.167 844.806 850 848.269 847.333 849.056L806.833 861.334Z" fill="#FFE4D2"/>
<path d="M1182.17 647.26H1191.83V1512.37H1182.17V647.26Z" fill="#2A94F4"/>
<path d="M1006.67 298.13C986.166 298.13 969.666 313.871 969.666 333.074C969.666 313.713 952.999 298.13 932.666 298.13C953.166 298.13 969.666 282.389 969.666 263.186C969.499 282.389 986.166 298.13 1006.67 298.13Z" fill="#FFBE55"/>
<path d="M1024.33 298.13C993.999 298.13 969.499 321.269 969.499 349.917C969.499 321.269 944.999 298.13 914.666 298.13C944.999 298.13 969.499 274.991 969.499 246.343C969.499 274.991 994.166 298.13 1024.33 298.13Z" stroke="#FFBE55" stroke-miterlimit="10"/>
<path d="M1491.83 582.408C1480 582.408 1470.33 591.538 1470.33 602.556C1470.33 591.38 1460.67 582.408 1449 582.408C1460.83 582.408 1470.33 573.278 1470.33 562.26C1470.33 573.278 1480 582.408 1491.83 582.408Z" fill="#FFBE55"/>
<path d="M1502 582.407C1484.5 582.407 1470.33 595.787 1470.33 612.315C1470.33 595.787 1456.17 582.407 1438.67 582.407C1456.17 582.407 1470.33 569.028 1470.33 552.5C1470.33 569.028 1484.5 582.407 1502 582.407Z" stroke="#FFBE55" stroke-width="0.75" stroke-miterlimit="10"/>
<path d="M923.333 1045.81L1154.83 1148.6M910.5 1065.96L1060.5 1336.39M957.5 1092.41L1154.83 1336.39M1003.17 1110.19L1160.17 1222.27" stroke="#CCE9FF" stroke-miterlimit="10" stroke-dasharray="12 12"/>
<path d="M1149.67 676.537H1223.5V711.324C1223.5 730.528 1207 746.111 1186.67 746.111C1166.33 746.111 1149.83 730.528 1149.83 711.324V676.537H1149.67Z" fill="#0E538C"/>
<path d="M1187 712.269C1301.32 712.269 1394 624.74 1394 516.769C1394 408.797 1301.32 321.269 1187 321.269C1072.68 321.269 980 408.797 980 516.769C980 624.74 1072.68 712.269 1187 712.269Z" fill="#FFBE55"/>
<path d="M1187 663.472C1272.79 663.472 1342.33 597.79 1342.33 516.768C1342.33 435.746 1272.79 370.064 1187 370.064C1101.21 370.064 1031.67 435.746 1031.67 516.768C1031.67 597.79 1101.21 663.472 1187 663.472Z" stroke="#F7F7F7" stroke-miterlimit="10"/>
<path d="M1227.3 471.01C1229.05 471.01 1230.47 469.099 1230.47 466.741V452.511C1230.47 450.154 1229.05 448.242 1227.3 448.242H1149.26C1147.51 448.242 1146.09 450.154 1146.09 452.511V468.43C1146.09 470.788 1147.51 472.699 1149.26 472.699H1171.74C1178.94 472.699 1184.47 476.242 1187.82 482.394H1149.26C1147.51 482.394 1146.09 484.305 1146.09 486.663V500.893C1146.09 503.25 1147.51 505.162 1149.26 505.162H1191.12C1189.48 517.999 1182.43 526.02 1171.41 526.02H1149.26C1147.51 526.02 1146.09 527.931 1146.09 530.289V549.148C1146.09 550.339 1146.46 551.477 1147.11 552.285L1190.63 606.485C1191.22 607.213 1191.98 607.617 1192.78 607.617H1214.55C1217.43 607.617 1218.81 602.847 1216.69 600.211L1176.91 550.664C1197.08 549.832 1211.49 531.669 1213.38 505.162H1227.3C1229.05 505.162 1230.47 503.25 1230.47 500.893V486.663C1230.47 484.305 1229.05 482.394 1227.3 482.394H1211.83C1210.91 478.288 1209.65 474.48 1208.07 471.01H1227.3Z" fill="white"/>
</svg>
