<svg width="442" height="339" viewBox="0 0 442 339" fill="none" xmlns="http://www.w3.org/2000/svg">
<path d="M45.2699 327.501C45.2699 327.501 -26.0408 244.164 75.3579 217.389C176.757 190.614 203.475 167.703 251.411 98.3239C299.348 28.9444 505.598 47.5003 421.702 330.717L45.2699 327.501Z" fill="#E2EEFC"/>
<path d="M73.3956 164.433C139.867 166.037 205.938 129.491 239.902 72.3324C246.46 61.2949 243.85 45.6876 234.057 37.3858C224.264 29.0841 208.439 29.0628 198.625 37.3409C182.379 51.0407 160.836 56.4411 139.935 60.2465C119.034 64.0519 97.4656 66.816 78.5641 76.5282C59.6626 86.2405 43.5773 104.856 43.8732 126.105C44.169 147.354 66.1304 164.258 73.3956 164.433Z" fill="#E2EEFC"/>
<path d="M414.921 231.448H337.299V324.569H414.921V231.448Z" fill="#CCDEFF"/>
<path d="M361.339 236.323H342.17V239.873H361.339V236.323Z" fill="#E2EEFC"/>
<path d="M384.53 236.323H365.361V239.873H384.53V236.323Z" fill="#E2EEFC"/>
<path d="M407.249 236.323H388.08V239.873H407.249V236.323Z" fill="#E2EEFC"/>
<path d="M361.575 242.713H342.406V246.263H361.575V242.713Z" fill="#E2EEFC"/>
<path d="M384.767 242.713H365.598V246.263H384.767V242.713Z" fill="#E2EEFC"/>
<path d="M407.485 242.713H388.316V246.263H407.485V242.713Z" fill="#E2EEFC"/>
<path d="M361.575 249.103H342.406V252.652H361.575V249.103Z" fill="#E2EEFC"/>
<path d="M384.767 249.103H365.598V252.652H384.767V249.103Z" fill="#E2EEFC"/>
<path d="M407.485 249.103H388.316V252.652H407.485V249.103Z" fill="#E2EEFC"/>
<path d="M361.811 255.492H342.643V259.042H361.811V255.492Z" fill="#E2EEFC"/>
<path d="M385.003 255.492H365.834V259.042H385.003V255.492Z" fill="#E2EEFC"/>
<path d="M407.722 255.492H388.553V259.042H407.722V255.492Z" fill="#E2EEFC"/>
<path d="M362.048 261.882H342.879V265.432H362.048V261.882Z" fill="#E2EEFC"/>
<path d="M385.241 261.882H366.072V265.432H385.241V261.882Z" fill="#E2EEFC"/>
<path d="M407.958 261.882H388.789V265.432H407.958V261.882Z" fill="#E2EEFC"/>
<path d="M362.048 268.271H342.879V271.821H362.048V268.271Z" fill="#E2EEFC"/>
<path d="M385.241 268.271H366.072V271.821H385.241V268.271Z" fill="#E2EEFC"/>
<path d="M407.958 268.271H388.789V271.821H407.958V268.271Z" fill="#E2EEFC"/>
<path d="M407.958 278.01H342.879V301.675H407.958V278.01Z" fill="#E2EEFC"/>
<path d="M416.66 210.469H392.521V324.571H416.66V210.469Z" fill="#CCDEFF"/>
<path d="M421.478 220.915H414.379V324.569H421.478V220.915Z" fill="#CCDEFF"/>
<path d="M102.754 264.698H65.3633V324.808H102.754V264.698Z" fill="#CCDEFF"/>
<path d="M97.0919 270.636H69.2852V276.079H97.0919V270.636Z" fill="#E2EEFC"/>
<path d="M97.0919 279.725H69.2852V285.168H97.0919V279.725Z" fill="#E2EEFC"/>
<path d="M97.1055 288.815H69.2988V294.258H97.1055V288.815Z" fill="#E2EEFC"/>
<path d="M97.1055 297.723H69.2988V303.166H97.1055V297.723Z" fill="#E2EEFC"/>
<path d="M129.994 245.529H92.6025V324.808H129.994V245.529Z" fill="#CCDEFF"/>
<path d="M210.008 261.148H126.443V324.808H210.008V261.148Z" fill="#CCDEFF"/>
<path d="M65.3635 289.547H44.5381V324.808H65.3635V289.547Z" fill="#CCDEFF"/>
<path d="M141.031 231.297H140.321V261.148H141.031V231.297Z" fill="#CCDEFF"/>
<path d="M149.001 238.169H148.291V261.148H149.001V238.169Z" fill="#CCDEFF"/>
<path d="M134.739 226.533H133.082V261.148H134.739V226.533Z" fill="#CCDEFF"/>
<path d="M76.6188 256.082H69.7559V264.698H76.6188V256.082Z" fill="#CCDEFF"/>
<path d="M110.353 236.219H95.4443V245.529H110.353V236.219Z" fill="#CCDEFF"/>
<path d="M123.394 226.533H117.004V245.529H123.394V226.533Z" fill="#CCDEFF"/>
<path d="M86.042 243.842H80.3623V264.7H86.042V243.842Z" fill="#CCDEFF"/>
<path d="M52.7029 292.978H47.1416V298.539H52.7029V292.978Z" fill="#E2EEFC"/>
<path d="M61.8133 292.978H56.252V298.539H61.8133V292.978Z" fill="#E2EEFC"/>
<path d="M52.7029 302.326H47.1416V307.887H52.7029V302.326Z" fill="#E2EEFC"/>
<path d="M61.8133 302.326H56.252V307.887H61.8133V302.326Z" fill="#E2EEFC"/>
<path d="M52.7029 311.674H47.1416V317.235H52.7029V311.674Z" fill="#E2EEFC"/>
<path d="M61.8133 311.674H56.252V317.235H61.8133V311.674Z" fill="#E2EEFC"/>
<path d="M99.2353 250.568H97.1055V322.273H99.2353V250.568Z" fill="#E2EEFC"/>
<path d="M108.702 250.568H106.572V322.273H108.702V250.568Z" fill="#E2EEFC"/>
<path d="M117.224 250.568H115.094V322.273H117.224V250.568Z" fill="#E2EEFC"/>
<path d="M126.217 250.568H124.087V322.273H126.217V250.568Z" fill="#E2EEFC"/>
<path d="M337.299 295.591H298.961V324.772H337.299V295.591Z" fill="#CCDEFF"/>
<path d="M373.279 317.408H371.859V318.828H373.279V317.408Z" fill="#CCDEFF"/>
<path d="M181.094 121.213C171.99 132.767 160.24 141.962 146.836 148.021C147.761 150.982 150.086 154.108 153.186 154.248C156.287 154.387 160.164 151.864 162.931 150.459C165.697 149.053 168.571 148.021 171.36 146.551C173.8 145.829 176.041 144.555 177.911 142.829C179.78 141.103 181.228 138.97 182.142 136.595C183.924 131.848 183.33 126.27 181.094 121.213Z" fill="#5AD192"/>
<path d="M196.204 101.436C194.474 103.433 195.442 107.695 197.886 107.809C194.322 107.572 188.484 110.055 185.221 112.35C185.788 111.886 186.207 111.266 186.423 110.565C186.64 109.865 186.646 109.116 186.439 108.413C186.357 108.125 186.233 107.852 186.07 107.601C185.62 106.931 184.95 106.438 184.177 106.207C183.311 105.93 182.373 105.982 181.543 106.354C182.551 105.797 183.513 105.159 184.418 104.446C186.582 102.747 188.411 100.661 189.812 98.2932C190.758 97.8199 191.776 97.4176 192.838 97.3466C193.136 97.3301 193.435 97.3444 193.731 97.3892C194.495 97.4875 195.2 97.851 195.723 98.4163C196.424 99.2209 196.847 100.691 196.204 101.436Z" fill="#FBB8A5"/>
<path d="M161.972 322.344L133.905 318.702C134.072 317.215 134.341 315.741 134.712 314.291C136.407 313.835 138.087 313.326 139.753 312.765C139.816 313.379 140.018 313.971 140.342 314.497C140.865 315.278 141.975 315.751 142.775 315.264C142.654 314.116 142.538 312.973 142.418 311.823C142.763 311.697 143.102 311.567 143.447 311.432C143.447 311.61 143.447 311.787 143.447 311.962C143.419 312.613 143.364 313.276 143.537 313.905C143.71 314.535 144.169 315.129 144.81 315.257C145.452 315.384 146.192 314.838 146.1 314.194C145.933 312.989 145.762 311.783 145.589 310.578C145.946 310.431 146.299 310.28 146.649 310.128C146.848 311.599 147.045 313.071 147.241 314.544C147.977 315.018 149.008 314.345 149.24 313.503C149.365 312.934 149.334 312.342 149.15 311.79C149.075 311.503 148.978 311.219 148.888 310.942C148.876 310.902 148.859 310.86 148.848 310.819C148.67 310.323 148.565 309.805 148.535 309.279C148.843 309.139 149.148 308.995 149.451 308.848C149.508 308.931 149.569 309.011 149.631 309.085C151.024 310.92 152.982 312.244 155.204 312.854C157.425 313.464 159.786 313.326 161.92 312.459C162.207 312.341 162.491 312.223 162.763 312.071C162.512 315.401 162.268 318.731 161.972 322.344Z" fill="#5AD192"/>
<path d="M161.79 324.484C152.445 323.064 143.094 321.665 133.688 320.437C133.756 319.857 133.829 319.275 133.905 318.702C143.262 319.919 152.618 321.133 161.972 322.344C161.914 323.045 161.853 323.758 161.79 324.484Z" fill="black"/>
<path d="M147.232 314.542C147.035 313.07 146.838 311.598 146.641 310.126C147.27 309.849 147.9 309.567 148.534 309.276C148.564 309.802 148.669 310.321 148.846 310.817C148.846 310.857 148.875 310.9 148.886 310.94C148.976 311.217 149.073 311.501 149.149 311.787C149.333 312.34 149.364 312.932 149.239 313.501C149 314.343 147.971 315.018 147.232 314.542Z" fill="white"/>
<path d="M144.807 315.254C144.166 315.129 143.709 314.53 143.534 313.903C143.359 313.276 143.416 312.611 143.444 311.96C143.444 311.785 143.444 311.607 143.444 311.43C144.154 311.158 144.864 310.869 145.574 310.573C145.747 311.777 145.918 312.982 146.085 314.189C146.182 314.835 145.439 315.377 144.807 315.254Z" fill="white"/>
<path d="M142.775 315.264C141.975 315.754 140.865 315.278 140.342 314.497C140.016 313.972 139.815 313.379 139.753 312.765C140.644 312.466 141.533 312.151 142.418 311.818C142.536 312.97 142.655 314.118 142.775 315.264Z" fill="white"/>
<path d="M161.91 312.462C159.776 313.328 157.415 313.467 155.194 312.857C152.973 312.247 151.014 310.922 149.621 309.087C150.753 306.32 151.355 303.365 151.394 300.376C155.855 301.599 160.313 302.818 164.611 303.963C163.715 306.794 162.814 309.627 161.91 312.462Z" fill="#FBB8A5"/>
<path d="M193.399 97.7939C195.233 98.6648 196.095 101.145 195.193 102.965C195.747 102.305 194.968 103.142 195.328 103.911C196.274 101.285 199.226 97.9951 200.17 95.3635C200.693 93.9096 200.743 92.3272 200.311 90.8434C199.88 89.3596 198.989 88.0506 197.768 87.1044C196.546 86.1582 195.056 85.6233 193.511 85.5765C191.967 85.5297 190.447 85.9734 189.17 86.844C186.638 88.5692 179.754 85.9684 180.61 88.9076C180.873 89.8092 184.979 97.0082 185.919 97.0224C186.858 97.0366 190.415 96.0214 191.347 96.1468C192.28 96.2722 193.255 97.0059 193.399 97.7939Z" fill="#38385C"/>
<path d="M190.991 99.7439C190.354 103.02 188.772 106.037 186.44 108.424C186.358 108.137 186.234 107.864 186.071 107.613C185.621 106.943 184.952 106.45 184.178 106.219C183.322 106.482 182.444 106.673 181.556 106.789C181.513 106.668 181.468 106.552 181.426 106.429C181.386 106.316 181.343 106.193 181.303 106.091C182.368 105.577 183.411 105.031 184.422 104.463C186.464 103.324 188.433 102.059 190.319 100.676C190.504 100.541 190.681 100.409 190.856 100.274C190.894 100.082 190.956 99.9072 190.991 99.7439Z" fill="#F8856C"/>
<path d="M193.752 97.3632L193.726 97.394C192.926 98.3406 191.857 98.9937 190.756 99.5428C190.666 99.8481 190.484 100.239 190.309 100.66C190.123 101.078 189.989 101.518 189.909 101.968C189.114 104.158 187.628 104.74 185.51 105.677C184.989 105.913 184.563 106.072 184.17 106.207C183.314 106.47 182.437 106.661 181.548 106.777C180.973 106.865 180.287 106.971 179.418 107.12C176.441 101.637 175.961 94.3624 179.07 88.7609C180.254 86.631 183.803 85.6489 186.74 86.2807C184.85 87.4735 182.786 88.3661 180.623 88.9265C181.562 88.949 182.484 89.1931 183.311 89.639C184.139 90.0849 184.849 90.72 185.385 91.4925C185.92 92.265 186.266 93.1531 186.393 94.0845C186.521 95.0158 186.426 95.9641 186.118 96.852C186.553 96.1421 188.7 96.4095 189.32 95.7776C189.994 95.0937 189.488 95.0132 189.819 94.2228C189.909 93.2762 191.192 91.3285 192.422 91.4469C193.653 91.5652 194.659 92.6893 194.86 93.9175C195.061 95.1458 194.554 96.4142 193.752 97.3632Z" fill="#FBB6A6"/>
<path d="M150.998 163.905H156.247C156.247 163.905 157.312 164.7 155.222 164.7C154.065 164.716 152.91 164.598 151.779 164.35L150.998 163.905Z" fill="#F8856C"/>
<path d="M179.425 95.9456C179.819 95.9456 180.138 95.1382 180.138 94.1423C180.138 93.1464 179.819 92.339 179.425 92.339C179.032 92.339 178.713 93.1464 178.713 94.1423C178.713 95.1382 179.032 95.9456 179.425 95.9456Z" fill="#38385C"/>
<path d="M178.424 100.87C179.626 100.807 180.796 100.463 181.841 99.8654C182.886 99.2683 183.777 98.4349 184.442 97.4318C184.491 98.1752 184.328 98.9173 183.972 99.5717C183.616 100.226 183.081 100.766 182.43 101.128C181.122 101.831 179.404 101.677 178.424 100.87Z" fill="#FEFEFE"/>
<path d="M179.34 91.028C179.719 90.7631 180.162 90.604 180.623 90.5669C181.084 90.5299 181.546 90.6164 181.962 90.8174C182.379 91.0184 182.734 91.3267 182.992 91.7106C183.25 92.0945 183.401 92.5401 183.429 93.0017C182.346 91.8755 180.895 91.1752 179.34 91.028Z" fill="#38385C"/>
<path d="M191.502 93.4087C191.582 93.2187 191.715 93.0556 191.885 92.9391C192.055 92.8226 192.255 92.7574 192.461 92.7514C192.667 92.7454 192.871 92.7989 193.047 92.9053C193.224 93.0118 193.366 93.1668 193.457 93.3519C193.624 93.6935 193.72 94.0658 193.739 94.4459C193.758 94.8259 193.699 95.2059 193.567 95.5625C193.434 95.9191 193.229 96.2448 192.966 96.5198C192.703 96.7948 192.387 97.0134 192.037 97.162C192.486 96.7676 192.848 96.284 193.099 95.7421C193.223 95.4703 193.284 95.1742 193.278 94.8757C193.272 94.5772 193.2 94.2838 193.066 94.0169C192.917 93.7492 192.679 93.542 192.394 93.431C192.108 93.32 191.793 93.3121 191.502 93.4087Z" fill="#F8856C"/>
<path d="M168.315 161.009H92.6025V163.917H168.315V161.009Z" fill="#EC7F37"/>
<path d="M162.926 157.511C159.149 157.608 155.533 159.053 152.728 161.584C153.438 162.279 154.607 162.343 155.549 162.007C156.491 161.671 157.274 160.999 158.032 160.351C157.962 161.148 157.685 161.912 157.228 162.569C156.772 163.226 156.151 163.752 155.428 164.095C153.985 164.764 152.47 164.402 150.896 163.922C152.482 165.259 154.581 165.59 156.652 165.72C158.723 165.851 160.791 165.536 162.843 165.226C162.883 162.578 162.914 159.939 162.926 157.511Z" fill="#FBB8A5"/>
<path d="M149.853 154.642C146.757 156.807 142.99 157.794 139.23 157.424C139.388 156.443 140.291 155.697 141.248 155.407C142.205 155.118 143.235 155.193 144.229 155.265C143.699 154.666 143.022 154.215 142.265 153.958C141.507 153.701 140.696 153.647 139.911 153.8C138.352 154.119 137.348 155.31 136.368 156.632C136.849 154.614 138.341 153.1 139.929 151.766C141.517 150.431 143.368 149.455 145.203 148.485C146.808 150.592 148.401 152.696 149.853 154.642Z" fill="#FBB8A5"/>
<path d="M209.469 177.383C200.864 178.767 192.153 179.386 183.438 179.231C179.937 179.174 176.441 178.989 172.949 178.675C173.423 172.187 173.896 165.701 174.369 159.215C185.781 158.181 195.668 148.049 196.43 136.617C196.903 129.482 201.66 125.44 208.736 123.128C208.736 123.634 208.736 124.138 208.752 124.637C208.942 142.969 209.271 159.219 209.469 177.383Z" fill="#6251A3"/>
<path d="M220.961 175.063C217.165 175.989 213.335 176.763 209.469 177.383C200.864 178.767 192.152 179.386 183.438 179.231C188.807 159.989 197.178 141.544 208.759 124.647C209.715 123.247 210.694 121.86 211.696 120.484C217.306 138.158 220.425 156.528 220.961 175.063Z" fill="#6251A3"/>
<path d="M181.165 116.598C176.296 129.431 174.278 143.169 175.249 156.86C188.655 147.846 197.397 132.229 198.055 116.073C198.159 113.571 196.034 111.34 193.592 110.779C191.15 110.218 188.558 111.072 186.492 112.504C184.426 113.936 182.838 115.903 181.165 116.598Z" fill="#6251A3"/>
<path d="M197.018 107.842C198.989 107.229 209.712 115.207 211.453 119.734C207.596 119.791 199.013 119.758 195.614 121.58C197.058 117.424 194.812 112.35 190.768 110.611C193.018 109.57 195.262 108.526 197.018 107.842Z" fill="#5AD192"/>
<path d="M161.764 157.12C168.519 156.297 175.016 154.02 180.807 150.444C183.884 148.535 185.853 145.198 186.96 141.74C188.068 138.283 188.418 134.641 189.028 131.065C189.639 127.489 190.545 123.868 192.578 120.87C194.611 117.871 198.095 116.511 201.623 115.664C206.316 114.532 213.356 119.554 212.436 122.905C205.675 147.548 205.547 147.99 199.389 157.57C198.613 158.777 197.321 159.425 195.988 159.96C174.607 168.534 167.181 166.603 166.407 166.35C165.484 163.676 162.881 159.496 161.764 157.12Z" fill="#5AD192"/>
<path d="M160.166 157.577C161.39 160.682 162.076 163.967 163.297 167.076C163.122 167.138 163.482 167.017 163.297 167.076L167.053 166.953L164.255 158.318C164.123 157.933 163.885 157.593 163.569 157.337C163.254 157.081 162.872 156.918 162.469 156.867C161.652 156.777 160.803 157.189 160.166 157.577Z" fill="#6251A3"/>
<path d="M197.282 105.168L179.926 113.415C179.997 115.264 180.067 117.112 180.136 118.958L198.681 108.008C198.186 107.08 197.691 106.134 197.282 105.168Z" fill="#463E52"/>
<path d="M181.42 106.415C181.46 106.391 181.498 106.375 181.539 106.354C181.501 106.378 181.462 106.4 181.42 106.417C181.34 106.467 181.262 106.507 181.184 106.552C181.259 106.502 181.339 106.456 181.42 106.415Z" fill="#FFA8A8"/>
<path d="M179.231 184.03L135.992 302.051L170.051 305.161L194.188 257.627L210.181 185.363L179.231 184.03Z" fill="#1A1A35"/>
<path d="M205.346 305.869L252.203 97.7607C252.585 96.0641 253.52 94.5425 254.861 93.4351C256.201 92.3277 257.872 91.6974 259.61 91.6432L359.951 88.5052C361.141 88.465 362.325 88.6968 363.412 89.183C364.499 89.6692 365.461 90.397 366.224 91.3109C366.987 92.2248 367.532 93.3009 367.817 94.4571C368.102 95.6133 368.119 96.8192 367.867 97.9831L366.828 102.858L322.856 308.945C322.482 310.698 321.519 312.269 320.127 313.399C318.736 314.528 316.999 315.147 315.207 315.152L213.021 315.448C211.159 315.452 209.357 314.795 207.934 313.594C206.512 312.393 205.562 310.726 205.254 308.891C205.09 307.887 205.121 306.861 205.346 305.869ZM324.359 91.8254L294.576 92.6632C294.204 92.6768 293.852 92.8359 293.596 93.1064C293.34 93.3768 293.201 93.7369 293.208 94.1091C293.208 94.1281 293.208 94.147 293.208 94.1659C293.235 94.5283 293.4 94.8665 293.669 95.1108C293.938 95.3551 294.291 95.487 294.654 95.4793L324.437 94.6416C324.637 94.6612 324.84 94.6379 325.031 94.5732C325.222 94.5085 325.396 94.4039 325.544 94.2664C325.691 94.1289 325.807 93.9616 325.885 93.7756C325.963 93.5897 326 93.3893 325.994 93.1879C325.988 92.9864 325.94 92.7885 325.852 92.6073C325.764 92.426 325.638 92.2657 325.483 92.1368C325.328 92.0079 325.147 91.9135 324.953 91.8598C324.759 91.8061 324.555 91.7944 324.356 91.8254H324.359ZM219.59 302.099L312.389 301.829C314.016 301.824 315.593 301.262 316.857 300.237C318.121 299.211 318.995 297.784 319.335 296.192L360.204 104.624C360.569 102.914 360.293 101.13 359.428 99.6105C358.563 98.0912 357.17 96.9427 355.514 96.3834C354.71 96.1129 353.865 95.9894 353.017 96.0189L261.906 98.8588C260.328 98.9084 258.81 99.4812 257.593 100.487C256.375 101.493 255.527 102.875 255.18 104.415L248.149 135.654L248.107 135.836L212.614 293.411C212.378 294.456 212.382 295.54 212.623 296.583C212.865 297.626 213.338 298.601 214.009 299.436C214.679 300.27 215.529 300.943 216.495 301.404C217.462 301.865 218.519 302.103 219.59 302.099Z" fill="#38385C"/>
<path d="M206.913 321.402C207.058 321.614 207.221 321.813 207.401 321.996C208.173 323 209.168 323.81 210.308 324.363C211.447 324.915 212.699 325.195 213.966 325.179L320.223 324.664C324.061 324.645 327.379 322.032 328.188 318.385L373.976 112.192L375.45 105.547C375.571 105.003 375.634 104.447 375.637 103.89C375.117 102.165 373.006 99.28 370.94 96.7313C368.673 93.934 366.46 91.5438 366.46 91.5438L366.439 91.6172C367.123 92.5136 367.604 93.548 367.85 94.6488C368.095 95.7496 368.098 96.8905 367.859 97.9926L366.82 102.868L322.857 308.945C322.483 310.698 321.52 312.27 320.128 313.399C318.737 314.528 317 315.147 315.208 315.152L213.021 315.448C211.16 315.452 209.357 314.795 207.935 313.594C206.513 312.393 205.563 310.726 205.254 308.891C205.254 308.891 204.66 318.175 206.913 321.402Z" fill="#1A1A35"/>
<path d="M219.59 302.099L312.389 301.829C314.016 301.824 315.593 301.262 316.857 300.237C318.12 299.211 318.995 297.784 319.334 296.192L360.204 104.624C360.569 102.914 360.293 101.13 359.428 99.6105C358.563 98.0912 357.17 96.9427 355.514 96.3834C354.71 96.1129 353.865 95.9894 353.017 96.0189L261.906 98.8588C260.327 98.9084 258.81 99.4811 257.593 100.487C256.375 101.493 255.527 102.875 255.18 104.415L248.149 135.654L248.107 135.836L212.613 293.411C212.378 294.456 212.382 295.54 212.623 296.583C212.865 297.626 213.338 298.601 214.009 299.436C214.679 300.27 215.529 300.943 216.495 301.404C217.461 301.865 218.519 302.103 219.59 302.099Z" fill="#E2EEFC"/>
<g opacity="0.64">
<path d="M314.193 97.2329L353.168 137.592L355.016 128.921L324.116 96.9205L314.193 97.2329Z" fill="white"/>
<path d="M282.227 98.2316L347.209 165.526L351.873 143.659L307.25 97.4482L282.227 98.2316Z" fill="white"/>
<path d="M236.033 189.388L322.92 279.368L329.241 249.737L242.638 160.05L236.033 189.388Z" fill="white"/>
<path d="M230.369 214.558L314.362 301.542C315.596 301.183 316.71 300.495 317.585 299.553C318.46 298.611 319.064 297.449 319.332 296.192L319.348 296.116L232.3 205.97L230.369 214.558Z" fill="white"/>
<path d="M222.982 247.365L275.678 301.938L310.516 301.836L229.587 218.025L222.982 247.365Z" fill="white"/>
<path d="M282.227 98.2316L347.209 165.526L351.873 143.659L307.25 97.4482L282.227 98.2316Z" fill="white"/>
<path d="M314.193 97.2329L353.168 137.592L355.016 128.921L324.116 96.9205L314.193 97.2329Z" fill="white"/>
<path d="M230.369 214.558L314.362 301.542C315.596 301.183 316.71 300.495 317.585 299.553C318.46 298.611 319.064 297.449 319.332 296.192L319.348 296.116L232.3 205.97L230.369 214.558Z" fill="white"/>
<path d="M222.982 247.365L275.678 301.938L310.516 301.836L229.587 218.025L222.982 247.365Z" fill="white"/>
<path d="M236.033 189.388L322.92 279.368L329.241 249.737L242.638 160.05L236.033 189.388Z" fill="white"/>
</g>
<path d="M293.212 94.1731C293.239 94.5355 293.404 94.8736 293.673 95.118C293.942 95.3623 294.294 95.4942 294.658 95.4865L324.44 94.6488C324.641 94.6684 324.843 94.6451 325.034 94.5804C325.225 94.5157 325.4 94.4111 325.547 94.2736C325.695 94.1361 325.811 93.9688 325.889 93.7828C325.966 93.5969 326.004 93.3965 325.998 93.195C325.992 92.9936 325.943 92.7957 325.855 92.6144C325.767 92.4332 325.641 92.2728 325.487 92.1439C325.332 92.0151 325.151 91.9207 324.957 91.867C324.762 91.8133 324.559 91.8016 324.36 91.8326L294.577 92.6703C294.205 92.6839 293.853 92.8431 293.597 93.1135C293.342 93.384 293.202 93.7441 293.209 94.1163C293.209 94.1353 293.21 94.1542 293.212 94.1731Z" fill="white"/>
<path d="M257.98 234.432C261.415 243.217 264.852 252.002 268.291 260.789C266.906 261.36 265.483 261.835 264.032 262.208C262.815 260.946 261.561 259.718 260.269 258.524C260.778 258.173 261.2 257.711 261.504 257.172C261.937 256.337 261.819 255.137 261.005 254.671C260.058 255.329 259.112 255.985 258.165 256.64C257.888 256.403 257.611 256.167 257.327 255.93C257.481 255.84 257.64 255.762 257.801 255.693C258.385 255.407 258.984 255.133 259.457 254.681C259.93 254.228 260.226 253.537 260.027 252.915C259.829 252.293 258.996 251.905 258.475 252.297C257.5 253.025 256.526 253.754 255.552 254.486C255.252 254.25 254.951 254.013 254.648 253.777L258.236 251.133C258.3 250.257 257.211 249.678 256.362 249.881C255.803 250.045 255.299 250.358 254.904 250.785C254.691 250.991 254.487 251.211 254.289 251.424C254.258 251.455 254.229 251.488 254.201 251.519C253.852 251.913 253.448 252.255 253.001 252.534C252.731 252.333 252.457 252.134 252.185 251.938C252.23 251.848 252.27 251.755 252.31 251.663C253.249 249.56 253.468 247.205 252.934 244.965C252.4 242.724 251.143 240.722 249.357 239.267C249.12 239.073 248.867 238.886 248.611 238.714C251.636 237.301 254.67 235.914 257.98 234.432Z" fill="#5AD192"/>
<path d="M259.945 233.564C263.206 242.434 266.467 251.313 269.917 260.147C269.375 260.365 268.829 260.583 268.291 260.791C264.855 252.002 261.418 243.216 257.98 234.435C258.624 234.149 259.277 233.857 259.945 233.564Z" fill="black"/>
<path d="M258.231 251.109L254.643 253.753C254.099 253.334 253.547 252.918 252.986 252.51C253.432 252.231 253.836 251.889 254.186 251.495C254.217 251.464 254.245 251.431 254.274 251.401C254.473 251.188 254.676 250.967 254.889 250.762C255.285 250.335 255.788 250.022 256.347 249.858C257.218 249.654 258.294 250.234 258.231 251.109Z" fill="white"/>
<path d="M260.024 252.896C260.221 253.519 259.918 254.207 259.454 254.662C258.99 255.116 258.38 255.388 257.797 255.674C257.641 255.755 257.483 255.833 257.324 255.911C256.742 255.416 256.15 254.93 255.547 254.453C256.52 253.722 257.497 252.991 258.47 252.264C258.993 251.888 259.821 252.279 260.024 252.896Z" fill="white"/>
<path d="M261.005 254.669C261.819 255.142 261.935 256.325 261.504 257.17C261.2 257.708 260.777 258.17 260.269 258.521C259.578 257.89 258.875 257.259 258.16 256.628L261.005 254.669Z" fill="white"/>
<path d="M249.347 239.241C251.133 240.696 252.391 242.698 252.925 244.939C253.458 247.179 253.239 249.534 252.301 251.637C249.33 251.976 246.45 252.87 243.809 254.273C242.735 249.777 241.658 245.281 240.596 240.962L249.347 239.241Z" fill="#FBB8A5"/>
<path d="M188.265 188.332C188.265 188.332 153.366 246.563 176.804 264.182C200.242 281.801 248.489 258.301 248.489 258.301L240.23 237.171C240.23 237.171 199.999 253.263 205.248 233.621C210.497 213.979 217.984 185.083 217.984 185.083L188.265 188.332Z" fill="#38385C"/>
<path d="M220.939 187.197C217.194 187.98 213.398 188.496 209.58 188.74C197.248 191.403 184.463 191.122 172.26 187.921C172.438 185.491 172.617 183.06 172.797 180.627C172.844 179.977 172.892 179.326 172.941 178.675C176.43 178.99 179.926 179.176 183.43 179.231C192.145 179.386 200.856 178.767 209.462 177.383C213.321 176.763 217.151 175.99 220.953 175.063C221.075 179.107 221.07 183.151 220.939 187.197Z" fill="#5AD192"/>
<path d="M177.551 92.6774C177.764 94.2535 176.131 95.8414 174.074 96.071C176.086 97.0578 177.465 98.7546 177.728 100.567C178.315 98.0683 178.412 95.5077 177.551 92.6774Z" fill="#FBB6A6"/>
<path d="M193.436 97.6141C194.362 99.4877 194.973 101.501 195.246 103.573L199.522 96.6201C197.511 96.968 195.497 97.3159 193.436 97.6141Z" fill="#38385C"/>
<path d="M178.254 90.0551L181.039 88.9941L195.363 85.9436L192.752 84.4705C191.059 83.5159 189.203 82.8879 187.278 82.6194L187.194 82.6076C185.433 82.3619 183.64 82.6686 182.061 83.4852L182.014 83.5092C181.108 83.9777 180.308 84.6266 179.662 85.4158C178.752 86.529 178.254 87.9231 178.254 89.3615V90.0551Z" fill="#38385C" stroke="#38385C"/>
<path d="M177.059 266.485L162.117 298.433" stroke="#F2F2F2" stroke-linecap="round" stroke-linejoin="round" stroke-dasharray="6 3 6 3 6 3"/>
<path d="M237.406 311.252L237.342 311.383" stroke="#F2F2F2" stroke-linecap="round" stroke-linejoin="round" stroke-dasharray="6 3 6 3 6 3"/>
<path d="M197.213 193.179C192.818 199.959 188.386 206.815 185.662 214.421C182.938 222.027 182.034 230.563 184.796 238.157C187.558 245.752 194.499 252.091 202.545 252.633C218.559 253.713 226.291 254.233 241.2 248.288" stroke="#F2F2F2" stroke-linecap="round" stroke-linejoin="round" stroke-dasharray="6 3 6 3 6 3"/>
<path d="M321.873 52.8416L315.994 50.9484C318.361 43.934 328.755 41.371 334.098 46.4898C331.294 43.1341 333.625 37.0403 337.953 36.4108C342.282 35.7813 346.236 40.9664 344.511 44.98C347.86 41.1202 355.101 42.0195 357.401 46.5821C360.163 43.1601 366.207 43.269 368.848 46.7809C381.271 44.4585 394.099 45.7125 405.837 50.397L300.934 55.4898C308.485 54.1077 316.042 52.7256 321.873 52.8416Z" fill="#E2EEFC"/>
<path d="M141.549 15.396L147.297 13.1431C144.505 6.28016 133.96 4.38694 128.95 9.82996C131.536 6.30383 128.827 0.363837 124.467 0.015957C120.108 -0.331923 116.478 5.0827 118.461 8.9851C114.876 5.34301 107.705 6.69904 105.696 11.3966C102.724 8.15445 96.7033 8.63959 94.2847 12.3148C81.7423 10.7781 69.0213 12.8364 57.6035 18.2501L162.616 16.7237C154.984 15.8173 147.361 14.9133 141.549 15.396Z" fill="#E2EEFC"/>
<path d="M15.7041 331.9C15.7041 330.017 16.4521 328.212 17.7835 326.88C19.115 325.549 20.9208 324.801 22.8037 324.801H424.624C426.507 324.801 428.312 325.549 429.644 326.88C430.975 328.212 431.723 330.017 431.723 331.9C431.723 333.783 430.975 335.589 429.644 336.921C428.312 338.252 426.507 339 424.624 339H22.8037C20.9208 339 19.115 338.252 17.7835 336.921C16.4521 335.589 15.7041 333.783 15.7041 331.9Z" fill="#1A1A35"/>
<path d="M291.734 223.008C293.578 221.164 293.578 218.175 291.734 216.331C289.89 214.488 286.901 214.488 285.057 216.331C283.213 218.175 283.213 221.164 285.057 223.008C286.901 224.852 289.89 224.852 291.734 223.008Z" fill="#F5F9FE"/>
<path d="M10.763 189.866C9.48268 185.904 12.216 181.138 16.2841 180.244C20.3521 179.349 24.832 182.532 25.3313 186.664C28.4315 181.013 37.9568 180.771 41.3409 186.259C58.1174 184.681 75.0402 185.961 91.3882 190.046L0 191.466C4.49641 190.219 8.99754 188.962 10.763 189.866Z" fill="#E2EEFC"/>
</svg>
