<svg width="26" height="28" viewBox="0 0 26 28" fill="none" xmlns="http://www.w3.org/2000/svg">
<path d="M9.86154 7.06154C9.71795 7.10256 9.58974 7.08205 9.47692 7C9.3641 6.91795 9.30769 6.81026 9.30769 6.67692C9.30769 6.50256 9.35385 6.35385 9.44615 6.23077C9.54872 6.09743 9.68205 6.01026 9.84615 5.96923C10.8513 5.73333 11.8513 5.61538 12.8462 5.61538C14.0462 5.61538 14.9692 5.84102 15.6154 6.29231C16.2615 6.73333 16.5846 7.34359 16.5846 8.12308C16.5846 8.49231 16.5333 8.82051 16.4308 9.10769C16.3385 9.39487 16.1795 9.65641 15.9538 9.89231C15.7385 10.1282 15.5487 10.3128 15.3846 10.4462C15.2205 10.5795 14.9846 10.7487 14.6769 10.9538C14.3077 11.2 14.0256 11.4 13.8308 11.5538C13.6359 11.7077 13.4308 11.9333 13.2154 12.2308C13.0103 12.5282 12.8718 12.8564 12.8 13.2154C12.7692 13.3897 12.6872 13.5333 12.5538 13.6462C12.4308 13.759 12.2872 13.8154 12.1231 13.8154C11.9487 13.8154 11.8051 13.7538 11.6923 13.6308C11.5795 13.5077 11.5333 13.3641 11.5538 13.2C11.6051 12.8513 11.6974 12.5385 11.8308 12.2615C11.9641 11.9846 12.1487 11.7282 12.3846 11.4923C12.6205 11.2462 12.8154 11.0667 12.9692 10.9538C13.1231 10.8308 13.359 10.6615 13.6769 10.4462C14.0564 10.1897 14.3333 9.98974 14.5077 9.84615C14.6923 9.69231 14.8718 9.47179 15.0462 9.18461C15.2205 8.89744 15.3077 8.57949 15.3077 8.23077C15.3077 7.18461 14.4359 6.66154 12.6923 6.66154C11.7487 6.66154 10.8051 6.79487 9.86154 7.06154ZM11.4615 15.7692C11.4615 15.5846 11.5231 15.4308 11.6462 15.3077C11.7795 15.1744 11.9385 15.1077 12.1231 15.1077C12.3077 15.1077 12.4667 15.1744 12.6 15.3077C12.7333 15.4308 12.8 15.5846 12.8 15.7692V16.3385C12.8 16.5231 12.7333 16.6821 12.6 16.8154C12.4667 16.9385 12.3077 17 12.1231 17C11.9385 17 11.7795 16.9385 11.6462 16.8154C11.5231 16.6821 11.4615 16.5231 11.4615 16.3385V15.7692Z" fill="#7F71B4"/>
<path d="M4.5 19.5H5.5V25L12 19.5H19.8657C20.287 19.5 20.7106 19.4474 21.1193 19.3452C22.0171 19.1207 22.8457 18.6543 23.5 18L24.1779 17.3221C24.3913 17.1087 24.5688 16.8624 24.7037 16.5926C24.8986 16.2029 25 15.7732 25 15.3374V5.85849C25 4.97269 24.7378 4.1067 24.2464 3.36966C24.0825 3.12382 23.8948 2.89477 23.6858 2.68585L23.621 2.62105C23.2097 2.20971 22.7347 1.86737 22.2144 1.60722L22 1.5C21.3424 1.17119 20.6172 1 19.882 1H6.11803C5.38278 1 4.65763 1.17119 4 1.5L3.63246 1.68377C3.21356 1.89322 2.83117 2.16883 2.5 2.5C2.16883 2.83117 1.89322 3.21356 1.68377 3.63246L1.5 4C1.17119 4.65763 1 5.38278 1 6.11803V15.5V15.8374C1 16.2732 1.10145 16.7029 1.29631 17.0926C1.43122 17.3624 1.60875 17.6087 1.82206 17.8221L2 18C2.33117 18.3312 2.71356 18.6068 3.13246 18.8162L3.5 19L4.5 19.5Z" stroke="#7F71B4" stroke-width="2"/>
</svg>
