<svg width="24" height="24" viewBox="0 0 24 24" fill="none" xmlns="http://www.w3.org/2000/svg">
<path d="M9.41851 11.4405C9.83991 11.4404 10.2572 11.3573 10.6465 11.1959C11.0357 11.0345 11.3894 10.798 11.6873 10.5C11.9852 10.2019 12.2214 9.84803 12.3825 9.45863C12.5436 9.06923 12.6265 8.65191 12.6263 8.2305C12.6262 7.80911 12.5431 7.39186 12.3817 7.00258C12.2204 6.6133 11.9839 6.25961 11.6859 5.96171C11.3878 5.66381 11.034 5.42752 10.6447 5.26635C10.2553 5.10518 9.83803 5.02228 9.41663 5.02238C8.99524 5.02248 8.57799 5.10558 8.1887 5.26693C7.79942 5.42828 7.44574 5.66473 7.14783 5.96277C6.84993 6.26081 6.61365 6.61461 6.45248 7.00396C6.29131 7.39332 6.20841 7.81061 6.20851 8.232C6.20851 8.65348 6.29155 9.07082 6.45288 9.46019C6.61422 9.84956 6.85069 10.2033 7.14878 10.5013C7.44688 10.7992 7.80076 11.0355 8.19021 11.1967C8.57965 11.3579 8.99703 11.4407 9.41851 11.4405ZM11.7465 11.418C11.0732 11.9175 10.2576 12.1882 9.41926 12.1905C8.58017 12.1885 7.76378 11.9178 7.08976 11.418C6.52726 11.8868 5.96626 12.558 5.50726 13.3853C4.44001 15.3075 4.32226 17.2793 5.24476 17.7908C5.65726 18.0255 6.08926 17.8508 6.53626 17.4195C6.45317 17.8831 6.4115 18.3532 6.41176 18.8243C6.41176 21.0278 7.26676 22.8083 8.31901 22.8083C8.95351 22.8083 9.26776 22.1595 9.41851 21.1673C9.56851 22.1498 9.88351 22.8083 10.5135 22.8083C11.5613 22.8083 12.4223 21.027 12.4223 18.8243C12.4223 18.3293 12.3758 17.8568 12.297 17.4195C12.7455 17.85 13.1775 18.0285 13.5908 17.7915C14.5118 17.2815 14.3933 15.309 13.326 13.3868C12.8685 12.558 12.3075 11.8883 11.745 11.4195L11.7465 11.418ZM14.8665 2.78325L13.8053 3.8445C14.3828 4.42022 14.841 5.10427 15.1537 5.85742C15.4663 6.61057 15.6273 7.41803 15.6273 8.2335C15.6273 9.04898 15.4663 9.85643 15.1537 10.6096C14.841 11.3627 14.3828 12.0468 13.8053 12.6225L14.865 13.68C15.5821 12.9655 16.151 12.1165 16.539 11.1815C16.9271 10.2466 17.1266 9.24426 17.1263 8.232C17.1263 6.1065 16.2623 4.179 14.8658 2.78325H14.8665ZM12.216 11.031L13.275 12.09C14.265 11.1023 14.877 9.73726 14.877 8.232C14.877 6.72675 14.265 5.3625 13.2765 4.3725L12.216 5.43375C12.5841 5.80085 12.8762 6.23698 13.0755 6.71716C13.2748 7.19733 13.3774 7.71211 13.3774 8.232C13.3774 8.75189 13.2748 9.26667 13.0755 9.74685C12.8762 10.227 12.5841 10.6632 12.216 11.0303V11.031ZM16.455 1.1925L15.3975 2.253C16.1842 3.03693 16.8083 3.96854 17.2339 4.99434C17.6595 6.02014 17.8784 7.11991 17.8778 8.2305C17.8778 10.563 16.929 12.678 15.3968 14.2103L16.4565 15.2708C17.3832 14.3479 18.1183 13.2509 18.6197 12.0429C19.121 10.835 19.3786 9.53986 19.3778 8.232C19.3778 5.487 18.2603 2.997 16.4573 1.19325L16.455 1.1925Z" fill="#7F71B4"/>
</svg>
