<svg width="77" height="78" viewBox="0 0 77 78" fill="none" xmlns="http://www.w3.org/2000/svg">
<g clip-path="url(#clip0_1704_7260)">
<path d="M64.9688 56.9266C64.9688 71.4844 53.1781 71.4844 38.5 71.4844C23.8219 71.4844 12.0312 71.4844 12.0312 56.9266C12.0312 42.3688 23.9422 18.5469 38.5 18.5469C53.0578 18.5469 64.9688 42.2484 64.9688 56.9266Z" fill="#DBB471"/>
<path opacity="0.5" d="M64.968 56.9266C64.968 51.9938 63.6445 45.9781 61.2383 40.2031C61.7195 43.9328 60.757 50.55 49.3273 53.0766C33.0852 56.5656 41.507 61.1375 35.1305 61.7391C29.7164 62.2203 15.2789 60.0547 12.3914 51.8734C12.1508 53.6781 11.9102 55.3625 11.9102 57.0469C12.0305 71.4844 23.9414 71.4844 38.4992 71.4844C53.057 71.4844 64.968 71.4844 64.968 56.9266Z" fill="#89664C"/>
<path d="M40.9078 66.6719H38.1406V71.4844L49.3297 77.5L74.5953 69.6797V65.4688L65.3312 60.0547L40.9078 66.6719Z" fill="#699635"/>
<path d="M38.5 63.9047C38.5 63.9047 41.3875 68.5969 49.5688 72.6875C49.5688 72.6875 62.3219 72.0859 74.5938 63.9047C74.5938 63.9047 67.4953 60.4156 65.45 55.8438C65.45 55.8438 60.6375 62.5813 38.5 63.9047Z" fill="#83BF4F"/>
<path d="M33.0867 66.5515L35.7336 66.4312L36.0945 70.8827L25.6273 77.4999L0.482031 72.0858L0.121094 68.1155L8.66328 62.2202L33.0867 66.5515Z" fill="#699635"/>
<path d="M35.1313 63.7844C35.1313 63.7844 32.6047 68.4766 25.025 72.9281C25.025 72.9281 12.6328 73.2891 0 66.6719C0 66.6719 6.7375 62.8219 8.30156 58.25C8.30156 58.25 13.5953 64.2656 35.1313 63.7844Z" fill="#83BF4F"/>
<path d="M29.1141 65.1076C29.1141 65.1076 28.7531 66.0701 30.4375 66.1905L25.9859 69.9201C25.9859 69.9201 23.3391 69.6795 22.7375 71.4842C22.7375 71.4842 11.9094 70.2811 4.93125 67.153C4.93125 67.153 6.375 66.0701 4.57031 65.3483C4.57031 65.3483 6.61563 63.9045 7.09688 62.5811C7.09688 62.5811 9.02187 62.8217 9.62344 61.378C9.86406 61.2576 17.0828 65.5889 29.1141 65.1076Z" stroke="#699635" stroke-width="0.375" stroke-miterlimit="10"/>
<path d="M10.5867 66.7922C11.8492 66.7922 12.8727 66.0919 12.8727 65.2281C12.8727 64.3643 11.8492 63.6641 10.5867 63.6641C9.32423 63.6641 8.30078 64.3643 8.30078 65.2281C8.30078 66.0919 9.32423 66.7922 10.5867 66.7922Z" fill="#699635"/>
<path d="M22.8578 63.3033C22.8578 63.3033 20.0906 66.9127 14.075 71.8455L14.4359 75.0939L10.225 74.1314L9.98438 70.6424C9.98438 70.6424 16.1203 64.9877 17.4438 62.2205C17.3234 62.2205 19.4891 62.9424 22.8578 63.3033ZM50.65 62.4611C50.65 62.4611 51.7328 65.3486 59.9141 70.6424V74.1314L64.6063 72.6877V69.0783C64.6063 69.0783 58.9516 65.108 55.5828 61.1377L50.65 62.4611Z" fill="#F9F3D9"/>
<path d="M43.7938 58.6107L41.1469 58.4904L40.9062 63.4232L51.6141 70.2811L76.7594 63.4232L76.8797 59.092L68.0969 52.9561L43.7938 58.6107Z" fill="#699635"/>
<path d="M41.6289 55.6031C41.6289 55.6031 44.2758 60.6562 52.0961 65.2281C52.0961 65.2281 64.6086 65.2281 77.0008 57.5281C77.0008 57.5281 70.143 53.5578 68.4586 48.625C68.4586 48.625 63.2852 55.3625 41.6289 55.6031Z" fill="#83BF4F"/>
<path d="M47.0422 56.9264C47.0422 56.9264 47.6438 57.8889 45.7188 58.2498L50.7719 62.2201C50.7719 62.2201 53.6594 61.4982 54.6219 63.1826C54.6219 63.1826 66.6531 61.017 72.1875 58.1295C72.1875 58.1295 70.3828 57.2873 72.1875 56.2045C72.1875 56.2045 70.0219 54.3998 69.1797 53.1967C69.1797 53.1967 67.1344 53.7982 66.0516 52.3545C66.0516 52.4748 61.7203 56.3248 47.0422 56.9264Z" stroke="#699635" stroke-width="0.375" stroke-miterlimit="10"/>
<path d="M56.3052 59.9342C55.824 60.5358 54.2599 60.7764 52.9365 60.4155C51.6131 60.0545 51.0115 59.2124 51.4927 58.6108C51.974 58.0092 53.5381 57.7686 54.8615 58.1295C56.1849 58.4905 56.7865 59.2124 56.3052 59.9342Z" fill="#699635"/>
<path d="M53.8984 54.6408C53.8984 54.6408 56.7859 58.4908 62.9219 63.6643L62.8016 67.2736L67.0125 66.0705L67.1328 62.2205C67.1328 62.2205 60.8766 56.2049 59.3125 53.3174C59.4328 53.3174 57.3875 54.1596 53.8984 54.6408Z" fill="#F9F3D9"/>
<path d="M55.3438 2.90625C55.3438 10.2453 45.8391 22.1562 38.5 22.1562C31.1609 22.1562 21.6562 11.4484 21.6562 4.10938C21.6562 -3.22969 22.7391 4.10938 30.0781 4.10938C31.1609 4.10938 36.2141 0.5 38.5 0.5C40.0641 0.5 44.5156 4.10938 46.9219 4.10938C53.2984 4.10938 55.3438 -2.62812 55.3438 2.90625Z" fill="#DBB471"/>
<path d="M36.3352 16.5013C35.6133 16.9826 32.1243 16.6217 31.0415 17.4638C29.5977 18.5467 31.643 21.0732 30.1993 22.6373C27.3118 25.5248 25.0258 28.7732 25.7477 30.5779C26.9508 33.706 29.2368 24.8029 31.2821 28.1717C33.3274 31.5404 32.9665 25.8857 36.0946 28.7732C39.2227 31.6607 36.5758 23.5998 39.5836 27.0888C42.5915 30.5779 42.7118 34.5482 44.8774 34.5482C47.404 34.5482 42.2305 25.0435 45.5993 27.3295C48.968 29.6154 52.6977 28.7732 49.329 25.2842C48.2461 24.2013 46.8024 22.2763 45.118 20.592C44.5165 19.9904 44.9977 16.8623 44.3962 16.381C43.6743 15.7795 41.8696 17.7045 41.1477 17.3435C39.704 16.6217 40.1852 17.9451 38.0196 18.306C36.5758 18.7873 37.779 15.5388 36.3352 16.5013Z" fill="#89664C"/>
<path d="M22.4992 23.5998C27.1914 19.1482 35.7336 21.6748 40.7867 23.8404C45.7196 26.0061 48.7274 19.1482 45.5992 15.6592C43.7945 13.6139 40.907 16.0201 39.8242 17.4639C38.6211 18.9076 37.6586 20.4717 36.3352 21.9154C34.4102 24.0811 29.718 22.2764 31.1617 19.2686C32.7258 16.1404 39.343 19.7498 41.5086 20.3514C45.7195 21.5545 50.1711 22.0357 54.382 20.4717C55.8258 19.9904 55.2242 17.5842 53.7805 18.1857C49.0883 19.8701 44.3961 18.7873 39.9445 17.3436C37.6586 16.6217 34.0492 14.6967 31.643 15.7795C24.7852 19.0279 31.1617 28.292 36.9367 24.6826C38.2602 23.8404 39.1024 22.517 40.0649 21.3139C40.6664 20.592 43.6742 16.0201 44.3961 18.3061C44.757 19.5092 44.3961 21.6748 43.0727 22.0357C42.2305 22.3967 40.5461 21.1936 39.7039 20.9529C38.1399 20.3514 36.5758 19.8701 34.8914 19.5092C30.4399 18.5467 24.4242 18.7873 20.9352 22.0357C19.732 22.9982 21.4164 24.6826 22.4992 23.5998Z" fill="#E8E8E8"/>
<path d="M53.9 1.10156C52.6969 2.06406 50.5312 4.10938 46.9219 4.10938C44.5156 4.10938 40.0641 0.5 38.5 0.5C36.2141 0.5 31.1609 4.10938 30.0781 4.10938C26.1078 4.10938 23.9422 2.06406 22.8594 1.22188C22.8594 1.22188 24.1828 6.63594 28.2734 9.40312C31.2812 11.3281 30.9203 9.04219 32.4844 6.87656C34.0484 4.71094 35.1313 3.62812 37.8984 9.04219C39.3422 12.05 42.1094 0.860937 44.275 4.47031C48.2453 11.0875 49.6891 7.47813 53.9 1.10156Z" fill="#89664C"/>
<path d="M63.0443 63.5438L62.924 67.1532L67.135 65.9501L67.2553 62.1001C67.2553 62.2204 64.7287 63.1829 63.0443 63.5438ZM59.9162 70.7626V74.2517L64.6084 72.8079V69.1985C64.4881 69.0782 63.285 69.8001 59.9162 70.7626ZM14.0771 71.7251L14.4381 75.0938L10.2271 74.1313L9.98652 70.6423C9.86621 70.6423 11.5506 71.2438 14.0771 71.7251Z" fill="#DBB471"/>
</g>
<defs>
<clipPath id="clip0_1704_7260">
<rect width="77" height="77" fill="white" transform="translate(0 0.5)"/>
</clipPath>
</defs>
</svg>
