<svg width="17" height="17" viewBox="0 0 17 17" fill="none" xmlns="http://www.w3.org/2000/svg">
<path d="M7.37679 7.0291C7.15578 7.15838 6.96604 7.32449 6.8184 7.51793C6.67076 7.71138 6.56811 7.92837 6.51632 8.15653C6.41171 8.61731 6.52058 9.09559 6.81897 9.48613C7.11737 9.87668 7.58086 10.1475 8.10746 10.239C8.63407 10.3306 9.18067 10.2353 9.62701 9.97422C10.0733 9.71312 10.3829 9.30757 10.4875 8.84679C10.5921 8.38601 10.4832 7.90773 10.1848 7.51719C9.88642 7.12664 9.42294 6.85581 8.89633 6.76428C8.36972 6.67274 7.82312 6.768 7.37679 7.0291ZM12.7766 4.75801C12.5792 4.58535 12.3402 4.44922 12.0783 4.35957C11.3915 4.12383 9.89263 4.13379 8.925 4.14375C8.76942 4.14375 8.62522 4.14707 8.5 4.14707C8.37478 4.14707 8.22679 4.14707 8.06741 4.14375C7.09978 4.13379 5.60848 4.12051 4.92165 4.35957C4.65982 4.44922 4.42455 4.58535 4.22344 4.75801C4.02232 4.93066 3.87054 5.13984 3.76808 5.36895C3.49866 5.96992 3.51384 7.28477 3.52143 8.13144C3.52143 8.26758 3.52522 8.39375 3.52522 8.5C3.52522 8.60625 3.52522 8.73242 3.52143 8.86856C3.51384 9.71523 3.49866 11.0301 3.76808 11.6311C3.87054 11.8602 4.02612 12.066 4.22344 12.242C4.42076 12.418 4.65982 12.5508 4.92165 12.6404C5.60848 12.8762 7.10737 12.8662 8.075 12.8563C8.23058 12.8563 8.37478 12.8529 8.5 12.8529C8.62522 12.8529 8.77321 12.8529 8.93259 12.8563C9.90022 12.8662 11.3915 12.8795 12.0783 12.6404C12.3402 12.5508 12.5754 12.4146 12.7766 12.242C12.9777 12.0693 13.1295 11.8602 13.2319 11.6311C13.5051 11.0334 13.49 9.72519 13.4786 8.8752C13.4786 8.73574 13.4748 8.60625 13.4748 8.49668C13.4748 8.38711 13.4748 8.26094 13.4786 8.11816C13.49 7.27148 13.5051 5.96328 13.2319 5.3623C13.1295 5.1332 12.9739 4.92734 12.7766 4.75137V4.75801ZM10.2304 6.23555C10.9167 6.6371 11.3927 7.26078 11.5535 7.96939C11.7143 8.678 11.5469 9.41349 11.0879 10.0141C10.8607 10.3114 10.5688 10.5667 10.2288 10.7654C9.88878 10.964 9.5074 11.1021 9.10641 11.1718C8.29657 11.3125 7.45601 11.166 6.76964 10.7645C6.08328 10.3633 5.60713 9.74008 5.44594 9.03178C5.28476 8.32348 5.45174 7.58817 5.91016 6.9876C6.36857 6.38703 7.08087 5.9704 7.89035 5.82936C8.69984 5.68832 9.5402 5.83443 10.2266 6.23555H10.2304ZM11.3384 6.19238C11.2208 6.12266 11.1259 6.02305 11.069 5.90684C11.0121 5.79062 11.0007 5.66445 11.0272 5.53828C11.0538 5.41211 11.1259 5.30254 11.2246 5.21289C11.3232 5.12324 11.456 5.06348 11.5964 5.04023C11.7368 5.01699 11.8848 5.02695 12.0176 5.07676C12.1504 5.12656 12.2643 5.20625 12.344 5.30918C12.4237 5.41211 12.4654 5.53496 12.4654 5.66113C12.4654 5.74414 12.4464 5.82715 12.4123 5.90352C12.3781 5.97988 12.3212 6.04961 12.2567 6.10938C12.1922 6.16914 12.1087 6.21562 12.0214 6.24883C11.9342 6.28203 11.8393 6.29863 11.7444 6.29863C11.6002 6.29863 11.4598 6.26211 11.3422 6.19238H11.3384ZM17 3.1875C17 2.01543 15.9109 1.0625 14.5714 1.0625H2.42857C1.08906 1.0625 0 2.01543 0 3.1875V13.8125C0 14.9846 1.08906 15.9375 2.42857 15.9375H14.5714C15.9109 15.9375 17 14.9846 17 13.8125V3.1875ZM13.5469 12.916C12.8373 13.5369 11.9759 13.7328 11.0045 13.776C10.0027 13.8258 6.99732 13.8258 5.99554 13.776C5.02411 13.7328 4.16272 13.5369 3.45312 12.916C2.74353 12.2951 2.51964 11.5414 2.47411 10.6914C2.41719 9.81484 2.41719 7.18516 2.47411 6.30859C2.52344 5.45859 2.74353 4.70488 3.45312 4.08398C4.16272 3.46309 5.0279 3.26719 5.99554 3.22734C6.99732 3.17754 10.0027 3.17754 11.0045 3.22734C11.9759 3.27051 12.8373 3.46309 13.5469 4.08398C14.2565 4.70488 14.4804 5.45859 14.5259 6.30859C14.5828 7.18184 14.5828 9.8082 14.5259 10.6881C14.4766 11.5381 14.2565 12.2918 13.5469 12.9127V12.916Z" fill="white"/>
</svg>
