<svg width="17" height="17" viewBox="0 0 17 17" fill="none" xmlns="http://www.w3.org/2000/svg">
<path d="M15.7857 1.0625H1.21049C0.542634 1.0625 0 1.54395 0 2.13496V14.865C0 15.4561 0.542634 15.9375 1.21049 15.9375H15.7857C16.4536 15.9375 17 15.4561 17 14.865V2.13496C17 1.54395 16.4536 1.0625 15.7857 1.0625ZM5.13795 13.8125H2.6183V6.71367H5.14174V13.8125H5.13795ZM3.87812 5.74414C3.06987 5.74414 2.41719 5.16973 2.41719 4.46582C2.41719 3.76191 3.06987 3.1875 3.87812 3.1875C4.68259 3.1875 5.33906 3.76191 5.33906 4.46582C5.33906 5.17305 4.68638 5.74414 3.87812 5.74414ZM14.5828 13.8125H12.0632V10.3594C12.0632 9.53594 12.0442 8.47676 10.754 8.47676C9.44107 8.47676 9.23996 9.37324 9.23996 10.2996V13.8125H6.72031V6.71367H9.1375V7.6832H9.17165C9.50937 7.12539 10.3328 6.53769 11.5585 6.53769C14.1085 6.53769 14.5828 8.00859 14.5828 9.92109V13.8125Z" fill="white"/>
</svg>
