<svg width="121" height="43" viewBox="0 0 121 43" fill="none" xmlns="http://www.w3.org/2000/svg">
  <path
    d="M4.0157 28.6021L0.3089 11.1493H6.02355L8.71098 25.4204L11.0586 15.0414C11.7382 11.9833 13.19 10.6859 15.4141 10.6859C17.6382 10.6859 19.09 11.9833 19.7696 15.0414L22.1172 25.4204L24.8047 11.1493H30.5193L26.8125 28.6021C26.2874 31.1042 24.6193 32.4942 22.3644 32.4942C20.3256 32.4942 18.5031 31.1351 17.978 28.8492L15.4141 17.5744L12.8502 28.8492C12.3251 31.1351 10.5026 32.4942 8.46386 32.4942C6.20889 32.4942 4.54083 31.1042 4.0157 28.6021ZM34.5389 32L39.9137 14.4545C40.686 11.8906 42.8483 10.6859 45.0106 10.6859C47.1729 10.6859 49.3352 11.8906 50.1074 14.4545L55.4823 32H49.6441L48.6865 28.4785H41.3656L40.3771 32H34.5389ZM44.7944 16.1225L42.7865 23.3817H47.2656L45.2886 16.1225C45.2268 15.9063 45.165 15.8136 45.0415 15.8136C44.9179 15.8136 44.8561 15.9063 44.7944 16.1225ZM68.7652 11.1493V26.7487H77.9705V32H67.993C64.4715 32 63.0506 30.1466 63.0506 27.2121V11.1493H68.7652Z"
    fill="white" />
  <path
    d="M115.001 32.3707C113.179 32.3707 111.665 30.8571 111.665 29.0346C111.665 27.2121 113.179 25.6984 115.001 25.6984C116.824 25.6984 118.337 27.2121 118.337 29.0346C118.337 30.8571 116.824 32.3707 115.001 32.3707Z"
    fill="#5AD192" />
  <path
    d="M93.079 15.4973C91.9988 15.8225 91.4412 16.1115 90.5136 16.78L85.3828 13.8481L86.0097 13.2212C86.6876 12.5433 87.4549 11.955 88.3167 11.5349C89.4351 10.9896 90.3774 10.6347 91.5151 10.3431C92.5458 10.079 93.6179 9.99904 94.6776 10.0939C96.3593 10.2444 97.6254 10.5615 99.067 11.2265C100.104 11.7047 101.056 12.3624 101.851 13.182C102.648 14.0033 103.206 14.8057 103.89 16.047C104.508 17.4371 104.756 18.2374 104.99 19.7119C105.039 21.7058 104.933 22.7926 104.44 24.6594L99.126 21.5443V20.6709C99.126 20.1546 99.1018 19.6342 98.9645 19.1366C98.8428 18.6957 98.6789 18.3452 98.3931 17.8794C97.7693 16.8011 97.3113 16.5722 96.3774 16.047C95.1201 15.5091 94.3991 15.3765 93.079 15.4973Z"
    fill="white" stroke="white" stroke-width="0.366486" />
  <path
    d="M94.921 26.3086C96.0012 25.9834 96.5588 25.6944 97.4864 25.0259L102.617 27.9578L101.99 28.5847C101.312 29.2626 100.545 29.8509 99.6833 30.271C98.5649 30.8163 97.6226 31.1712 96.4849 31.4628C95.4542 31.7269 94.3821 31.8069 93.3224 31.712C91.6407 31.5615 90.3746 31.2444 88.933 30.5794C87.896 30.1012 86.9439 29.4435 86.1488 28.6239C85.3519 27.8026 84.794 27.0002 84.1097 25.7589C83.4925 24.3689 83.2443 23.5685 83.0102 22.094C82.961 20.1001 83.0672 19.0133 83.5599 17.1465L88.874 20.2616V21.135C88.874 21.6513 88.8982 22.1717 89.0355 22.6693C89.1572 23.1102 89.3211 23.4607 89.6069 23.9265C90.2307 25.0048 90.6887 25.2337 91.6226 25.7589C92.8799 26.2968 93.6009 26.4294 94.921 26.3086Z"
    fill="white" stroke="white" stroke-width="0.366486" />
</svg>