<svg width="17" height="17" viewBox="0 0 17 17" fill="none" xmlns="http://www.w3.org/2000/svg">
<path d="M2.42857 1.0625C1.08906 1.0625 0 2.01543 0 3.1875V13.8125C0 14.9846 1.08906 15.9375 2.42857 15.9375H14.5714C15.9109 15.9375 17 14.9846 17 13.8125V3.1875C17 2.01543 15.9109 1.0625 14.5714 1.0625H2.42857ZM13.7025 3.85156L9.76362 7.78945L14.3969 13.1484H10.7692L7.9308 9.89785L4.67879 13.1484H2.87634L7.08839 8.93496L2.64487 3.85156H6.36362L8.93259 6.82324L11.9 3.85156H13.7025ZM12.2681 12.2055L5.82098 4.74473H4.7471L11.2663 12.2055H12.2643H12.2681Z" fill="white"/>
</svg>
