<svg width="30" height="30" viewBox="0 0 30 30" fill="none" xmlns="http://www.w3.org/2000/svg">
<path d="M4.28571 1.875C1.92188 1.875 0 3.55664 0 5.625V24.375C0 26.4434 1.92188 28.125 4.28571 28.125H25.7143C28.0781 28.125 30 26.4434 30 24.375V5.625C30 3.55664 28.0781 1.875 25.7143 1.875H4.28571ZM24.1808 6.79688L17.2299 13.7461L25.4062 23.2031H19.0045L13.9955 17.4668L8.2567 23.2031H5.07589L12.5089 15.7676L4.66741 6.79688H11.2299L15.7634 12.041L21 6.79688H24.1808ZM21.6496 21.5391L10.2723 8.37305H8.37723L19.8817 21.5391H21.6429H21.6496Z" fill="black"/>
</svg>
