<svg width="94" height="92" viewBox="0 0 94 92" fill="none" xmlns="http://www.w3.org/2000/svg">
<circle cx="45" cy="47" r="45" fill="#D8D0EE"/>
<circle cx="46" cy="26" r="17" fill="white"/>
<path d="M20.7245 60.3224C23.3412 51.8097 31.2051 46 40.1109 46H50.7865C59.928 46 67.981 52.0123 70.5789 60.7769C73.1963 69.6073 69.6016 79.3862 60.6189 81.42C51.2755 83.5355 40.6403 83.5326 30.974 81.3753C21.781 79.3236 17.957 69.3259 20.7245 60.3224Z" fill="white"/>
<ellipse cx="83.5" cy="15.5" rx="10.5" ry="11.5" fill="#6251A3"/>
<path d="M79.261 16.288C79.0457 16.288 78.8557 16.212 78.691 16.06C78.539 15.8953 78.463 15.7053 78.463 15.49C78.463 15.2747 78.539 15.091 78.691 14.939C78.8557 14.7743 79.0457 14.692 79.261 14.692H82.947C83.061 14.692 83.118 14.635 83.118 14.521V10.835C83.118 10.5943 83.2003 10.3917 83.365 10.227C83.5297 10.0623 83.7323 9.98 83.973 9.98C84.2137 9.98 84.4163 10.0623 84.581 10.227C84.7457 10.3917 84.828 10.5943 84.828 10.835V14.521C84.828 14.635 84.885 14.692 84.999 14.692H88.685C88.9003 14.692 89.084 14.7743 89.236 14.939C89.4007 15.091 89.483 15.2747 89.483 15.49C89.483 15.7053 89.4007 15.8953 89.236 16.06C89.084 16.212 88.9003 16.288 88.685 16.288H84.999C84.885 16.288 84.828 16.345 84.828 16.459V20.145C84.828 20.3857 84.7457 20.5883 84.581 20.753C84.4163 20.9177 84.2137 21 83.973 21C83.7323 21 83.5297 20.9177 83.365 20.753C83.2003 20.5883 83.118 20.3857 83.118 20.145V16.459C83.118 16.345 83.061 16.288 82.947 16.288H79.261Z" fill="white"/>
</svg>
