<svg width="152" height="185" viewBox="0 0 152 185" fill="none" xmlns="http://www.w3.org/2000/svg">
<g filter="url(#filter0_dddd_1181_4952)">
<circle cx="76" cy="60" r="56" fill="white"/>
</g>
<path d="M94.5328 26H58.0815C49.1999 26 42 33.1999 42 42.0815V78.5328C42 87.4143 49.1999 94.6142 58.0815 94.6142H94.5328C103.414 94.6142 110.614 87.4143 110.614 78.5328V42.0815C110.614 33.1999 103.414 26 94.5328 26Z" fill="url(#paint0_radial_1181_4952)"/>
<path d="M94.5328 26H58.0815C49.1999 26 42 33.1999 42 42.0815V78.5328C42 87.4143 49.1999 94.6142 58.0815 94.6142H94.5328C103.414 94.6142 110.614 87.4143 110.614 78.5328V42.0815C110.614 33.1999 103.414 26 94.5328 26Z" fill="url(#paint1_radial_1181_4952)"/>
<path d="M76.3088 33.5C69.0297 33.5 68.1161 33.5319 65.2573 33.6619C62.4039 33.7927 60.4562 34.2443 58.7521 34.9071C56.989 35.5917 55.4937 36.5075 54.004 37.9977C52.513 39.4877 51.5972 40.983 50.9105 42.7452C50.2458 44.4499 49.7936 46.3984 49.6653 49.2505C49.5374 52.1095 49.5039 53.0234 49.5039 60.3027C49.5039 67.582 49.5361 68.4927 49.6658 71.3515C49.7971 74.2049 50.2487 76.1526 50.911 77.8567C51.5961 79.6198 52.5119 81.1151 54.0022 82.6047C55.4916 84.0958 56.9869 85.0137 58.7486 85.6983C60.454 86.3611 62.402 86.8127 65.2549 86.9435C68.1139 87.0735 69.0268 87.1054 76.3055 87.1054C83.5853 87.1054 84.4961 87.0735 87.3548 86.9435C90.2082 86.8127 92.1581 86.3611 93.8635 85.6983C95.6258 85.0137 97.119 84.0958 98.6081 82.6047C100.099 81.1151 101.015 79.6198 101.702 77.8575C102.36 76.1526 102.813 74.2043 102.947 71.352C103.075 68.4933 103.109 67.582 103.109 60.3027C103.109 53.0234 103.075 52.11 102.947 49.251C102.813 46.3976 102.36 44.4501 101.702 42.746C101.015 40.983 100.099 39.4877 98.6081 37.9977C97.1174 36.507 95.6263 35.5911 93.8619 34.9074C92.1533 34.2443 90.2045 33.7924 87.3511 33.6619C84.4921 33.5319 83.5819 33.5 76.3004 33.5H76.3088ZM73.9043 38.3301C74.6181 38.329 75.4144 38.3301 76.3088 38.3301C83.4653 38.3301 84.3133 38.3558 87.1394 38.4842C89.7526 38.6037 91.171 39.0403 92.1158 39.4073C93.3666 39.8929 94.2583 40.4737 95.1959 41.4121C96.134 42.3502 96.7145 43.2435 97.2015 44.4944C97.5684 45.4378 98.0056 46.8562 98.1246 49.4694C98.253 52.2949 98.2809 53.1435 98.2809 60.2965C98.2809 67.4496 98.253 68.2984 98.1246 71.1236C98.0051 73.7369 97.5684 75.1553 97.2015 76.099C96.7159 77.3499 96.134 78.2405 95.1959 79.1781C94.2578 80.1161 93.3672 80.6967 92.1158 81.1826C91.172 81.5511 89.7526 81.9867 87.1394 82.1062C84.3138 82.2346 83.4653 82.2625 76.3088 82.2625C69.152 82.2625 68.3037 82.2346 65.4784 82.1062C62.8652 81.9856 61.4468 81.549 60.5012 81.1821C59.2506 80.6961 58.357 80.1156 57.4189 79.1775C56.4808 78.2394 55.9003 77.3482 55.4133 76.0968C55.0464 75.1531 54.6092 73.7347 54.4902 71.1215C54.3618 68.296 54.3361 67.4474 54.3361 60.2898C54.3361 53.1325 54.3618 52.2882 54.4902 49.4627C54.6098 46.8495 55.0464 45.4311 55.4133 44.4863C55.8992 43.2354 56.4808 42.3421 57.4192 41.404C58.3573 40.466 59.2506 39.8851 60.5015 39.3984C61.4463 39.0299 62.8652 38.5943 65.4784 38.4743C67.951 38.3625 68.9091 38.329 73.9043 38.3234V38.3301ZM90.6159 42.7803C88.8402 42.7803 87.3996 44.2196 87.3996 45.9956C87.3996 47.7712 88.8402 49.2119 90.6159 49.2119C92.3916 49.2119 93.8322 47.7712 93.8322 45.9956C93.8322 44.2199 92.3916 42.7793 90.6159 42.7793V42.7803ZM76.3088 46.5383C68.7076 46.5383 62.5446 52.7013 62.5446 60.3027C62.5446 67.9041 68.7076 74.0641 76.3088 74.0641C83.9102 74.0641 90.071 67.9041 90.071 60.3027C90.071 52.7015 83.9097 46.5383 76.3082 46.5383H76.3088ZM76.3088 51.3684C81.2428 51.3684 85.2431 55.3681 85.2431 60.3027C85.2431 65.2368 81.2428 69.237 76.3088 69.237C71.3744 69.237 67.3747 65.2368 67.3747 60.3027C67.3747 55.3681 71.3744 51.3684 76.3088 51.3684Z" fill="white"/>
<defs>
<filter id="filter0_dddd_1181_4952" x="0" y="0" width="152" height="185" filterUnits="userSpaceOnUse" color-interpolation-filters="sRGB">
<feFlood flood-opacity="0" result="BackgroundImageFix"/>
<feColorMatrix in="SourceAlpha" type="matrix" values="0 0 0 0 0 0 0 0 0 0 0 0 0 0 0 0 0 0 127 0" result="hardAlpha"/>
<feOffset dy="3"/>
<feGaussianBlur stdDeviation="3.5"/>
<feColorMatrix type="matrix" values="0 0 0 0 0 0 0 0 0 0 0 0 0 0 0 0 0 0 0.1 0"/>
<feBlend mode="normal" in2="BackgroundImageFix" result="effect1_dropShadow_1181_4952"/>
<feColorMatrix in="SourceAlpha" type="matrix" values="0 0 0 0 0 0 0 0 0 0 0 0 0 0 0 0 0 0 127 0" result="hardAlpha"/>
<feOffset dy="12"/>
<feGaussianBlur stdDeviation="6"/>
<feColorMatrix type="matrix" values="0 0 0 0 0 0 0 0 0 0 0 0 0 0 0 0 0 0 0.09 0"/>
<feBlend mode="normal" in2="effect1_dropShadow_1181_4952" result="effect2_dropShadow_1181_4952"/>
<feColorMatrix in="SourceAlpha" type="matrix" values="0 0 0 0 0 0 0 0 0 0 0 0 0 0 0 0 0 0 127 0" result="hardAlpha"/>
<feOffset dy="28"/>
<feGaussianBlur stdDeviation="8.5"/>
<feColorMatrix type="matrix" values="0 0 0 0 0 0 0 0 0 0 0 0 0 0 0 0 0 0 0.05 0"/>
<feBlend mode="normal" in2="effect2_dropShadow_1181_4952" result="effect3_dropShadow_1181_4952"/>
<feColorMatrix in="SourceAlpha" type="matrix" values="0 0 0 0 0 0 0 0 0 0 0 0 0 0 0 0 0 0 127 0" result="hardAlpha"/>
<feOffset dy="49"/>
<feGaussianBlur stdDeviation="10"/>
<feColorMatrix type="matrix" values="0 0 0 0 0 0 0 0 0 0 0 0 0 0 0 0 0 0 0.01 0"/>
<feBlend mode="normal" in2="effect3_dropShadow_1181_4952" result="effect4_dropShadow_1181_4952"/>
<feBlend mode="normal" in="SourceGraphic" in2="effect4_dropShadow_1181_4952" result="shape"/>
</filter>
<radialGradient id="paint0_radial_1181_4952" cx="0" cy="0" r="1" gradientUnits="userSpaceOnUse" gradientTransform="translate(60.2257 99.8989) rotate(-90) scale(68.0018 63.247)">
<stop stop-color="#FFDD55"/>
<stop offset="0.1" stop-color="#FFDD55"/>
<stop offset="0.5" stop-color="#FF543E"/>
<stop offset="1" stop-color="#C837AB"/>
</radialGradient>
<radialGradient id="paint1_radial_1181_4952" cx="0" cy="0" r="1" gradientUnits="userSpaceOnUse" gradientTransform="translate(30.5068 30.9426) rotate(78.681) scale(30.3972 125.298)">
<stop stop-color="#3771C8"/>
<stop offset="0.128" stop-color="#3771C8"/>
<stop offset="1" stop-color="#6600FF" stop-opacity="0"/>
</radialGradient>
</defs>
</svg>
