<svg width="452" height="218" viewBox="0 0 452 218" fill="none" xmlns="http://www.w3.org/2000/svg">
<circle cx="108.54" cy="108.54" r="108.54" fill="#CD431F"/>
<path d="M58.7536 117.775C59.4768 117.775 60.033 118.109 60.4224 118.776C60.8675 119.444 61.09 120.362 61.09 121.53C61.09 123.755 60.5615 125.48 59.5046 126.703C57.0013 129.763 54.4702 132.211 51.9113 134.046C49.3524 135.882 46.3206 136.8 42.8161 136.8C38.5327 136.8 35.0837 135.576 32.4692 133.129C29.8547 130.681 28.5474 127.427 28.5474 123.366C28.5474 121.196 29.66 119.639 31.8851 118.693C34.3327 117.636 36.085 116.523 37.142 115.355C38.1989 114.131 38.7274 112.657 38.7274 110.933C38.7274 109.932 38.5049 109.181 38.0598 108.68C37.6704 108.179 37.1698 107.929 36.5579 107.929C35.0559 107.929 33.3871 109.014 31.5513 111.183C29.7712 113.353 28.1024 116.162 26.5448 119.611C24.9872 123.004 23.7633 126.509 22.8733 130.125C22.2614 132.739 21.5382 134.519 20.7038 135.465C19.925 136.355 18.6734 136.8 16.9489 136.8C15.2244 136.8 13.9449 136.188 13.1105 134.964C12.3317 133.685 11.8032 131.738 11.5251 129.123C11.247 126.509 11.1079 122.67 11.1079 117.608C11.1079 109.041 11.9701 100.113 13.6946 90.8232C15.4747 81.5332 18.0614 73.7453 21.4548 67.4593C24.9037 61.1176 29.0202 57.9468 33.8043 57.9468C36.3632 57.9468 38.4214 59.0594 39.979 61.2845C41.5922 63.454 42.3988 66.2911 42.3988 69.7957C42.3988 75.4141 40.7578 81.2551 37.4757 87.3186C34.1937 93.3265 28.8533 100.363 21.4548 108.43C21.2879 111.322 21.2044 114.298 21.2044 117.358C23.8746 110.404 26.9342 105.37 30.3831 102.255C33.8321 99.084 37.0585 97.4986 40.0625 97.4986C42.8439 97.4986 45.069 98.4443 46.7379 100.336C48.4623 102.227 49.3246 104.563 49.3246 107.345C49.3246 110.404 48.5458 113.214 46.9882 115.773C45.4306 118.331 42.7604 120.612 38.9777 122.615C39.2002 124.117 39.8678 125.341 40.9803 126.286C42.1485 127.176 43.5392 127.621 45.1525 127.621C46.8769 127.621 48.5458 126.954 50.159 125.619C51.7722 124.284 53.8861 122.059 56.5006 118.943C57.1682 118.165 57.9192 117.775 58.7536 117.775ZM32.052 66.2076C31.0507 66.2076 29.9381 67.654 28.7143 70.5466C27.4904 73.3837 26.2944 77.2499 25.1262 82.1452C24.0137 86.9848 23.0958 92.2695 22.3726 97.9992C25.8216 93.9384 28.6586 89.5159 30.8838 84.7319C33.1645 79.9478 34.3049 75.6088 34.3049 71.7148C34.3049 69.9347 34.1102 68.5718 33.7208 67.6262C33.3314 66.6805 32.7751 66.2076 32.052 66.2076ZM100.674 117.775C101.398 117.775 101.954 118.109 102.343 118.776C102.788 119.444 103.011 120.362 103.011 121.53C103.011 123.755 102.482 125.48 101.425 126.703C98.8664 129.652 96.2241 132.072 93.4983 133.963C90.8281 135.854 87.7686 136.8 84.3196 136.8C81.4825 136.8 79.3409 135.993 77.8945 134.38C76.4482 132.711 75.725 130.319 75.725 127.204C75.725 125.647 76.1144 122.865 76.8932 118.86C77.6164 115.355 77.978 112.935 77.978 111.6C77.978 110.71 77.672 110.265 77.0601 110.265C76.3369 110.265 75.3078 111.211 73.9727 113.102C72.6376 114.938 71.3026 117.386 69.9675 120.445C68.6324 123.505 67.5476 126.731 66.7132 130.125C65.6563 134.575 63.0417 136.8 58.8696 136.8C57.2008 136.8 56.0882 136.216 55.5319 135.048C55.0313 133.824 54.7809 131.654 54.7809 128.539C54.7809 126.759 54.8088 125.341 54.8644 124.284L54.9478 117.608C54.9478 109.041 55.8101 100.113 57.5345 90.8232C59.3146 81.5332 61.9014 73.7453 65.2947 67.4593C68.7437 61.1176 72.8602 57.9468 77.6442 57.9468C80.2031 57.9468 82.2613 59.0594 83.8189 61.2845C85.4322 63.454 86.2388 66.2911 86.2388 69.7957C86.2388 75.4141 84.5977 81.2551 81.3157 87.3186C78.0336 93.3265 72.6933 100.363 65.2947 108.43C65.1278 111.322 65.0444 114.298 65.0444 117.358C66.8801 112.63 68.9105 108.791 71.1357 105.843C73.4164 102.839 75.6416 100.697 77.8111 99.4178C80.0362 98.1383 82.0666 97.4986 83.9024 97.4986C87.5182 97.4986 89.3261 99.3065 89.3261 102.922C89.3261 105.092 88.7142 109.014 87.4904 114.688C86.4335 119.527 85.905 122.726 85.905 124.284C85.905 126.509 86.7116 127.621 88.3248 127.621C89.4374 127.621 90.7447 126.954 92.2466 125.619C93.8042 124.228 95.8625 122.003 98.4214 118.943C99.0889 118.165 99.8399 117.775 100.674 117.775ZM75.8919 66.2076C74.8906 66.2076 73.778 67.654 72.5542 70.5466C71.3304 73.3837 70.1344 77.2499 68.9662 82.1452C67.8536 86.9848 66.9357 92.2695 66.2126 97.9992C69.6615 93.9384 72.4986 89.5159 74.7237 84.7319C77.0045 79.9478 78.1448 75.6088 78.1448 71.7148C78.1448 69.9347 77.9501 68.5718 77.5607 67.6262C77.1714 66.6805 76.6151 66.2076 75.8919 66.2076ZM106.511 136.8C103.062 136.8 100.309 135.548 98.2506 133.045C96.1923 130.542 95.1632 127.26 95.1632 123.199C95.1632 118.749 96.1923 114.549 98.2506 110.599C100.309 106.594 103.035 103.395 106.428 101.003C109.877 98.5555 113.521 97.3317 117.359 97.3317C118.583 97.3317 119.389 97.582 119.779 98.0827C120.224 98.5277 120.585 99.3621 120.864 100.586C122.032 100.363 123.256 100.252 124.535 100.252C127.261 100.252 128.624 101.226 128.624 103.173C128.624 104.341 128.206 107.122 127.372 111.517C126.093 117.914 125.453 122.364 125.453 124.868C125.453 125.702 125.648 126.37 126.037 126.87C126.482 127.371 127.038 127.621 127.706 127.621C128.763 127.621 130.042 126.954 131.544 125.619C133.046 124.228 135.077 122.003 137.635 118.943C138.303 118.165 139.054 117.775 139.888 117.775C140.612 117.775 141.168 118.109 141.557 118.776C142.002 119.444 142.225 120.362 142.225 121.53C142.225 123.755 141.696 125.48 140.639 126.703C138.359 129.541 135.939 131.933 133.38 133.88C130.821 135.827 128.346 136.8 125.954 136.8C124.118 136.8 122.421 136.188 120.864 134.964C119.362 133.685 118.221 131.96 117.442 129.791C114.55 134.464 110.906 136.8 106.511 136.8ZM109.515 128.372C110.739 128.372 111.907 127.649 113.02 126.203C114.132 124.756 114.939 122.837 115.44 120.445L118.527 105.092C116.191 105.147 114.021 106.038 112.019 107.762C110.072 109.431 108.514 111.656 107.346 114.437C106.178 117.219 105.594 120.167 105.594 123.282C105.594 125.007 105.927 126.286 106.595 127.121C107.318 127.955 108.292 128.372 109.515 128.372ZM183.673 117.775C184.396 117.775 184.952 118.109 185.342 118.776C185.787 119.444 186.009 120.362 186.009 121.53C186.009 123.755 185.481 125.48 184.424 126.703C181.921 129.763 179.39 132.211 176.831 134.046C174.272 135.882 171.24 136.8 167.735 136.8C163.452 136.8 160.003 135.576 157.389 133.129C154.774 130.681 153.467 127.427 153.467 123.366C153.467 121.196 154.579 119.639 156.804 118.693C159.252 117.636 161.004 116.523 162.061 115.355C163.118 114.131 163.647 112.657 163.647 110.933C163.647 109.932 163.424 109.181 162.979 108.68C162.59 108.179 162.089 107.929 161.477 107.929C159.975 107.929 158.306 109.014 156.471 111.183C154.691 113.353 153.022 116.162 151.464 119.611C149.907 123.004 148.683 126.509 147.793 130.125C147.181 132.739 146.458 134.519 145.623 135.465C144.844 136.355 143.593 136.8 141.868 136.8C140.144 136.8 138.864 136.188 138.03 134.964C137.251 133.685 136.723 131.738 136.444 129.123C136.166 126.509 136.027 122.67 136.027 117.608C136.027 109.041 136.889 100.113 138.614 90.8232C140.394 81.5332 142.981 73.7453 146.374 67.4593C149.823 61.1176 153.94 57.9468 158.724 57.9468C161.283 57.9468 163.341 59.0594 164.898 61.2845C166.512 63.454 167.318 66.2911 167.318 69.7957C167.318 75.4141 165.677 81.2551 162.395 87.3186C159.113 93.3265 153.773 100.363 146.374 108.43C146.207 111.322 146.124 114.298 146.124 117.358C148.794 110.404 151.854 105.37 155.302 102.255C158.751 99.084 161.978 97.4986 164.982 97.4986C167.763 97.4986 169.988 98.4443 171.657 100.336C173.382 102.227 174.244 104.563 174.244 107.345C174.244 110.404 173.465 113.214 171.908 115.773C170.35 118.331 167.68 120.612 163.897 122.615C164.12 124.117 164.787 125.341 165.9 126.286C167.068 127.176 168.459 127.621 170.072 127.621C171.796 127.621 173.465 126.954 175.078 125.619C176.692 124.284 178.805 122.059 181.42 118.943C182.088 118.165 182.838 117.775 183.673 117.775ZM156.971 66.2076C155.97 66.2076 154.857 67.654 153.634 70.5466C152.41 73.3837 151.214 77.2499 150.046 82.1452C148.933 86.9848 148.015 92.2695 147.292 97.9992C150.741 93.9384 153.578 89.5159 155.803 84.7319C158.084 79.9478 159.224 75.6088 159.224 71.7148C159.224 69.9347 159.03 68.5718 158.64 67.6262C158.251 66.6805 157.694 66.2076 156.971 66.2076ZM190.798 91.9914C188.462 91.9914 186.709 91.4629 185.541 90.406C184.373 89.2934 183.789 87.7636 183.789 85.8166C183.789 83.8696 184.54 82.2564 186.042 80.977C187.6 79.6419 189.519 78.9743 191.799 78.9743C193.858 78.9743 195.527 79.475 196.806 80.4763C198.085 81.4776 198.725 82.8961 198.725 84.7319C198.725 86.957 198.002 88.7371 196.556 90.0722C195.109 91.3517 193.19 91.9914 190.798 91.9914ZM182.788 136.8C181.008 136.8 179.784 136.438 179.116 135.715C178.449 134.992 178.115 133.852 178.115 132.294C178.115 131.849 178.171 131.07 178.282 129.958C179.172 119.778 180.646 110.516 182.704 102.171C183.149 100.447 183.872 99.2509 184.874 98.5833C185.931 97.8602 187.6 97.4986 189.88 97.4986C192.272 97.4986 193.468 98.4721 193.468 100.419C193.468 100.697 193.413 101.226 193.301 102.004C190.798 113.909 189.296 123.894 188.796 131.96C188.684 133.74 188.156 134.992 187.21 135.715C186.264 136.438 184.79 136.8 182.788 136.8Z" fill="#F8D1A6"/>
<mask id="path-3-outside-1_1181_4967" maskUnits="userSpaceOnUse" x="199.132" y="54.8086" width="253" height="86" fill="black">
<rect fill="white" x="199.132" y="54.8086" width="253" height="86"/>
<path d="M203.31 135.809V64.1002H217.489V92.8243L224.17 64.1002H238.594L230.567 96.9394L240.264 135.809H225.393L217.57 101.095V135.809H203.31ZM242.424 70.9451V58.8035H257.01V70.9451H242.424ZM242.424 135.809V74.6935H257.01V135.809H242.424ZM275.344 136.46C271.406 136.46 268.744 135.632 267.358 133.975C266 132.291 265.321 129.724 265.321 126.275V88.1795H261.206V77.0566H265.321V64.1002H279.5V77.0566H283.615V88.1795H279.5V122.852C279.5 123.857 279.663 124.563 279.989 124.971C280.315 125.378 280.94 125.582 281.863 125.582C282.515 125.582 283.099 125.528 283.615 125.419V135.36C283.289 135.469 282.271 135.673 280.559 135.972C278.848 136.298 277.11 136.46 275.344 136.46ZM306.676 136.46C299.831 136.46 294.969 134.709 292.09 131.205C289.238 127.701 287.812 122.553 287.812 115.763V96.9394C287.812 91.8329 288.355 87.582 289.441 84.1867C290.528 80.7914 292.429 78.2517 295.146 76.5677C297.862 74.8836 301.637 74.0416 306.472 74.0416C309.84 74.0416 312.855 74.6391 315.517 75.8343C318.206 77.0294 320.325 78.7814 321.873 81.0902C323.421 83.399 324.196 86.2238 324.196 89.5648V98.8951H309.324V90.3389C309.324 88.9265 309.12 87.7449 308.713 86.7943C308.306 85.8164 307.423 85.3275 306.065 85.3275C303.674 85.3275 302.479 87.0251 302.479 90.4204V120.041C302.479 121.29 302.751 122.445 303.294 123.504C303.837 124.536 304.734 125.052 305.983 125.052C307.26 125.052 308.143 124.55 308.632 123.545C309.148 122.513 309.406 121.318 309.406 119.959V109.692H324.196V120.367C324.196 123.735 323.435 126.628 321.914 129.045C320.42 131.435 318.356 133.269 315.721 134.546C313.086 135.822 310.071 136.46 306.676 136.46ZM329.288 135.809V64.1002H344.282V80.7642C345.07 78.4826 346.279 76.7985 347.908 75.712C349.538 74.5984 351.439 74.0416 353.612 74.0416C357.85 74.0416 360.933 75.3725 362.861 78.0344C364.79 80.6963 365.754 84.2682 365.754 88.7499V135.809H351.005V89.687C351.005 88.3561 350.72 87.2696 350.149 86.4276C349.606 85.5855 348.737 85.1645 347.542 85.1645C346.537 85.1645 345.735 85.5991 345.138 86.4683C344.567 87.3375 344.282 88.3697 344.282 89.5648V135.809H329.288ZM388.611 136.46C384.265 136.46 380.802 135.646 378.221 134.016C375.641 132.386 373.794 130.037 372.68 126.967C371.567 123.898 371.01 120.204 371.01 115.885V91.3168C371.01 85.6399 372.639 81.3482 375.899 78.4419C379.158 75.5083 383.64 74.0416 389.344 74.0416C401.078 74.0416 406.945 79.8 406.945 91.3168V95.7578C406.945 101.136 406.891 104.749 406.782 106.596H385.596V118.411C385.596 119.498 385.664 120.571 385.8 121.63C385.935 122.662 386.234 123.518 386.696 124.197C387.185 124.876 387.959 125.215 389.018 125.215C390.539 125.215 391.49 124.563 391.87 123.26C392.251 121.929 392.441 120.204 392.441 118.085V112.218H406.945V115.681C406.945 120.245 406.375 124.074 405.234 127.171C404.121 130.24 402.219 132.563 399.53 134.138C396.868 135.686 393.229 136.46 388.611 136.46ZM385.514 99.3432H392.441V91.1131C392.441 88.9129 392.169 87.3375 391.626 86.3868C391.083 85.409 390.268 84.9201 389.181 84.9201C388.013 84.9201 387.103 85.3818 386.452 86.3053C385.827 87.2288 385.514 88.8314 385.514 91.1131V99.3432ZM412.242 135.809V74.6935H426.828V82.4754C427.371 80.1395 428.377 78.1566 429.843 76.5269C431.337 74.87 433.402 74.0416 436.036 74.0416C440.274 74.0416 443.343 75.3454 445.244 77.9529C447.173 80.5605 448.137 84.1323 448.137 88.6685V135.809H433.755V90.176C433.755 88.9808 433.51 87.8807 433.021 86.8757C432.532 85.8436 431.69 85.3275 430.495 85.3275C429.382 85.3275 428.553 85.7213 428.01 86.509C427.494 87.2696 427.168 88.2339 427.032 89.4018C426.896 90.5426 426.828 91.6835 426.828 92.8243V135.809H412.242Z"/>
</mask>
<path d="M203.31 135.809V64.1002H217.489V92.8243L224.17 64.1002H238.594L230.567 96.9394L240.264 135.809H225.393L217.57 101.095V135.809H203.31ZM242.424 70.9451V58.8035H257.01V70.9451H242.424ZM242.424 135.809V74.6935H257.01V135.809H242.424ZM275.344 136.46C271.406 136.46 268.744 135.632 267.358 133.975C266 132.291 265.321 129.724 265.321 126.275V88.1795H261.206V77.0566H265.321V64.1002H279.5V77.0566H283.615V88.1795H279.5V122.852C279.5 123.857 279.663 124.563 279.989 124.971C280.315 125.378 280.94 125.582 281.863 125.582C282.515 125.582 283.099 125.528 283.615 125.419V135.36C283.289 135.469 282.271 135.673 280.559 135.972C278.848 136.298 277.11 136.46 275.344 136.46ZM306.676 136.46C299.831 136.46 294.969 134.709 292.09 131.205C289.238 127.701 287.812 122.553 287.812 115.763V96.9394C287.812 91.8329 288.355 87.582 289.441 84.1867C290.528 80.7914 292.429 78.2517 295.146 76.5677C297.862 74.8836 301.637 74.0416 306.472 74.0416C309.84 74.0416 312.855 74.6391 315.517 75.8343C318.206 77.0294 320.325 78.7814 321.873 81.0902C323.421 83.399 324.196 86.2238 324.196 89.5648V98.8951H309.324V90.3389C309.324 88.9265 309.12 87.7449 308.713 86.7943C308.306 85.8164 307.423 85.3275 306.065 85.3275C303.674 85.3275 302.479 87.0251 302.479 90.4204V120.041C302.479 121.29 302.751 122.445 303.294 123.504C303.837 124.536 304.734 125.052 305.983 125.052C307.26 125.052 308.143 124.55 308.632 123.545C309.148 122.513 309.406 121.318 309.406 119.959V109.692H324.196V120.367C324.196 123.735 323.435 126.628 321.914 129.045C320.42 131.435 318.356 133.269 315.721 134.546C313.086 135.822 310.071 136.46 306.676 136.46ZM329.288 135.809V64.1002H344.282V80.7642C345.07 78.4826 346.279 76.7985 347.908 75.712C349.538 74.5984 351.439 74.0416 353.612 74.0416C357.85 74.0416 360.933 75.3725 362.861 78.0344C364.79 80.6963 365.754 84.2682 365.754 88.7499V135.809H351.005V89.687C351.005 88.3561 350.72 87.2696 350.149 86.4276C349.606 85.5855 348.737 85.1645 347.542 85.1645C346.537 85.1645 345.735 85.5991 345.138 86.4683C344.567 87.3375 344.282 88.3697 344.282 89.5648V135.809H329.288ZM388.611 136.46C384.265 136.46 380.802 135.646 378.221 134.016C375.641 132.386 373.794 130.037 372.68 126.967C371.567 123.898 371.01 120.204 371.01 115.885V91.3168C371.01 85.6399 372.639 81.3482 375.899 78.4419C379.158 75.5083 383.64 74.0416 389.344 74.0416C401.078 74.0416 406.945 79.8 406.945 91.3168V95.7578C406.945 101.136 406.891 104.749 406.782 106.596H385.596V118.411C385.596 119.498 385.664 120.571 385.8 121.63C385.935 122.662 386.234 123.518 386.696 124.197C387.185 124.876 387.959 125.215 389.018 125.215C390.539 125.215 391.49 124.563 391.87 123.26C392.251 121.929 392.441 120.204 392.441 118.085V112.218H406.945V115.681C406.945 120.245 406.375 124.074 405.234 127.171C404.121 130.24 402.219 132.563 399.53 134.138C396.868 135.686 393.229 136.46 388.611 136.46ZM385.514 99.3432H392.441V91.1131C392.441 88.9129 392.169 87.3375 391.626 86.3868C391.083 85.409 390.268 84.9201 389.181 84.9201C388.013 84.9201 387.103 85.3818 386.452 86.3053C385.827 87.2288 385.514 88.8314 385.514 91.1131V99.3432ZM412.242 135.809V74.6935H426.828V82.4754C427.371 80.1395 428.377 78.1566 429.843 76.5269C431.337 74.87 433.402 74.0416 436.036 74.0416C440.274 74.0416 443.343 75.3454 445.244 77.9529C447.173 80.5605 448.137 84.1323 448.137 88.6685V135.809H433.755V90.176C433.755 88.9808 433.51 87.8807 433.021 86.8757C432.532 85.8436 431.69 85.3275 430.495 85.3275C429.382 85.3275 428.553 85.7213 428.01 86.509C427.494 87.2696 427.168 88.2339 427.032 89.4018C426.896 90.5426 426.828 91.6835 426.828 92.8243V135.809H412.242Z" fill="#F8D1A6"/>
<path d="M203.31 135.809H199.398V139.72H203.31V135.809ZM203.31 64.1002V60.1888H199.398V64.1002H203.31ZM217.489 64.1002H221.4V60.1888H217.489V64.1002ZM217.489 92.8243H213.577L221.298 93.7105L217.489 92.8243ZM224.17 64.1002V60.1888H221.065L220.361 63.2139L224.17 64.1002ZM238.594 64.1002L242.393 65.0288L243.576 60.1888H238.594V64.1002ZM230.567 96.9394L226.768 96.0107L226.538 96.949L226.772 97.8861L230.567 96.9394ZM240.264 135.809V139.72H245.271L244.059 134.862L240.264 135.809ZM225.393 135.809L221.577 136.668L222.265 139.72H225.393V135.809ZM217.57 101.095L221.386 100.235L213.659 101.095H217.57ZM217.57 135.809V139.72H221.481V135.809H217.57ZM207.221 135.809V64.1002H199.398V135.809H207.221ZM203.31 68.0115H217.489V60.1888H203.31V68.0115ZM213.577 64.1002V92.8243H221.4V64.1002H213.577ZM221.298 93.7105L227.98 64.9864L220.361 63.2139L213.679 91.9381L221.298 93.7105ZM224.17 68.0115H238.594V60.1888H224.17V68.0115ZM234.794 63.1715L226.768 96.0107L234.367 97.868L242.393 65.0288L234.794 63.1715ZM226.772 97.8861L236.469 136.755L244.059 134.862L234.362 95.9926L226.772 97.8861ZM240.264 131.897H225.393V139.72H240.264V131.897ZM229.208 134.949L221.386 100.235L213.754 101.955L221.577 136.668L229.208 134.949ZM213.659 101.095V135.809H221.481V101.095H213.659ZM217.57 131.897H203.31V139.72H217.57V131.897ZM242.424 70.9451H238.512V74.8564H242.424V70.9451ZM242.424 58.8035V54.8922H238.512V58.8035H242.424ZM257.01 58.8035H260.921V54.8922H257.01V58.8035ZM257.01 70.9451V74.8564H260.921V70.9451H257.01ZM242.424 135.809H238.512V139.72H242.424V135.809ZM242.424 74.6935V70.7821H238.512V74.6935H242.424ZM257.01 74.6935H260.921V70.7821H257.01V74.6935ZM257.01 135.809V139.72H260.921V135.809H257.01ZM246.335 70.9451V58.8035H238.512V70.9451H246.335ZM242.424 62.7149H257.01V54.8922H242.424V62.7149ZM253.098 58.8035V70.9451H260.921V58.8035H253.098ZM257.01 67.0337H242.424V74.8564H257.01V67.0337ZM246.335 135.809V74.6935H238.512V135.809H246.335ZM242.424 78.6048H257.01V70.7821H242.424V78.6048ZM253.098 74.6935V135.809H260.921V74.6935H253.098ZM257.01 131.897H242.424V139.72H257.01V131.897ZM267.358 133.975L264.314 136.431L264.336 136.457L264.358 136.484L267.358 133.975ZM265.321 88.1795H269.233V84.2682H265.321V88.1795ZM261.206 88.1795H257.295V92.0909H261.206V88.1795ZM261.206 77.0566V73.1452H257.295V77.0566H261.206ZM265.321 77.0566V80.9679H269.233V77.0566H265.321ZM265.321 64.1002V60.1888H261.41V64.1002H265.321ZM279.5 64.1002H283.411V60.1888H279.5V64.1002ZM279.5 77.0566H275.589V80.9679H279.5V77.0566ZM283.615 77.0566H287.526V73.1452H283.615V77.0566ZM283.615 88.1795V92.0909H287.526V88.1795H283.615ZM279.5 88.1795V84.2682H275.589V88.1795H279.5ZM283.615 125.419H287.526V120.598L282.809 121.592L283.615 125.419ZM283.615 135.36L284.852 139.071L287.526 138.18V135.36H283.615ZM280.559 135.972L279.887 132.118L279.857 132.124L279.827 132.129L280.559 135.972ZM275.344 132.549C271.674 132.549 270.575 131.724 270.359 131.466L264.358 136.484C266.913 139.54 271.138 140.372 275.344 140.372V132.549ZM270.403 131.52C269.854 130.839 269.233 129.328 269.233 126.275H261.41C261.41 130.121 262.147 133.744 264.314 136.431L270.403 131.52ZM269.233 126.275V88.1795H261.41V126.275H269.233ZM265.321 84.2682H261.206V92.0909H265.321V84.2682ZM265.118 88.1795V77.0566H257.295V88.1795H265.118ZM261.206 80.9679H265.321V73.1452H261.206V80.9679ZM269.233 77.0566V64.1002H261.41V77.0566H269.233ZM265.321 68.0115H279.5V60.1888H265.321V68.0115ZM275.589 64.1002V77.0566H283.411V64.1002H275.589ZM279.5 80.9679H283.615V73.1452H279.5V80.9679ZM279.704 77.0566V88.1795H287.526V77.0566H279.704ZM283.615 84.2682H279.5V92.0909H283.615V84.2682ZM275.589 88.1795V122.852H283.411V88.1795H275.589ZM275.589 122.852C275.589 124.039 275.733 125.912 276.935 127.414L283.043 122.527C283.206 122.731 283.303 122.914 283.356 123.037C283.41 123.159 283.429 123.239 283.433 123.256C283.438 123.274 283.431 123.252 283.424 123.179C283.417 123.107 283.411 123 283.411 122.852H275.589ZM276.935 127.414C278.415 129.265 280.624 129.493 281.863 129.493V121.671C281.66 121.671 281.712 121.645 281.915 121.711C282.14 121.784 282.62 121.998 283.043 122.527L276.935 127.414ZM281.863 129.493C282.725 129.493 283.586 129.422 284.421 129.246L282.809 121.592C282.612 121.633 282.305 121.671 281.863 121.671V129.493ZM279.704 125.419V135.36H287.526V125.419H279.704ZM282.378 131.65C282.477 131.617 282.498 131.617 282.356 131.65C282.241 131.676 282.072 131.713 281.84 131.759C281.376 131.852 280.729 131.971 279.887 132.118L281.232 139.825C282.792 139.552 284.177 139.296 284.852 139.071L282.378 131.65ZM279.827 132.129C278.361 132.409 276.868 132.549 275.344 132.549V140.372C277.352 140.372 279.336 140.186 281.291 139.814L279.827 132.129ZM292.09 131.205L289.056 133.674L289.062 133.681L289.068 133.688L292.09 131.205ZM315.517 75.8343L313.915 79.4025L313.922 79.4055L313.929 79.4085L315.517 75.8343ZM324.196 98.8951V102.806H328.107V98.8951H324.196ZM309.324 98.8951H305.413V102.806H309.324V98.8951ZM308.713 86.7943L305.103 88.2986L305.11 88.3169L305.118 88.335L308.713 86.7943ZM303.294 123.504L299.814 125.289L299.823 125.307L299.833 125.326L303.294 123.504ZM308.632 123.545L305.133 121.796L305.124 121.815L305.114 121.834L308.632 123.545ZM309.406 109.692V105.781H305.494V109.692H309.406ZM324.196 109.692H328.107V105.781H324.196V109.692ZM321.914 129.045L318.603 126.962L318.597 126.972L321.914 129.045ZM306.676 132.549C300.395 132.549 296.934 130.939 295.112 128.721L289.068 133.688C293.004 138.478 299.267 140.372 306.676 140.372V132.549ZM295.123 128.735C293.063 126.204 291.723 122.088 291.723 115.763H283.9C283.9 123.019 285.412 129.197 289.056 133.674L295.123 128.735ZM291.723 115.763V96.9394H283.9V115.763H291.723ZM291.723 96.9394C291.723 92.078 292.244 88.2616 293.167 85.3788L285.716 82.9946C284.466 86.9023 283.9 91.5877 283.9 96.9394H291.723ZM293.167 85.3788C294.005 82.7602 295.373 81.0285 297.207 79.8919L293.084 73.2434C289.485 75.4749 287.051 78.8226 285.716 82.9946L293.167 85.3788ZM297.207 79.8919C299.064 78.7406 302.019 77.9529 306.472 77.9529V70.1302C301.256 70.1302 296.66 71.0266 293.084 73.2434L297.207 79.8919ZM306.472 77.9529C309.373 77.9529 311.829 78.4659 313.915 79.4025L317.119 72.266C313.882 70.8124 310.308 70.1302 306.472 70.1302V77.9529ZM313.929 79.4085C315.985 80.3225 317.512 81.6088 318.625 83.2686L325.122 78.9117C323.138 75.954 320.427 73.7363 317.106 72.26L313.929 79.4085ZM318.625 83.2686C319.66 84.8126 320.284 86.8407 320.284 89.5648H328.107C328.107 85.607 327.183 81.9853 325.122 78.9117L318.625 83.2686ZM320.284 89.5648V98.8951H328.107V89.5648H320.284ZM324.196 94.9837H309.324V102.806H324.196V94.9837ZM313.236 98.8951V90.3389H305.413V98.8951H313.236ZM313.236 90.3389C313.236 88.5786 312.986 86.8342 312.308 85.2535L305.118 88.335C305.255 88.6557 305.413 89.2744 305.413 90.3389H313.236ZM312.324 85.2899C311.799 84.0303 310.894 82.9667 309.64 82.2725C308.453 81.6148 307.187 81.4161 306.065 81.4161V89.2389C306.301 89.2389 306.155 89.2846 305.85 89.1158C305.691 89.0278 305.527 88.9009 305.382 88.7359C305.238 88.5728 305.151 88.4149 305.103 88.2986L312.324 85.2899ZM306.065 81.4161C303.819 81.4161 301.627 82.2906 300.177 84.3491C298.905 86.1566 298.568 88.3833 298.568 90.4204H306.391C306.391 89.7885 306.448 89.3578 306.511 89.0859C306.575 88.8149 306.628 88.776 306.574 88.8523C306.503 88.9534 306.361 89.0904 306.17 89.1809C305.999 89.262 305.929 89.2389 306.065 89.2389V81.4161ZM298.568 90.4204V120.041H306.391V90.4204H298.568ZM298.568 120.041C298.568 121.879 298.973 123.65 299.814 125.289L306.775 121.719C306.529 121.24 306.391 120.701 306.391 120.041H298.568ZM299.833 125.326C300.404 126.411 301.253 127.382 302.422 128.055C303.576 128.719 304.816 128.964 305.983 128.964V121.141C305.901 121.141 306.068 121.127 306.326 121.276C306.598 121.433 306.728 121.63 306.755 121.682L299.833 125.326ZM305.983 128.964C307.128 128.964 308.374 128.737 309.538 128.075C310.733 127.394 311.595 126.394 312.149 125.256L305.114 121.834C305.14 121.782 305.196 121.685 305.298 121.572C305.403 121.457 305.53 121.355 305.668 121.276C305.949 121.116 306.115 121.141 305.983 121.141V128.964ZM312.13 125.294C312.962 123.631 313.317 121.818 313.317 119.959H305.494C305.494 120.817 305.334 121.395 305.133 121.796L312.13 125.294ZM313.317 119.959V109.692H305.494V119.959H313.317ZM309.406 113.603H324.196V105.781H309.406V113.603ZM320.284 109.692V120.367H328.107V109.692H320.284ZM320.284 120.367C320.284 123.132 319.666 125.273 318.603 126.962L325.224 131.128C327.204 127.982 328.107 124.338 328.107 120.367H320.284ZM318.597 126.972C317.509 128.713 316.015 130.057 314.015 131.026L317.426 138.065C320.697 136.481 323.331 134.158 325.231 131.118L318.597 126.972ZM314.015 131.026C311.991 132.007 309.575 132.549 306.676 132.549V140.372C310.568 140.372 314.181 139.638 317.426 138.065L314.015 131.026ZM329.288 135.809H325.377V139.72H329.288V135.809ZM329.288 64.1002V60.1888H325.377V64.1002H329.288ZM344.282 64.1002H348.193V60.1888H344.282V64.1002ZM344.282 80.7642H340.371L347.979 82.0407L344.282 80.7642ZM347.908 75.712L350.078 78.9665L350.097 78.9541L350.115 78.9414L347.908 75.712ZM365.754 135.809V139.72H369.665V135.809H365.754ZM351.005 135.809H347.093V139.72H351.005V135.809ZM350.149 86.4276L346.862 88.548L346.886 88.5849L346.911 88.6212L350.149 86.4276ZM345.138 86.4683L341.915 84.2524L341.891 84.2871L341.868 84.3223L345.138 86.4683ZM344.282 135.809V139.72H348.193V135.809H344.282ZM333.2 135.809V64.1002H325.377V135.809H333.2ZM329.288 68.0115H344.282V60.1888H329.288V68.0115ZM340.371 64.1002V80.7642H348.193V64.1002H340.371ZM347.979 82.0407C348.554 80.3758 349.312 79.477 350.078 78.9665L345.739 72.4576C343.245 74.1201 341.585 76.5894 340.585 79.4878L347.979 82.0407ZM350.115 78.9414C351.029 78.3167 352.144 77.9529 353.612 77.9529V70.1302C350.735 70.1302 348.047 70.8801 345.701 72.4826L350.115 78.9414ZM353.612 77.9529C356.996 77.9529 358.708 78.9685 359.694 80.3292L366.029 75.7396C363.157 71.7766 358.703 70.1302 353.612 70.1302V77.9529ZM359.694 80.3292C360.991 82.1196 361.842 84.7984 361.842 88.7499H369.665C369.665 83.7379 368.588 79.273 366.029 75.7396L359.694 80.3292ZM361.842 88.7499V135.809H369.665V88.7499H361.842ZM365.754 131.897H351.005V139.72H365.754V131.897ZM354.916 135.809V89.687H347.093V135.809H354.916ZM354.916 89.687C354.916 87.8125 354.513 85.8961 353.387 84.2339L346.911 88.6212C346.926 88.643 347.093 88.8996 347.093 89.687H354.916ZM353.436 84.3071C352.025 82.1204 349.769 81.2531 347.542 81.2531V89.0759C347.686 89.0759 347.593 89.1012 347.385 89.0004C347.281 88.9502 347.173 88.8799 347.073 88.7906C346.974 88.702 346.906 88.6148 346.862 88.548L353.436 84.3071ZM347.542 81.2531C345.175 81.2531 343.199 82.3843 341.915 84.2524L348.361 88.6842C348.365 88.6784 348.273 88.8084 348.052 88.9287C347.823 89.0529 347.622 89.0759 347.542 89.0759V81.2531ZM341.868 84.3223C340.819 85.9203 340.371 87.7242 340.371 89.5648H348.193C348.193 89.0151 348.316 88.7547 348.408 88.6143L341.868 84.3223ZM340.371 89.5648V135.809H348.193V89.5648H340.371ZM344.282 131.897H329.288V139.72H344.282V131.897ZM375.899 78.4418L378.502 81.3612L378.509 81.3552L378.516 81.3491L375.899 78.4418ZM406.782 106.596V110.507H410.471L410.687 106.825L406.782 106.596ZM385.596 106.596V102.684H381.685V106.596H385.596ZM385.8 121.63L381.92 122.127L381.922 122.14L385.8 121.63ZM386.696 124.197L383.462 126.396L383.491 126.44L383.522 126.482L386.696 124.197ZM391.87 123.26L395.625 124.355L395.628 124.344L395.631 124.334L391.87 123.26ZM392.441 112.218V108.307H388.529V112.218H392.441ZM406.945 112.218H410.857V108.307H406.945V112.218ZM405.234 127.171L401.564 125.819L401.561 125.828L401.557 125.837L405.234 127.171ZM399.53 134.138L401.497 137.519L401.507 137.513L399.53 134.138ZM385.514 99.3432H381.603V103.255H385.514V99.3432ZM392.441 99.3432V103.255H396.352V99.3432H392.441ZM391.626 86.3868L388.207 88.2863L388.218 88.3069L388.23 88.3274L391.626 86.3868ZM386.452 86.3053L383.256 84.0497L383.234 84.0815L383.212 84.1138L386.452 86.3053ZM388.611 132.549C384.706 132.549 382.054 131.81 380.31 130.709L376.133 137.323C379.55 139.481 383.824 140.372 388.611 140.372V132.549ZM380.31 130.709C378.516 129.576 377.197 127.948 376.357 125.633L369.003 128.301C370.391 132.125 372.766 135.196 376.133 137.323L380.31 130.709ZM376.357 125.633C375.44 123.105 374.921 119.887 374.921 115.885H367.098C367.098 120.521 367.694 124.691 369.003 128.301L376.357 125.633ZM374.921 115.885V91.3168H367.098V115.885H374.921ZM374.921 91.3168C374.921 86.3998 376.308 83.318 378.502 81.3612L373.296 75.5225C368.971 79.3784 367.098 84.8799 367.098 91.3168H374.921ZM378.516 81.3491C380.862 79.237 384.308 77.9529 389.344 77.9529V70.1302C382.972 70.1302 377.455 71.7796 373.282 75.5346L378.516 81.3491ZM389.344 77.9529C394.627 77.9529 397.866 79.2488 399.805 81.1518C401.731 83.0416 403.034 86.18 403.034 91.3168H410.857C410.857 84.9367 409.227 79.4375 405.285 75.5689C401.357 71.7135 395.796 70.1302 389.344 70.1302V77.9529ZM403.034 91.3168V95.7578H410.857V91.3168H403.034ZM403.034 95.7578C403.034 101.152 402.979 104.652 402.878 106.366L410.687 106.825C410.804 104.845 410.857 101.119 410.857 95.7578H403.034ZM406.782 102.684H385.596V110.507H406.782V102.684ZM381.685 106.596V118.411H389.507V106.596H381.685ZM381.685 118.411C381.685 119.661 381.763 120.9 381.92 122.127L389.679 121.132C389.565 120.241 389.507 119.334 389.507 118.411H381.685ZM381.922 122.14C382.116 123.62 382.577 125.095 383.462 126.396L389.93 121.997C389.892 121.94 389.754 121.704 389.678 121.12L381.922 122.14ZM383.522 126.482C384.939 128.451 387.073 129.127 389.018 129.127V121.304C388.897 121.304 388.998 121.284 389.214 121.379C389.461 121.487 389.701 121.677 389.87 121.911L383.522 126.482ZM389.018 129.127C390.32 129.127 391.779 128.847 393.084 127.952C394.432 127.028 395.229 125.712 395.625 124.355L388.115 122.164C388.118 122.154 388.149 122.055 388.245 121.915C388.345 121.767 388.486 121.62 388.66 121.501C389.015 121.257 389.238 121.304 389.018 121.304V129.127ZM395.631 124.334C396.149 122.521 396.352 120.397 396.352 118.085H388.529C388.529 120.011 388.352 121.337 388.11 122.185L395.631 124.334ZM396.352 118.085V112.218H388.529V118.085H396.352ZM392.441 116.13H406.945V108.307H392.441V116.13ZM403.034 112.218V115.681H410.857V112.218H403.034ZM403.034 115.681C403.034 119.947 402.497 123.286 401.564 125.819L408.904 128.523C410.253 124.863 410.857 120.542 410.857 115.681H403.034ZM401.557 125.837C400.739 128.093 399.415 129.672 397.553 130.763L401.507 137.513C405.023 135.453 407.502 132.388 408.911 128.505L401.557 125.837ZM397.564 130.757C395.725 131.826 392.857 132.549 388.611 132.549V140.372C393.6 140.372 398.011 139.546 401.497 137.519L397.564 130.757ZM385.514 103.255H392.441V95.4319H385.514V103.255ZM396.352 99.3432V91.1131H388.529V99.3432H396.352ZM396.352 91.1131C396.352 88.7911 396.101 86.334 395.022 84.4462L388.23 88.3274C388.197 88.2702 388.292 88.4193 388.383 88.946C388.469 89.4498 388.529 90.1592 388.529 91.1131H396.352ZM395.045 84.4873C394.5 83.5055 393.712 82.5883 392.62 81.9328C391.521 81.2737 390.33 81.0087 389.181 81.0087V88.8314C389.119 88.8314 388.878 88.8108 388.595 88.6407C388.465 88.5629 388.366 88.4767 388.298 88.4025C388.231 88.3307 388.205 88.2836 388.207 88.2863L395.045 84.4873ZM389.181 81.0087C386.793 81.0087 384.669 82.0476 383.256 84.0497L389.647 88.561C389.651 88.5558 389.632 88.5832 389.584 88.6255C389.535 88.6689 389.47 88.7151 389.393 88.7543C389.225 88.8396 389.123 88.8314 389.181 88.8314V81.0087ZM383.212 84.1138C381.884 86.0763 381.603 88.719 381.603 91.1131H389.426C389.426 90.1326 389.494 89.4275 389.588 88.9482C389.686 88.444 389.777 88.3695 389.691 88.4969L383.212 84.1138ZM381.603 91.1131V99.3432H389.426V91.1131H381.603ZM412.242 135.809H408.331V139.72H412.242V135.809ZM412.242 74.6935V70.7821H408.331V74.6935H412.242ZM426.828 74.6935H430.74V70.7821H426.828V74.6935ZM426.828 82.4754H422.917L430.638 83.3614L426.828 82.4754ZM429.843 76.5269L426.938 73.9077L426.936 73.9103L429.843 76.5269ZM445.244 77.9529L442.084 80.2574L442.092 80.2681L442.1 80.2787L445.244 77.9529ZM448.137 135.809V139.72H452.048V135.809H448.137ZM433.755 135.809H429.843V139.72H433.755V135.809ZM433.021 86.8757L429.486 88.5501L429.495 88.5685L429.504 88.5868L433.021 86.8757ZM428.01 86.509L424.79 84.2884L424.782 84.3006L424.773 84.3128L428.01 86.509ZM427.032 89.4018L430.916 89.8642L430.917 89.8536L427.032 89.4018ZM426.828 135.809V139.72H430.74V135.809H426.828ZM416.153 135.809V74.6935H408.331V135.809H416.153ZM412.242 78.6048H426.828V70.7821H412.242V78.6048ZM422.917 74.6935V82.4754H430.74V74.6935H422.917ZM430.638 83.3614C431.046 81.6074 431.767 80.2367 432.751 79.1435L426.936 73.9103C424.986 76.0766 423.697 78.6716 423.019 81.5895L430.638 83.3614ZM432.748 79.1461C433.365 78.4617 434.29 77.9529 436.036 77.9529V70.1302C432.513 70.1302 429.309 71.2783 426.938 73.9077L432.748 79.1461ZM436.036 77.9529C439.453 77.9529 441.139 78.9621 442.084 80.2574L448.405 75.6485C445.546 71.7286 441.095 70.1302 436.036 70.1302V77.9529ZM442.1 80.2787C443.366 81.9917 444.226 84.6444 444.226 88.6684H452.048C452.048 83.6203 450.979 79.1294 448.389 75.6271L442.1 80.2787ZM444.226 88.6684V135.809H452.048V88.6684H444.226ZM448.137 131.897H433.755V139.72H448.137V131.897ZM437.666 135.809V90.176H429.843V135.809H437.666ZM437.666 90.176C437.666 88.43 437.305 86.7393 436.538 85.1646L429.504 88.5868C429.716 89.0222 429.843 89.5317 429.843 90.176H437.666ZM436.556 85.2013C436.039 84.1087 435.232 83.0939 434.067 82.3797C432.913 81.6724 431.662 81.4161 430.495 81.4161V89.2389C430.523 89.2389 430.291 89.2407 429.979 89.0494C429.656 88.8513 429.515 88.6106 429.486 88.5501L436.556 85.2013ZM430.495 81.4161C428.338 81.4161 426.191 82.2567 424.79 84.2884L431.23 88.7297C431.129 88.8753 430.951 89.0447 430.718 89.1554C430.507 89.2555 430.397 89.2389 430.495 89.2389V81.4161ZM424.773 84.3128C423.819 85.7193 423.336 87.3267 423.147 88.9501L430.917 89.8536C431 89.141 431.169 88.8199 431.246 88.7053L424.773 84.3128ZM423.148 88.9395C422.994 90.2326 422.917 91.5278 422.917 92.8243H430.74C430.74 91.8391 430.798 90.8527 430.916 89.8642L423.148 88.9395ZM422.917 92.8243V135.809H430.74V92.8243H422.917ZM426.828 131.897H412.242V139.72H426.828V131.897Z" fill="#CD431F" mask="url(#path-3-outside-1_1181_4967)"/>
</svg>
