<svg width="152" height="185" viewBox="0 0 152 185" fill="none" xmlns="http://www.w3.org/2000/svg">
<g filter="url(#filter0_dddd_1181_4947)">
<circle cx="76" cy="60" r="56" fill="white"/>
<g clip-path="url(#clip0_1181_4947)">
<path d="M115.441 40.0202C114.969 38.2767 114.049 36.6873 112.772 35.4101C111.495 34.1329 109.906 33.2126 108.162 32.7407C101.779 31 76.0911 31 76.0911 31C76.0911 31 50.4015 31.0527 44.0187 32.7934C42.2753 33.2653 40.6858 34.1857 39.4087 35.4629C38.1316 36.7402 37.2113 38.3297 36.7396 40.0732C34.809 51.4141 34.0601 68.6949 36.7926 79.5821C37.2644 81.3256 38.1847 82.915 39.4618 84.1922C40.7389 85.4694 42.3283 86.3897 44.0718 86.8615C50.4545 88.6023 76.1435 88.6023 76.1435 88.6023C76.1435 88.6023 101.832 88.6023 108.215 86.8615C109.958 86.3897 111.547 85.4694 112.825 84.1922C114.102 82.9151 115.022 81.3256 115.494 79.5821C117.53 68.2252 118.158 50.9549 115.441 40.0202Z" fill="#FF0000"/>
<path d="M67.9131 72.1397L89.2235 59.7964L67.9131 47.4531V72.1397Z" fill="white"/>
</g>
</g>
<defs>
<filter id="filter0_dddd_1181_4947" x="0" y="0" width="152" height="185" filterUnits="userSpaceOnUse" color-interpolation-filters="sRGB">
<feFlood flood-opacity="0" result="BackgroundImageFix"/>
<feColorMatrix in="SourceAlpha" type="matrix" values="0 0 0 0 0 0 0 0 0 0 0 0 0 0 0 0 0 0 127 0" result="hardAlpha"/>
<feOffset dy="3"/>
<feGaussianBlur stdDeviation="3.5"/>
<feColorMatrix type="matrix" values="0 0 0 0 0 0 0 0 0 0 0 0 0 0 0 0 0 0 0.1 0"/>
<feBlend mode="normal" in2="BackgroundImageFix" result="effect1_dropShadow_1181_4947"/>
<feColorMatrix in="SourceAlpha" type="matrix" values="0 0 0 0 0 0 0 0 0 0 0 0 0 0 0 0 0 0 127 0" result="hardAlpha"/>
<feOffset dy="12"/>
<feGaussianBlur stdDeviation="6"/>
<feColorMatrix type="matrix" values="0 0 0 0 0 0 0 0 0 0 0 0 0 0 0 0 0 0 0.09 0"/>
<feBlend mode="normal" in2="effect1_dropShadow_1181_4947" result="effect2_dropShadow_1181_4947"/>
<feColorMatrix in="SourceAlpha" type="matrix" values="0 0 0 0 0 0 0 0 0 0 0 0 0 0 0 0 0 0 127 0" result="hardAlpha"/>
<feOffset dy="28"/>
<feGaussianBlur stdDeviation="8.5"/>
<feColorMatrix type="matrix" values="0 0 0 0 0 0 0 0 0 0 0 0 0 0 0 0 0 0 0.05 0"/>
<feBlend mode="normal" in2="effect2_dropShadow_1181_4947" result="effect3_dropShadow_1181_4947"/>
<feColorMatrix in="SourceAlpha" type="matrix" values="0 0 0 0 0 0 0 0 0 0 0 0 0 0 0 0 0 0 127 0" result="hardAlpha"/>
<feOffset dy="49"/>
<feGaussianBlur stdDeviation="10"/>
<feColorMatrix type="matrix" values="0 0 0 0 0 0 0 0 0 0 0 0 0 0 0 0 0 0 0.01 0"/>
<feBlend mode="normal" in2="effect3_dropShadow_1181_4947" result="effect4_dropShadow_1181_4947"/>
<feBlend mode="normal" in="SourceGraphic" in2="effect4_dropShadow_1181_4947" result="shape"/>
</filter>
<clipPath id="clip0_1181_4947">
<rect width="82.266" height="57.832" fill="white" transform="translate(35 31)"/>
</clipPath>
</defs>
</svg>
