<svg width="446" height="511" viewBox="0 0 446 511" fill="none" xmlns="http://www.w3.org/2000/svg">
<g opacity="0.3">
<path d="M221.746 510.934H217.326V451.749L239.009 428.835V73.4084L217.909 51.1161V0H222.329V49.1841L243.429 71.4764V430.767L221.746 453.681V510.934ZM362.529 373.573H358.109V295.793L303.808 238.408V120.601L279.969 95.4075V53.9752H284.389V93.4756L308.229 118.669V236.476L362.529 293.861V373.573Z" fill="white"/>
<path d="M361.878 338.517L358.754 335.215L394.722 297.204V216.295L350.666 169.743V128.687H355.086V167.811L399.137 214.363V299.136L361.878 338.517Z" fill="white"/>
<path d="M351.123 282.777H346.703V232.289L379.836 197.269L382.96 200.571L351.123 234.221V282.777ZM398.49 271.718L395.366 268.416L422.148 240.113V204.231H426.569V242.045L398.49 271.718ZM272.005 470.046H267.59V412.123L292.544 385.745V107.735H296.964V387.677L272.005 414.055V470.046Z" fill="white"/>
<path d="M346.41 391.416H341.995V335.999L293.196 284.428L296.32 281.127L346.41 334.067V391.416ZM196.679 495.526H192.259V465.649L176.502 448.991V76.2674L192.338 62.2891V15.4077H196.758V64.4723L180.922 78.4505V447.059L196.679 463.717V495.526Z" fill="white"/>
<path d="M137.89 134.382H133.475V97.19L192.988 34.2907L196.112 37.5924L137.89 99.1219V134.382ZM88.0211 380.613H83.6064V252.345L116.032 218.072L119.156 221.374L88.0211 254.277V380.613Z" fill="white"/>
<path d="M115.381 96.7354H119.802V414.198H115.381V96.7354ZM3.12422 293.233L0 289.931L50.5818 236.476V165.215H55.0022V238.408L3.12422 293.233ZM61.8449 153.318H66.2652V357.621H61.8449V153.318Z" fill="white"/>
<path d="M27.0781 318.549L62.4881 281.126L65.6138 284.429L30.2038 321.852L27.0781 318.549Z" fill="white"/>
<path d="M103.676 234.431L81.6541 211.152V132.384H86.0744V209.22L106.801 231.129L103.676 234.431ZM411.243 252.608H415.663V318.235H411.243V252.608ZM431.98 300.985H427.566V266.455L441.585 251.639V224.765H446V253.571L431.98 268.387V300.985ZM23.0862 194.272H27.5065V266.496H23.0862V194.272ZM7.80469 210.422H12.225V282.777H7.80469V210.422ZM39.0639 249.623H43.4842V306.858H39.0639V249.623ZM338.186 269.104H333.765V172.572L320.431 158.48V96.7355H324.851V156.548L338.186 170.64V269.104ZM253.124 25.606H257.544V485.334H253.124V25.606ZM217.977 454.369L197.313 432.531V84.3482L206.448 72.1942V2.7395H210.868V73.8212L201.733 85.9811V430.599L221.095 451.067L217.977 454.369Z" fill="white"/>
</g>
<path d="M224.435 130.075H229.127V264.433H224.435V130.075ZM237.464 157.984H242.156V292.341H237.464V157.984ZM249.887 107.143H254.585V241.5H249.887V107.143ZM263.216 176.412H267.914V310.776H263.216V176.412ZM102.517 156.698C82.6225 147.714 59.6097 157.481 51.1086 178.506C42.6132 199.53 51.8501 223.856 71.75 232.834C91.6443 241.812 114.657 232.05 123.158 211.026C131.654 189.996 122.411 165.676 102.517 156.698ZM77.4777 218.652C64.9922 213.018 59.1908 197.753 64.5224 184.559C69.854 171.364 84.2978 165.233 96.7834 170.873C109.269 176.508 115.07 191.772 109.733 204.967C104.407 218.161 89.9577 224.292 77.4777 218.652Z" fill="#A9E8EF"/>
<path d="M93.6019 178.745C85.231 174.965 75.5527 179.074 71.9757 187.92C68.3987 196.766 72.287 206.994 80.6579 210.775C89.0231 214.555 98.707 210.446 102.284 201.599C105.861 192.759 101.967 182.525 93.6019 178.745ZM104.639 170.491L90.2286 163.989L102.544 138.383L113.626 143.383L104.639 170.491ZM83.5953 222.552L69.1571 216.134L60.3051 243.289L71.4097 248.23L83.5953 222.552ZM113.83 191.641L108.883 175.928L135.185 168.696L138.994 180.784L113.83 191.641ZM109.381 216.965L114.639 201.366L139.582 212.778L135.536 224.783L109.381 216.965ZM58.4091 192.4L63.9727 176.921L37.9828 168.529L33.704 180.438L58.4091 192.4ZM69.1401 171.466L83.301 164.378L70.057 139.298L59.1618 144.753L69.1401 171.466ZM104.616 218.114L90.3305 224.92L103.127 250.263L114.119 245.024L104.616 218.114ZM58.8562 197.7L63.5199 213.508L37.0942 220.213L33.5059 208.053L58.8562 197.7Z" fill="#A9E8EF"/>
<path d="M393.566 342.71C393.566 357.125 312.122 368.812 211.654 368.812C111.198 368.812 29.7529 357.131 29.7529 342.71C29.7529 328.289 111.198 316.608 211.654 316.608C312.122 316.608 393.566 328.289 393.566 342.71Z" fill="#D0CFD9"/>
<path d="M312.264 324.868C312.264 329.826 308.172 333.846 303.118 333.846H94.5984C89.5498 333.846 85.4521 329.826 85.4521 324.868V195.367C85.4521 190.408 89.5498 186.383 94.5984 186.383H303.123C308.172 186.383 312.27 190.408 312.27 195.367V324.868H312.264Z" fill="#FFE9BA"/>
<path d="M96.4492 202.473H300.622V326.321H96.4492V202.473Z" fill="#725559"/>
<path d="M100.423 310.71V328.516H100.621C102.8 333.265 123.09 336.998 147.813 336.998C172.529 336.998 192.825 333.271 194.999 328.516H195.202V310.71H100.423Z" fill="#F3A43D"/>
<path d="M117.674 311.272V334.863C122.462 335.64 128.043 336.238 134.15 336.603V311.272H117.674ZM137.245 315.513V336.759C138.587 336.818 139.945 336.872 141.321 336.908V315.513H137.245Z" fill="#FED150"/>
<path d="M195.207 310.71C195.207 315.142 173.988 318.743 147.817 318.743C121.646 318.743 100.428 315.148 100.428 310.71C100.428 306.278 121.646 302.677 147.817 302.677C173.988 302.677 195.207 306.278 195.207 310.71Z" fill="#FFE984"/>
<path d="M183.718 311.201C183.718 314.556 167.644 317.283 147.812 317.283C127.98 317.283 111.912 314.556 111.912 311.201C111.912 307.839 127.98 305.118 147.812 305.118C167.644 305.112 183.718 307.839 183.718 311.201Z" fill="#F3A43D"/>
<path d="M147.813 317.284C165.661 317.284 180.13 314.831 180.13 311.805C180.13 308.779 165.661 306.326 147.813 306.326C129.964 306.326 115.495 308.779 115.495 311.805C115.495 314.831 129.964 317.284 147.813 317.284Z" fill="#FED150"/>
<path d="M95.7695 288.807V306.613H95.9733C98.1523 311.362 118.443 315.094 143.165 315.094C167.881 315.094 188.177 311.368 190.357 306.613H190.555V288.807H95.7695Z" fill="#F3A43D"/>
<path d="M113.021 289.369V312.959C117.815 313.737 123.396 314.329 129.497 314.694V289.369H113.021ZM132.599 293.61V314.855C133.935 314.915 135.293 314.963 136.668 315.005V293.61H132.599Z" fill="#FED150"/>
<path d="M190.55 288.807C190.55 293.239 169.331 296.84 143.16 296.84C116.983 296.84 95.7646 293.239 95.7646 288.807C95.7646 284.369 116.983 280.774 143.16 280.774C169.337 280.774 190.55 284.369 190.55 288.807Z" fill="#FFE984"/>
<path d="M179.066 289.291C179.066 292.653 162.992 295.374 143.16 295.374C123.328 295.374 107.248 292.653 107.248 289.291C107.248 285.936 123.322 283.208 143.16 283.208C162.992 283.208 179.066 285.93 179.066 289.291Z" fill="#F3A43D"/>
<path d="M175.472 289.901C175.472 292.928 161.011 295.374 143.16 295.374C125.309 295.374 110.848 292.928 110.848 289.901C110.848 286.875 125.309 284.422 143.16 284.422C161.011 284.422 175.472 286.875 175.472 289.901Z" fill="#FED150"/>
<path d="M89.9521 266.897V284.703H90.1559C92.3293 289.459 112.62 293.185 137.348 293.185C162.07 293.185 182.36 289.459 184.539 284.703H184.743V266.897H89.9521Z" fill="#F3A43D"/>
<path d="M107.202 267.465V291.056C111.99 291.839 117.571 292.431 123.678 292.796V267.471H107.202V267.465ZM126.779 271.706V292.952C128.115 293.011 129.474 293.065 130.849 293.101V271.706H126.779Z" fill="#FED150"/>
<path d="M184.743 266.897C184.743 271.335 163.519 274.93 137.348 274.93C111.171 274.93 89.9521 271.335 89.9521 266.897C89.9521 262.459 111.165 258.864 137.348 258.864C163.519 258.87 184.743 262.465 184.743 266.897Z" fill="#FFE984"/>
<path d="M173.248 267.388C173.248 270.749 157.174 273.477 137.347 273.477C117.515 273.477 101.441 270.755 101.441 267.388C101.441 264.026 117.515 261.305 137.347 261.305C157.174 261.299 173.248 264.026 173.248 267.388Z" fill="#F3A43D"/>
<path d="M169.659 267.992C169.659 271.018 155.192 273.471 137.347 273.471C119.496 273.471 105.029 271.018 105.029 267.992C105.029 264.971 119.496 262.519 137.347 262.519C155.192 262.519 169.659 264.971 169.659 267.992Z" fill="#FED150"/>
<path d="M100.416 243.504V261.311H100.62C102.793 266.066 123.084 269.792 147.811 269.792C172.534 269.792 192.824 266.066 195.003 261.311H195.207V243.504H100.416Z" fill="#F3A43D"/>
<path d="M117.668 244.066V267.657C122.456 268.434 128.042 269.032 134.144 269.397V244.066H117.668ZM137.245 248.307V269.553C138.587 269.613 139.939 269.666 141.315 269.702V248.307H137.245Z" fill="#FED150"/>
<path d="M195.207 243.504C195.207 247.936 173.982 251.537 147.811 251.537C121.635 251.537 100.416 247.942 100.416 243.504C100.416 239.066 121.629 235.471 147.811 235.471C173.982 235.477 195.207 239.072 195.207 243.504Z" fill="#FFE984"/>
<path d="M183.712 243.995C183.712 247.356 167.639 250.078 147.812 250.078C127.98 250.078 111.906 247.356 111.906 243.995C111.906 240.633 127.98 237.912 147.812 237.912C167.639 237.906 183.712 240.633 183.712 243.995Z" fill="#F3A43D"/>
<path d="M180.125 244.599C180.125 247.625 165.658 250.078 147.813 250.078C129.962 250.078 115.495 247.625 115.495 244.599C115.495 241.578 129.962 239.126 147.813 239.126C165.658 239.126 180.125 241.578 180.125 244.599Z" fill="#FED150"/>
<path d="M197.799 309.616V327.422H198.003C200.176 332.177 220.466 335.903 245.194 335.903C269.916 335.903 290.201 332.177 292.386 327.422H292.59V309.616H197.799Z" fill="#F3A43D"/>
<path d="M215.051 310.178V333.768C219.845 334.546 225.425 335.144 231.532 335.509V310.178H215.051ZM234.628 314.418V335.664C235.964 335.724 237.322 335.778 238.698 335.814V314.418H234.628Z" fill="#FED150"/>
<path d="M292.595 309.616C292.595 314.054 271.371 317.648 245.2 317.648C219.023 317.648 197.805 314.054 197.805 309.616C197.805 305.177 219.023 301.583 245.2 301.583C271.365 301.583 292.595 305.177 292.595 309.616Z" fill="#FFE984"/>
<path d="M281.101 310.1C281.101 313.461 265.027 316.183 245.201 316.183C225.369 316.183 209.295 313.461 209.295 310.1C209.295 306.738 225.369 304.017 245.201 304.017C265.027 304.017 281.101 306.738 281.101 310.1Z" fill="#F3A43D"/>
<path d="M277.512 310.71C277.512 313.737 263.046 316.189 245.2 316.189C227.349 316.189 212.883 313.737 212.883 310.71C212.883 307.69 227.349 305.237 245.2 305.237C263.046 305.231 277.512 307.684 277.512 310.71Z" fill="#FED150"/>
<path d="M209.295 289.07V306.876H209.499C211.672 311.631 231.963 315.358 256.69 315.358C281.412 315.358 301.703 311.631 303.882 306.876H304.086V289.07H209.295Z" fill="#F3A43D"/>
<path d="M226.547 289.638V313.228C231.341 314.006 236.921 314.604 243.028 314.963V289.638H226.547ZM246.124 293.879V315.124C247.46 315.184 248.818 315.238 250.194 315.274V293.879H246.124Z" fill="#FED150"/>
<path d="M304.086 289.07C304.086 293.508 282.861 297.103 256.69 297.103C230.514 297.103 209.295 293.508 209.295 289.07C209.295 284.638 230.514 281.037 256.69 281.037C282.861 281.043 304.086 284.638 304.086 289.07Z" fill="#FFE984"/>
<path d="M292.591 289.56C292.591 292.922 276.517 295.649 256.685 295.649C236.859 295.649 220.779 292.928 220.779 289.56C220.779 286.205 236.853 283.477 256.685 283.477C276.517 283.477 292.591 286.199 292.591 289.56Z" fill="#F3A43D"/>
<path d="M289.003 290.17C289.003 293.197 274.536 295.649 256.691 295.649C238.845 295.649 224.373 293.197 224.373 290.17C224.373 287.15 238.84 284.698 256.691 284.698C274.536 284.692 289.003 287.144 289.003 290.17Z" fill="#FED150"/>
<path d="M61.4268 326.321H333.913V341.376H61.4268V326.321Z" fill="#EFCD92"/>
<path d="M361.007 338.439L363.208 343.41L358.409 344.289L355.879 337.787L361.007 338.439Z" fill="#FFD9A7"/>
<path d="M357.492 342.662C357.492 342.662 360.508 344.337 362.28 341.095C362.28 341.095 368.63 347.603 363.729 350.743C358.833 353.883 348.815 356.401 346.71 354.463C343.682 351.676 351.453 346.066 357.492 342.662Z" fill="#E66254"/>
<path d="M323.153 341.035L323.414 346.514L318.654 345.408L318.643 338.374L323.153 341.035Z" fill="#FFD9A7"/>
<path d="M347.09 240.041C347.09 240.041 349.835 252.608 336.8 264.062L321.02 293.837C321.02 293.837 327.224 325.143 324.445 339.283C323.375 344.702 317.494 342.501 316.821 340.425C312.112 325.825 303.113 296.558 307.793 279.936C311.795 265.749 320.37 256.759 320.37 256.759L347.09 240.041Z" fill="#52456B"/>
<path d="M318.393 343.535C318.393 343.535 320.583 346.293 323.379 343.996C323.379 343.996 326.928 352.561 321.268 353.506C315.614 354.451 305.438 352.776 304.181 350.145C302.376 346.353 311.579 344.271 318.393 343.535Z" fill="#E66254"/>
<path d="M346.998 235.388C346.998 235.388 354.039 245.921 346.076 261.741L342.131 295.607C342.131 295.607 359.088 322.098 361.578 336.304C362.529 341.747 356.292 342.064 354.933 340.413C345.346 328.786 326.532 305.291 324.919 288.035C323.544 273.303 328.259 261.55 328.259 261.55L346.998 235.388Z" fill="#675781"/>
<path d="M321.676 203.615C323.012 202.592 325.785 201.061 326.804 204.817C327.817 208.574 317.126 227.917 313.832 230.848C310.538 233.779 288.792 240.011 288.792 240.011C288.792 240.011 286.438 239.742 288.153 236.728L308.817 226.87C308.817 226.87 317.063 207.162 321.676 203.615Z" fill="#4CAE7A"/>
<path d="M340.119 203.232C345.258 207.766 349.373 218.371 350.228 252.608C350.414 260.138 317.319 258.559 317.455 251.029C317.817 230.991 310.714 217.384 320.353 204.375C320.358 204.375 329.931 194.248 340.119 203.232Z" fill="#5AD192"/>
<path d="M331.518 190.378C331.518 190.378 329.532 195.971 331.518 199.554C332.786 201.833 323.26 209.489 323.464 206.42C323.73 202.461 325.507 200.038 323.481 195.588L331.518 190.378Z" fill="#EFC18F"/>
<path d="M323.194 180.886C320.171 184.206 317.415 198.286 320.885 201.169C322.396 202.419 328.305 200.601 331.797 194.302C333.234 191.712 334.932 186.921 332.306 182.316C331.117 180.228 326.708 177.016 323.194 180.886Z" fill="#FFD9A8"/>
<path d="M318.031 182.507C318.031 182.507 319.65 184.9 324.648 185.438C329.64 185.976 330.477 185.587 330.03 186.861C328.717 190.612 332.436 190.594 330.834 195.068C329.226 199.548 332.424 195.528 332.866 194.853C333.307 194.171 337.416 188.608 334.286 182.405C331.156 176.197 322.253 178.757 318.031 182.507Z" fill="#9B4D34"/>
<path d="M326.317 241.237V257.979H326.124C324.081 262.447 305.002 265.952 281.757 265.952C258.512 265.952 239.439 262.447 237.39 257.979H237.197V241.237H326.317Z" fill="#F3A43D"/>
<path d="M310.103 241.764V263.942C305.597 264.678 300.351 265.234 294.612 265.575V241.764H310.103ZM291.691 245.753V265.725C290.435 265.785 289.161 265.832 287.865 265.868V245.753H291.691Z" fill="#FED150"/>
<path d="M237.197 241.237C237.197 245.412 257.154 248.786 281.757 248.786C306.366 248.786 326.317 245.406 326.317 241.237C326.317 237.068 306.366 233.689 281.757 233.689C257.154 233.683 237.197 237.062 237.197 241.237Z" fill="#FFE984"/>
<path d="M248.002 241.692C248.002 244.856 263.114 247.416 281.757 247.416C300.401 247.416 315.512 244.856 315.512 241.692C315.512 238.534 300.401 235.974 281.757 235.974C263.119 235.974 248.002 238.534 248.002 241.692Z" fill="#F3A43D"/>
<path d="M251.375 242.266C251.375 245.113 264.976 247.416 281.757 247.416C298.538 247.416 312.139 245.107 312.139 242.266C312.139 239.425 298.538 237.122 281.757 237.122C264.981 237.116 251.375 239.419 251.375 242.266Z" fill="#FED150"/>
<path d="M321.908 254.779C321.908 254.779 312.632 257.985 315.575 258.834C318.512 259.678 321.037 260.264 324.302 256.508L321.908 254.779Z" fill="#EFC18F"/>
<path d="M334.479 208.143C335.045 206.504 336.89 203.22 339.363 206.121C343.286 210.733 343.489 231.003 342.301 235.376C341.112 239.748 324.031 257.118 324.031 257.118C324.031 257.118 321.529 257.01 321.529 254.402L336.245 233.181C336.245 233.187 332.515 213.801 334.479 208.143Z" fill="#4CAE7A"/>
<path d="M142.684 247.643C143.652 246.567 145.243 242.374 145.243 242.374C145.243 242.374 147.042 246.471 148.061 247.494C149.08 248.511 153.053 250.197 153.053 250.197C153.053 250.197 149.171 252.099 148.208 253.176C147.246 254.253 145.65 258.446 145.65 258.446C145.65 258.446 143.85 254.348 142.832 253.326C141.818 252.309 137.845 250.622 137.845 250.622C137.845 250.622 141.717 248.72 142.684 247.643ZM164.197 220.889C165.16 219.812 166.756 215.62 166.756 215.62C166.756 215.62 168.561 219.717 169.574 220.74C170.593 221.756 174.561 223.443 174.561 223.443C174.561 223.443 170.684 225.351 169.721 226.422C168.754 227.498 167.163 231.691 167.163 231.691C167.163 231.691 165.363 227.594 164.345 226.571C163.326 225.548 159.358 223.868 159.358 223.868C159.358 223.868 163.235 221.96 164.197 220.889ZM112.291 267.812C113.253 266.736 114.849 262.543 114.849 262.543C114.849 262.543 116.649 266.64 117.668 267.663C118.687 268.68 122.654 270.366 122.654 270.366C122.654 270.366 118.777 272.268 117.809 273.345C116.847 274.422 115.251 278.614 115.251 278.614C115.251 278.614 113.451 274.517 112.433 273.494C111.419 272.478 107.446 270.791 107.446 270.791C107.446 270.791 111.329 268.883 112.291 267.812ZM119.898 300.464C120.866 299.387 122.456 295.195 122.456 295.195C122.456 295.195 124.262 299.292 125.275 300.315C126.294 301.331 130.261 303.018 130.261 303.018C130.261 303.018 126.378 304.92 125.416 305.997C124.454 307.073 122.858 311.266 122.858 311.266C122.858 311.266 121.058 307.169 120.039 306.146C119.021 305.13 115.053 303.443 115.053 303.443C115.053 303.443 118.93 301.535 119.898 300.464Z" fill="#F7F7FC"/>
<g clip-path="url(#clip0_582_6534)">
<path d="M398.892 274.158H399.845L399.304 273.374C397.046 270.102 393.333 268.246 388.572 268.246H374.137C373.32 268.246 372.605 267.532 372.605 266.583V258.517C372.605 257.569 373.32 256.854 374.137 256.854H424.241C425.057 256.854 425.772 257.569 425.772 258.517V265.727C425.772 266.676 425.057 267.39 424.241 267.39H411.894H411.029L411.46 268.14C412.45 269.861 413.246 271.752 413.825 273.795L413.928 274.158H414.306H424.241C425.057 274.158 425.772 274.873 425.772 275.822V283.032C425.772 283.98 425.057 284.695 424.241 284.695H415.301H414.844L414.803 285.15C413.61 298.349 404.549 307.337 391.872 307.75L390.705 307.788L391.538 308.607L417.077 333.712C417.599 334.224 417.697 334.948 417.473 335.56C417.249 336.17 416.729 336.607 416.05 336.607H402.075C401.7 336.607 401.333 336.457 401.048 336.177L373.11 308.715C372.792 308.403 372.605 307.956 372.605 307.482V297.926C372.605 296.978 373.32 296.263 374.137 296.263H388.355C391.991 296.263 395.012 295.218 397.265 293.299C399.517 291.38 400.961 288.624 401.503 285.275L401.597 284.695H401.009H374.137C373.32 284.695 372.605 283.98 372.605 283.032V275.822C372.605 274.873 373.32 274.158 374.137 274.158H398.892Z" fill="#F3A43D" stroke="#F3A43D"/>
<path d="M393.694 294.751L401.94 305.913C404.114 305.056 406.306 303.231 408.302 301.282L399.463 289.794L393.694 294.751ZM400.056 288.64L409.216 300.251C409.704 299.876 410.069 299.279 410.422 298.778L400.714 286.665L400.056 288.64Z" fill="#FED150"/>
</g>
<defs>
<clipPath id="clip0_582_6534">
<rect width="54.1663" height="92.2894" fill="white" transform="translate(372.105 250.586)"/>
</clipPath>
</defs>
</svg>
