<svg width="83" height="24" viewBox="0 0 83 24" fill="none" xmlns="http://www.w3.org/2000/svg">
<path d="M68.9814 20.0001H66.0789V10.6532H68.9814V20.0001ZM67.5286 9.37818C66.6005 9.37818 65.8477 8.60943 65.8477 7.6813C65.8477 7.23549 66.0248 6.80794 66.34 6.4927C66.6552 6.17746 67.0828 6.00037 67.5286 6.00037C67.9744 6.00037 68.402 6.17746 68.7172 6.4927C69.0324 6.80794 69.2095 7.23549 69.2095 7.6813C69.2095 8.60943 68.4564 9.37818 67.5286 9.37818ZM79.8445 20.0001H76.9483V15.4501C76.9483 14.3657 76.9264 12.9751 75.4392 12.9751C73.9302 12.9751 73.6989 14.1532 73.6989 15.3719V20.0001H70.7995V10.6532H73.5833V11.9282H73.6239C74.0114 11.1938 74.958 10.4188 76.3702 10.4188C79.3077 10.4188 79.8477 12.3532 79.8477 14.8657V20.0001H79.8445Z" fill="white"/>
<g clip-path="url(#clip0_582_5381)">
<path d="M47.2791 10.7411C47.2893 10.8833 47.2893 11.0254 47.2893 11.1675C47.2893 15.5025 43.9898 20.4975 37.9594 20.4975C36.1015 20.4975 34.3756 19.9594 32.9238 19.0254C33.1878 19.0558 33.4416 19.066 33.7157 19.066C35.2487 19.066 36.6599 18.5483 37.7868 17.665C36.3451 17.6345 35.137 16.6904 34.7208 15.3909C34.9238 15.4213 35.1269 15.4416 35.3401 15.4416C35.6345 15.4416 35.9289 15.401 36.203 15.33C34.7005 15.0254 33.5735 13.7056 33.5735 12.1117V12.0711C34.0101 12.3148 34.5177 12.467 35.0558 12.4873C34.1725 11.8985 33.5939 10.8934 33.5939 9.75634C33.5939 9.14722 33.7563 8.58884 34.0405 8.10153C35.6548 10.0914 38.0812 11.3908 40.802 11.533C40.7512 11.2893 40.7207 11.0356 40.7207 10.7818C40.7207 8.97463 42.1827 7.50256 43.9999 7.50256C44.9441 7.50256 45.7969 7.8985 46.3959 8.53809C47.137 8.39597 47.8476 8.12184 48.4771 7.74622C48.2334 8.50766 47.7156 9.14725 47.0355 9.55331C47.6954 9.48228 48.335 9.2995 48.9238 9.04572C48.4771 9.69544 47.9187 10.2741 47.2791 10.7411Z" fill="white"/>
</g>
<path d="M12.7227 15L13.167 12.1044H10.3886V10.2253C10.3886 9.43313 10.7767 8.66094 12.0211 8.66094H13.2842V6.19563C13.2842 6.19563 12.138 6 11.042 6C8.75391 6 7.25828 7.38688 7.25828 9.8975V12.1044H4.71484V15H7.25828V22H10.3886V15H12.7227Z" fill="white"/>
<defs>
<clipPath id="clip0_582_5381">
<rect width="16" height="16" fill="white" transform="translate(32.9238 6)"/>
</clipPath>
</defs>
</svg>
