<svg width="2783" height="2783" viewBox="0 0 2783 2783" fill="none" xmlns="http://www.w3.org/2000/svg">
<path d="M2630.45 826.654C2595.41 767.129 2538.97 720.23 2473.78 697.296C2445.69 687.504 2411.93 682.866 2389 701.677C2366.07 720.488 2374.05 768.675 2403.69 767.902C2312.21 704.511 2201.92 668.693 2090.6 665.858C2062.77 665.085 2031.08 668.178 2013.55 689.823C1995.77 711.469 2010.72 754.244 2038.03 749.348C1954.03 695.492 1843.22 711.984 1749.17 745.483C1721.85 755.275 1694.8 766.098 1667.74 776.921C1638.11 788.774 1646.87 832.839 1678.82 832.581L2630.45 826.654ZM239.905 519.493C204.86 527.997 169.3 498.879 176.772 474.398C184.245 449.918 218.26 433.169 252.532 423.119C330.095 400.443 422.089 400.7 499.394 423.892C481.356 414.615 482.902 395.031 497.075 383.436C511.505 371.84 534.439 366.686 556.6 363.851C662.251 350.452 777.952 381.374 840.054 440.126C819.697 425.696 830.777 399.927 855.257 389.105C879.738 378.282 912.206 378.282 941.324 381.889C1066.56 396.835 1172.73 442.445 1196.69 525.935L239.905 519.493Z" fill="#CCE9FF"/>
<path d="M182.956 2472.75C283.711 2278.97 394.516 2090.34 514.855 1908.16C563.299 1834.72 617.929 1758.44 699.357 1724.69C770.736 1695.05 854.226 1703.81 924.574 1736.28C994.664 1768.75 1052.9 1823.12 1101.09 1883.68C1142.58 1935.47 1186.9 1997.83 1253.12 2003.24C1323.73 2009.17 1379.65 1947.33 1423.19 1891.15C1566.21 1706.91 1709.23 1522.4 1852.24 1338.16C1899.65 1277.09 1958.15 1210.35 2035.2 1210.6C2104.26 1210.86 2160.17 1265.49 2203.21 1319.61C2455.74 1636.3 2554.17 2045.25 2645.65 2439.51L182.956 2472.75Z" fill="#F7F7F7"/>
<path d="M2518.61 2105.55C2620.51 2105.55 2703.12 2022.94 2703.12 1921.04C2703.12 1819.15 2620.51 1736.54 2518.61 1736.54C2416.72 1736.54 2334.11 1819.15 2334.11 1921.04C2334.11 2022.94 2416.72 2105.55 2518.61 2105.55Z" fill="#CCEEFF"/>
<path d="M2517.58 2430.23C2514.75 2429.71 2512.95 2427.14 2512.95 2424.3V1977.73C2512.95 1974.64 2515.27 1971.81 2518.36 1971.81C2521.71 1971.55 2524.28 1974.13 2524.28 1977.48V2424.82C2524.28 2428.17 2521.19 2431 2517.58 2430.23Z" fill="#B6EAFF"/>
<path d="M2518.62 2014.84C2517.07 2014.84 2515.78 2014.33 2514.49 2013.29C2512.17 2010.98 2512.17 2007.37 2514.49 2005.31L2565 1954.8C2567.32 1952.48 2570.93 1952.48 2572.99 1954.8C2575.31 1957.12 2575.31 1960.73 2572.99 1962.79L2522.74 2013.29C2521.45 2014.33 2520.16 2014.84 2518.62 2014.84ZM2518.62 2061.74C2517.07 2061.74 2515.78 2061.22 2514.49 2060.19C2512.17 2057.87 2512.17 2054.27 2514.49 2052.21L2565 2001.7C2567.32 1999.38 2570.93 1999.38 2572.99 2001.7C2575.31 2004.02 2575.31 2007.63 2572.99 2009.69L2522.74 2060.19C2521.45 2061.22 2520.16 2061.74 2518.62 2061.74Z" fill="#B6EAFF"/>
<path d="M400.701 2127.71C558.529 2127.71 686.473 1999.76 686.473 1841.93C686.473 1684.11 558.529 1556.16 400.701 1556.16C242.873 1556.16 114.928 1684.11 114.928 1841.93C114.928 1999.76 242.873 2127.71 400.701 2127.71Z" fill="#B0E1FF"/>
<path d="M400.7 2406.52C397.092 2406.52 394.258 2403.69 394.258 2400.08V1841.93C394.258 1838.33 397.092 1835.49 400.7 1835.49C404.308 1835.49 407.142 1838.33 407.142 1841.93V2399.82C407.4 2403.43 404.308 2406.52 400.7 2406.52Z" fill="#CCEEFF"/>
<path d="M400.7 1996.29C399.154 1996.29 397.351 1995.77 396.062 1994.48L316.18 1914.6C313.603 1912.02 313.603 1907.9 316.18 1905.32C318.757 1902.75 322.88 1902.75 325.456 1905.32L405.339 1985.46C407.916 1988.04 407.916 1992.16 405.339 1994.74C404.05 1995.77 402.504 1996.29 400.7 1996.29ZM400.7 2070.76C399.154 2070.76 397.351 2070.24 396.062 2068.95L316.18 1989.07C313.603 1986.5 313.603 1982.37 316.18 1979.8C318.757 1977.22 322.88 1977.22 325.456 1979.8L405.339 2059.68C407.916 2062.25 407.916 2066.38 405.339 2068.95C404.05 2069.99 402.504 2070.76 400.7 2070.76Z" fill="#CCEEFF"/>
<path d="M230.628 2376.12H2597.98C2635.35 2376.12 2665.5 2406.26 2665.5 2443.63V2528.15C2665.5 2565.51 2635.35 2595.66 2597.98 2595.66H230.628C193.263 2595.66 163.114 2565.51 163.114 2528.15V2443.63C163.114 2406.52 193.263 2376.12 230.628 2376.12Z" fill="#F2F2F2"/>
<path d="M1835.23 1239.21C2052.41 1239.21 2228.46 1063.15 2228.46 845.981C2228.46 628.807 2052.41 452.753 1835.23 452.753C1618.06 452.753 1442.01 628.807 1442.01 845.981C1442.01 1063.15 1618.06 1239.21 1835.23 1239.21Z" stroke="#FFBE55" stroke-miterlimit="10"/>
<path d="M1773.9 1300.54C1855.08 1340.22 1831.37 1416.24 1831.37 1416.24C1831.37 1416.24 1786.02 1481.69 1704.59 1442.01C1623.42 1402.32 1537.09 1272.45 1537.09 1272.45C1537.09 1272.45 1692.73 1260.85 1773.9 1300.54Z" fill="#2A94F4"/>
<path d="M1773.9 1300.54C1855.08 1340.22 1831.37 1416.24 1831.37 1416.24L1537.09 1272.45C1537.09 1272.45 1692.73 1260.85 1773.9 1300.54Z" fill="#CCE9FF"/>
<path d="M1903.26 1725.98C1822.09 1765.66 1845.8 1841.68 1845.8 1841.68C1845.8 1841.68 1891.15 1907.13 1972.58 1867.44C2053.75 1827.76 2140.08 1697.89 2140.08 1697.89C2140.08 1697.89 1984.69 1686.29 1903.26 1725.98Z" fill="#2A94F4"/>
<path d="M1903.26 1725.98C1822.09 1765.66 1845.8 1841.68 1845.8 1841.68L2140.08 1697.89C2140.08 1697.89 1984.69 1686.29 1903.26 1725.98ZM2091.12 2402.4C1987.78 2531.5 1831.37 2472.75 1831.37 2472.75C1831.37 2472.75 1739.63 2333.08 1842.96 2203.72C1946.3 2074.37 2234.13 1968.97 2234.13 1968.97C2234.13 1968.97 2194.45 2273.04 2091.12 2402.4Z" fill="#CCE9FF"/>
<path d="M2091.11 2402.4C1987.78 2531.5 1831.37 2472.75 1831.37 2472.75L2234.13 1968.97C2234.13 1968.97 2194.45 2273.04 2091.11 2402.4Z" fill="#2A94F4"/>
<path d="M1581.16 2402.4C1684.49 2531.5 1840.9 2472.75 1840.9 2472.75C1840.9 2472.75 1932.64 2333.08 1829.31 2203.72C1725.98 2074.62 1438.14 1968.97 1438.14 1968.97C1438.14 1968.97 1477.82 2273.04 1581.16 2402.4Z" fill="#CCE9FF"/>
<path d="M1581.16 2402.4C1684.49 2531.5 1840.9 2472.75 1840.9 2472.75L1438.14 1968.97C1438.14 1968.97 1477.82 2273.04 1581.16 2402.4Z" fill="#2A94F4"/>
<path d="M1321.41 1386.35L1247.45 1410.05L1236.63 1404.9L1215.76 1384.28L1217.82 1350.53L1258.79 1349.5L1321.41 1386.35Z" fill="#FCD2B1"/>
<path d="M1075.06 953.435C1075.06 953.435 1049.81 1245.13 1258.53 1349.5C1250.03 1359.55 1214.99 1375.52 1214.99 1375.52C1214.99 1375.52 1010.64 1251.58 1017.86 1113.97C1025.07 976.369 1075.06 953.435 1075.06 953.435Z" fill="#1D87D6"/>
<path d="M679.516 2283.35C679.516 2283.35 706.83 2409.61 726.93 2466.56C729.249 2473.26 720.745 2478.67 715.849 2473.78C682.092 2440.54 635.194 2373.28 619.733 2357.82C600.406 2338.49 570.772 2302.42 570.772 2302.42L641.636 2240.06L688.277 2263.51L679.516 2283.35Z" fill="#0B4870"/>
<path d="M933.078 2376.12C933.078 2376.12 1045.69 2438.99 1101.86 2461.92C1108.56 2464.76 1107.02 2474.55 1099.8 2475.07C1052.64 2478.42 970.958 2469.14 949.312 2470.43C922.255 2472.23 875.356 2470.43 875.356 2470.43V2376.12L923.801 2356.53L933.078 2376.12Z" fill="#083751"/>
<path d="M1047.23 1284.05C1047.23 1284.05 1036.41 1847.6 1030.23 1860.23C1024.04 1872.6 933.078 2376.37 933.078 2376.37H875.356C875.356 2376.37 885.664 1849.92 908.34 1830.34C908.34 1783.95 892.621 1288.68 936.685 1253.38C1001.11 1249.52 1047.23 1284.05 1047.23 1284.05Z" fill="#083751"/>
<path d="M851.908 1229.67C768.675 1291 751.926 1577.55 836.704 1798.9C781.302 1898.37 615.61 2292.88 615.61 2292.88L664.571 2322.26C664.571 2322.26 1002.4 1857.65 989.512 1809.72C976.627 1761.79 1001.11 1249.26 1001.11 1249.26L851.908 1229.67Z" fill="#0B4870"/>
<path d="M1090.78 888.756C1092.59 895.714 1094.9 902.671 1097.74 909.371C1115.78 952.147 1140.51 1040.53 1138.71 1055.22C1136.65 1071.2 1080.22 1125.57 1065.27 1167.06C1050.33 1208.54 1047.75 1284.05 1047.75 1284.05L852.423 1229.67C852.423 1229.67 906.794 1095.68 908.856 1035.12C910.917 974.565 931.79 849.33 1008.84 836.704C1067.59 826.912 1085.63 869.172 1090.78 888.756Z" fill="#2A94F4"/>
<path d="M1150.31 633.133C1153.91 624.114 1152.63 613.806 1146.96 605.818C1117.58 565.877 1064.76 543.458 1015.79 552.219C961.423 562.011 915.813 608.91 907.567 663.539C904.475 684.67 906.279 706.315 901.898 727.188C896.744 751.668 882.572 774.344 862.73 789.547C837.992 808.616 806.039 815.831 778.467 830.777C750.637 845.98 727.703 868.657 708.119 893.652C688.535 918.648 671.528 946.735 666.116 978.173C660.705 1009.61 668.435 1044.4 691.885 1065.79C706.83 1079.44 726.157 1086.4 745.226 1092.84C783.363 1105.73 823.304 1117.32 863.245 1112.94C903.186 1108.56 943.643 1084.85 956.012 1046.46C973.277 992.346 930.759 935.397 938.489 879.222C943.901 841.085 971.731 809.647 1002.65 786.713C1033.58 763.779 1068.62 746.256 1098 721.519C1119.9 703.223 1140.77 656.324 1150.31 633.133Z" fill="#0B4870"/>
<path d="M1097.48 794.959C1087.69 815.058 1078.67 867.884 1087.17 890.302C1094.9 912.463 1092.07 916.071 1092.07 916.071L1006.26 845.723L1026.1 749.091L1097.48 794.959Z" fill="#FCD2B1"/>
<path d="M1167.31 713.788C1167.31 763.521 1154.43 814.285 1113.2 814.285C1071.97 814.285 1017.86 763.521 1017.86 713.788C1017.86 664.055 1051.36 623.598 1092.59 623.598C1133.81 623.598 1167.31 664.055 1167.31 713.788Z" fill="#FFE3CA"/>
<path d="M1162.93 614.579C1177.62 613.291 1187.67 629.01 1180.46 641.636C1166.28 667.147 1141.03 692.658 1082.28 685.443C1055.48 682.093 1012.7 685.443 1010.13 703.481L989.511 654.52C989.511 654.52 994.664 623.598 999.818 623.598H1055.99L1162.93 614.579Z" fill="#0B4870"/>
<path d="M1051.36 680.289C1043.63 695.75 1039.5 723.322 1029.19 728.476C1016.31 721.003 1000.33 682.093 1001.36 682.35C1002.4 682.608 1015.28 674.877 1017.86 674.877C1020.43 674.877 1051.36 680.289 1051.36 680.289Z" fill="#0B4870"/>
<path d="M1032.03 753.204C1039.3 749.937 1040.93 737.818 1035.68 726.135C1030.43 714.452 1020.28 707.63 1013.01 710.897C1005.75 714.164 1004.11 726.283 1009.36 737.966C1014.61 749.648 1024.76 756.471 1032.03 753.204Z" fill="#FFE3CA"/>
<path d="M1025.33 769.448C1032.73 769.448 1038.73 763.449 1038.73 756.048C1038.73 748.648 1032.73 742.649 1025.33 742.649C1017.93 742.649 1011.93 748.648 1011.93 756.048C1011.93 763.449 1017.93 769.448 1025.33 769.448Z" fill="#FFBE55"/>
<path d="M1236.37 1682.17L1076.35 1540.7C1070.68 1535.8 1070.17 1527.04 1075.06 1521.37L1174.27 1398.97C1179.17 1393.3 1187.93 1392.79 1193.6 1397.68L1363.67 1547.91C1369.34 1552.81 1369.85 1561.57 1364.96 1567.24L1255.7 1680.88C1250.55 1686.55 1242.04 1687.06 1236.37 1682.17Z" fill="#2A94F4"/>
<path d="M1393.82 1727.78L1247.45 1660.01L1285.33 1616.2L1405.93 1696.34L1407.73 1697.63L1393.82 1727.78ZM1335.07 1405.93C1353.1 1421.39 1359.03 1449.99 1351.56 1486.59L1338.16 1552.81L1188.96 1423.71L1254.93 1400.78C1288.94 1388.67 1317.29 1390.47 1335.07 1405.93ZM1343.57 1396.14C1322.96 1378.36 1290.49 1374.49 1250.55 1388.41L1163.71 1418.81L1346.66 1576.78L1364.44 1488.91C1372.95 1446.39 1364.44 1414.18 1343.57 1396.14Z" fill="#2A94F4"/>
<path d="M1393.82 1727.78C1384.54 1710.51 1394.08 1701.24 1405.93 1696.34L1407.73 1697.63L1393.82 1727.78Z" fill="#2286D1"/>
<path d="M964.774 907.052C961.166 1024.04 1008.58 1323.99 1097.48 1442.26C1112.69 1434.28 1129.18 1425.26 1129.18 1425.26C1129.18 1425.26 1015.8 1164.48 1052.13 945.447C1055.99 918.39 1052.13 899.064 1043.88 885.664C1022.24 849.33 966.062 865.049 964.774 907.052Z" fill="#49B0FC"/>
<path d="M1097.48 1442.52C1097.48 1442.52 1122.99 1495.35 1129.18 1501.02C1135.1 1506.69 1178.91 1530.13 1191.28 1534.77C1203.65 1539.15 1174.53 1512.61 1174.53 1512.61C1174.53 1512.61 1197.21 1527.04 1207.77 1532.71C1209.32 1533.48 1210.61 1531.68 1209.57 1530.39C1201.59 1520.86 1182 1505.4 1182 1505.4C1182 1505.4 1212.67 1523.69 1226.32 1530.91C1227.87 1531.68 1229.16 1529.88 1228.13 1528.59C1218.34 1519.31 1196.17 1502.05 1192.31 1499.99C1208.54 1506.94 1220.14 1513.64 1227.35 1516.99C1228.39 1517.51 1229.16 1516.22 1228.39 1515.45C1214.21 1502.56 1153.91 1459.79 1150.82 1459.01C1138.45 1456.18 1126.86 1426.8 1126.86 1426.8L1097.48 1442.52Z" fill="#FCD2B1"/>
<path d="M1247.45 1410.05L1236.63 1404.9L1235.34 1403.1C1235.34 1403.1 1264.46 1373.46 1271.93 1370.11C1276.83 1368.05 1297.44 1376.04 1310.59 1381.45C1314.45 1383 1314.19 1388.67 1310.07 1389.95L1247.45 1410.05Z" fill="#FFE4D2"/>
<path d="M1827.76 1059.6H1842.71V2475.84H1827.76V1059.6Z" fill="#2A94F4"/>
<path d="M1556.42 488.056C1524.72 488.056 1499.21 513.824 1499.21 545.262C1499.21 513.567 1473.44 488.056 1442.01 488.056C1473.7 488.056 1499.21 462.287 1499.21 430.85C1498.95 462.287 1524.72 488.056 1556.42 488.056Z" fill="#FFBE55"/>
<path d="M1583.73 488.056C1536.83 488.056 1498.95 525.935 1498.95 572.834C1498.95 525.935 1461.07 488.056 1414.18 488.056C1461.07 488.056 1498.95 450.176 1498.95 403.277C1498.95 450.176 1537.09 488.056 1583.73 488.056Z" stroke="#FFBE55" stroke-miterlimit="10"/>
<path d="M2306.54 953.435C2288.24 953.435 2273.3 968.381 2273.3 986.419C2273.3 968.123 2258.35 953.435 2240.31 953.435C2258.61 953.435 2273.3 938.489 2273.3 920.451C2273.3 938.489 2288.24 953.435 2306.54 953.435Z" fill="#FFBE55"/>
<path d="M2322.26 953.435C2295.2 953.435 2273.3 975.339 2273.3 1002.4C2273.3 975.339 2251.39 953.435 2224.34 953.435C2251.39 953.435 2273.3 931.532 2273.3 904.475C2273.3 931.532 2295.2 953.435 2322.26 953.435Z" stroke="#FFBE55" stroke-width="0.75" stroke-miterlimit="10"/>
<path d="M1427.58 1712.06L1785.5 1880.33M1407.73 1745.04L1639.65 2187.75M1480.4 1788.34L1785.5 2187.75M1551.01 1817.45L1793.75 2000.93" stroke="#CCE9FF" stroke-miterlimit="10" stroke-dasharray="12 12"/>
<path d="M1777.51 1107.53H1891.67V1164.48C1891.67 1195.92 1866.16 1221.43 1834.72 1221.43C1803.28 1221.43 1777.77 1195.92 1777.77 1164.48V1107.53H1777.51Z" fill="#0E538C"/>
<path d="M1835.23 1166.03C2011.99 1166.03 2155.28 1022.74 2155.28 845.98C2155.28 669.225 2011.99 525.936 1835.23 525.936C1658.48 525.936 1515.19 669.225 1515.19 845.98C1515.19 1022.74 1658.48 1166.03 1835.23 1166.03Z" fill="#FFBE55"/>
<path d="M1835.23 1086.14C1967.87 1086.14 2075.4 978.619 2075.4 845.98C2075.4 713.342 1967.87 605.818 1835.23 605.818C1702.6 605.818 1595.07 713.342 1595.07 845.98C1595.07 978.619 1702.6 1086.14 1835.23 1086.14Z" stroke="#F7F7F7" stroke-miterlimit="10"/>
<path d="M1897.55 771.071C1900.25 771.071 1902.44 767.942 1902.44 764.083V740.787C1902.44 736.928 1900.25 733.799 1897.55 733.799H1776.88C1774.18 733.799 1771.99 736.928 1771.99 740.787V766.848C1771.99 770.707 1774.18 773.836 1776.88 773.836H1811.65C1822.78 773.836 1831.32 779.636 1836.5 789.707H1776.88C1774.18 789.707 1771.99 792.836 1771.99 796.696V819.991C1771.99 823.851 1774.18 826.98 1776.88 826.98H1841.6C1839.07 847.995 1828.16 861.126 1811.12 861.126H1776.88C1774.18 861.126 1771.99 864.255 1771.99 868.114V898.987C1771.99 900.938 1772.56 902.8 1773.56 904.123L1840.85 992.852C1841.75 994.043 1842.94 994.705 1844.17 994.705H1877.82C1882.28 994.705 1884.41 986.897 1881.14 982.581L1819.63 901.47C1850.82 900.107 1873.1 870.373 1876.02 826.98H1897.55C1900.25 826.98 1902.44 823.851 1902.44 819.991V796.696C1902.44 792.836 1900.25 789.707 1897.55 789.707H1873.62C1872.2 782.986 1870.25 776.752 1867.81 771.071H1897.55Z" fill="white"/>
</svg>
