<svg width="175" height="46" viewBox="0 0 175 46" fill="none" xmlns="http://www.w3.org/2000/svg">
<rect y="6" width="33.61" height="33.61" rx="9" fill="#6251A3"/>
<path d="M11.2203 12H6V33.6971H11.2203C11.6381 31.7384 12.1674 30.756 13.777 29.4632C13.9197 29.3487 14.0767 29.251 14.2428 29.1741C16.2472 28.2458 17.4997 28.2523 19.5491 29.1494C19.7603 29.2418 19.9576 29.3662 20.1311 29.5179C21.5622 30.7694 22.0548 31.7606 22.4767 33.6971H27.6971V12H22.4767V24.5615C17.9271 22.3417 15.46 22.3982 11.2203 24.5615V12Z" fill="#5AD192"/>
<path d="M51.2472 30.4062L47.3267 11.9472H53.3708L56.2132 27.0411L58.6961 16.0637C59.4149 12.8293 60.9504 11.4572 63.3027 11.4572C65.655 11.4572 67.1905 12.8293 67.9093 16.0637L70.3923 27.0411L73.2346 11.9472H79.2787L75.3582 30.4062C74.8028 33.0525 73.0386 34.5227 70.6536 34.5227C68.4974 34.5227 66.5698 33.0852 66.0144 30.6676L63.3027 18.7428L60.591 30.6676C60.0356 33.0852 58.1081 34.5227 55.9518 34.5227C53.5668 34.5227 51.8026 33.0525 51.2472 30.4062ZM83.53 34L89.2147 15.443C90.0315 12.7313 92.3184 11.4572 94.6054 11.4572C96.8923 11.4572 99.1793 12.7313 99.9961 15.443L105.681 34H99.506L98.4932 30.2755H90.7502L89.7048 34H83.53ZM94.3767 17.2072L92.2531 24.8849H96.9904L94.8994 17.2072C94.8341 16.9785 94.7687 16.8805 94.6381 16.8805C94.5074 16.8805 94.442 16.9785 94.3767 17.2072ZM119.729 11.9472V28.446H129.465V34H118.913C115.188 34 113.685 32.0398 113.685 28.936V11.9472H119.729Z" fill="#6251A3"/>
<path d="M168.631 34.392C166.703 34.392 165.102 32.7912 165.102 30.8636C165.102 28.936 166.703 27.3352 168.631 27.3352C170.558 27.3352 172.159 28.936 172.159 30.8636C172.159 32.7912 170.558 34.392 168.631 34.392Z" fill="#5AD192"/>
<path d="M144.577 17.135C143.435 17.4789 142.845 17.7847 141.864 18.4916L136.438 15.3907L137.101 14.7277C137.818 14.0107 138.629 13.3885 139.54 12.9441C140.723 12.3674 141.72 11.9921 142.923 11.6837C144.013 11.4044 145.147 11.3198 146.268 11.4201C148.047 11.5793 149.386 11.9147 150.911 12.618C152.007 13.1238 153.014 13.8194 153.855 14.6862C154.698 15.5549 155.288 16.4035 156.012 17.7164C156.665 19.1866 156.927 20.0331 157.175 21.5925C157.227 23.7014 157.114 24.8509 156.593 26.8253L150.973 23.5306V22.6069C150.973 22.0608 150.947 21.5104 150.802 20.9841C150.673 20.5178 150.5 20.1471 150.198 19.6545C149.538 18.514 149.054 18.2719 148.066 17.7164C146.736 17.1475 145.974 17.0072 144.577 17.135Z" fill="#6251A3" stroke="#6251A3" stroke-width="0.387613"/>
<path d="M146.524 28.5696C147.667 28.2257 148.256 27.9199 149.237 27.2129L154.664 30.3139L154.001 30.9769C153.284 31.6939 152.472 32.3161 151.561 32.7604C150.378 33.3372 149.382 33.7125 148.178 34.0209C147.088 34.3002 145.954 34.3848 144.833 34.2845C143.055 34.1253 141.716 33.7899 140.191 33.0866C139.094 32.5808 138.087 31.8852 137.246 31.0184C136.403 30.1497 135.813 29.3011 135.09 27.9882C134.437 26.518 134.174 25.6715 133.927 24.112C133.875 22.0032 133.987 20.8537 134.508 18.8793L140.129 22.174V23.0977C140.129 23.6438 140.154 24.1942 140.299 24.7205C140.428 25.1868 140.601 25.5575 140.904 26.0501C141.563 27.1906 142.048 27.4327 143.036 27.9882C144.365 28.5571 145.128 28.6974 146.524 28.5696Z" fill="#6251A3" stroke="#6251A3" stroke-width="0.387613"/>
</svg>
