<svg width="155" height="55" viewBox="0 0 155 55" fill="none" xmlns="http://www.w3.org/2000/svg">
<path d="M5.34602 35.6582L0.60955 13.3574H7.91161L11.3455 31.5928L14.3453 18.3307C15.2137 14.4231 17.0688 12.7653 19.9107 12.7653C22.7525 12.7653 24.6077 14.4231 25.476 18.3307L28.4758 31.5928L31.9097 13.3574H39.2118L34.4753 35.6582C33.8043 38.8554 31.6729 40.6315 28.7915 40.6315C26.1865 40.6315 23.8577 38.8948 23.1867 35.974L19.9107 21.5672L16.6346 35.974C15.9636 38.8948 13.6348 40.6315 11.0298 40.6315C8.14843 40.6315 6.01702 38.8554 5.34602 35.6582ZM44.3479 40L51.2158 17.5807C52.2025 14.3047 54.9655 12.7653 57.7284 12.7653C60.4913 12.7653 63.2543 14.3047 64.2411 17.5807L71.1089 40H63.649L62.4254 35.5004H53.0709L51.8078 40H44.3479ZM57.4521 19.7121L54.8865 28.9877H60.6098L58.0836 19.7121C58.0047 19.4358 57.9258 19.3174 57.7679 19.3174C57.61 19.3174 57.5311 19.4358 57.4521 19.7121ZM88.0816 13.3574V33.29H99.8438V40H87.0948C82.5952 40 80.7795 37.6318 80.7795 33.8821V13.3574H88.0816Z" fill="#6251A3"/>
<path d="M147.161 40.4736C144.832 40.4736 142.898 38.5396 142.898 36.2108C142.898 33.8821 144.832 31.948 147.161 31.948C149.489 31.948 151.424 33.8821 151.424 36.2108C151.424 38.5396 149.489 40.4736 147.161 40.4736Z" fill="#5AD192"/>
<path d="M118.1 21.494C116.719 21.9096 116.007 22.2789 114.822 23.133L108.266 19.3867L109.067 18.5857C109.933 17.7195 110.913 16.9678 112.014 16.4309C113.443 15.7342 114.648 15.2807 116.101 14.9082C117.418 14.5707 118.788 14.4685 120.142 14.5897C122.291 14.782 123.909 15.1873 125.751 16.0369C127.076 16.648 128.293 17.4884 129.309 18.5356C130.327 19.5851 131.04 20.6103 131.914 22.1965C132.703 23.9726 133.02 24.9954 133.319 26.8793C133.382 29.4272 133.246 30.8158 132.617 33.2012L125.826 29.2208V28.1048C125.826 27.4451 125.795 26.7801 125.62 26.1442C125.464 25.5809 125.255 25.1331 124.89 24.5379C124.093 23.16 123.508 22.8675 122.314 22.1965C120.708 21.5092 119.786 21.3397 118.1 21.494Z" fill="#6251A3" stroke="#6251A3" stroke-width="0.468287"/>
<path d="M120.451 35.3087C121.831 34.8932 122.544 34.5238 123.729 33.6697L130.285 37.416L129.484 38.217C128.618 39.0833 127.637 39.8349 126.536 40.3718C125.107 41.0686 123.903 41.522 122.449 41.8945C121.132 42.232 119.763 42.3342 118.408 42.213C116.26 42.0207 114.642 41.6155 112.8 40.7658C111.475 40.1547 110.258 39.3144 109.242 38.2672C108.224 37.2177 107.511 36.1924 106.637 34.6063C105.848 32.8301 105.531 31.8074 105.232 29.9234C105.169 27.3756 105.305 25.9869 105.934 23.6015L112.724 27.582V28.698C112.724 29.3576 112.755 30.0226 112.931 30.6585C113.086 31.2218 113.296 31.6696 113.661 32.2648C114.458 33.6427 115.043 33.9352 116.237 34.6063C117.843 35.2936 118.764 35.4631 120.451 35.3087Z" fill="#6251A3" stroke="#6251A3" stroke-width="0.468287"/>
</svg>
