<svg width="9" height="10" viewBox="0 0 9 10" fill="none" xmlns="http://www.w3.org/2000/svg">
<path d="M0.615 9.1483V4.32022H0.519C0.372333 4.32022 0.249167 4.26748 0.1495 4.16201C0.0498333 4.05794 0 3.92838 0 3.77334V2.5356C0 2.3809 0.0498333 2.25082 0.1495 2.14534C0.2495 2.04057 0.372833 1.98819 0.5195 1.98819H2.571C2.47167 1.89537 2.403 1.7855 2.365 1.65858C2.32667 1.53131 2.3075 1.39771 2.3075 1.25778C2.3075 0.908308 2.4235 0.611398 2.6555 0.36705C2.88717 0.12235 3.16867 0 3.5 0C3.69167 0 3.86767 0.0474633 4.028 0.14239C4.18833 0.237317 4.3265 0.361073 4.4425 0.513659C4.5585 0.359315 4.6965 0.235207 4.8565 0.141335C5.01683 0.0471117 5.19283 0 5.3845 0C5.71583 0 5.9975 0.12235 6.2295 0.36705C6.46117 0.611398 6.577 0.908483 6.577 1.25831C6.577 1.39542 6.5575 1.52762 6.5185 1.65489C6.47917 1.78216 6.41083 1.89326 6.3135 1.98819H8.481C8.62767 1.98819 8.75083 2.04075 8.8505 2.14587C8.95017 2.25099 9 2.38108 9 2.53612V3.77281C9 3.9275 8.95017 4.05759 8.8505 4.16306C8.7505 4.26819 8.62717 4.32075 8.4805 4.32075H8.3845V9.1483C8.3845 9.38245 8.3055 9.58285 8.1475 9.7495C7.98917 9.9165 7.799 10 7.577 10H1.423C1.201 10 1.011 9.9165 0.853 9.7495C0.694667 9.58285 0.615 9.38245 0.615 9.1483ZM5.3845 0.527371C5.1885 0.527371 5.02417 0.597511 4.8915 0.737791C4.75883 0.87772 4.6925 1.05105 4.6925 1.25778C4.6925 1.46486 4.75883 1.63836 4.8915 1.77829C5.02417 1.91822 5.1885 1.98819 5.3845 1.98819C5.58083 1.98819 5.74533 1.91822 5.878 1.77829C6.01067 1.63836 6.077 1.46486 6.077 1.25778C6.077 1.05105 6.01067 0.87772 5.878 0.737791C5.74533 0.597511 5.58083 0.527371 5.3845 0.527371ZM2.8075 1.25778C2.8075 1.46486 2.87383 1.63836 3.0065 1.77829C3.1395 1.91822 3.304 1.98819 3.5 1.98819C3.696 1.98819 3.8605 1.91822 3.9935 1.77829C4.12617 1.63836 4.1925 1.46486 4.1925 1.25778C4.1925 1.05105 4.12617 0.87772 3.9935 0.737791C3.8605 0.597511 3.696 0.527371 3.5 0.527371C3.304 0.527371 3.1395 0.597511 3.0065 0.737791C2.87383 0.87772 2.8075 1.05105 2.8075 1.25778ZM0.5 2.51556V3.79285H4.25V2.51556H0.5ZM4.25 9.47263V4.32022H1.115V9.1483C1.115 9.24287 1.144 9.32057 1.202 9.38139C1.26 9.44222 1.33367 9.47263 1.423 9.47263H4.25ZM4.75 9.47263H7.577C7.667 9.47263 7.74067 9.44222 7.798 9.38139C7.85533 9.32057 7.88417 9.24287 7.8845 9.1483V4.32022H4.75V9.47263ZM8.5 3.79285V2.51608H4.75V3.79285H8.5Z" fill="black"/>
</svg>
