<svg width="88" height="30" viewBox="0 0 88 30" fill="none" xmlns="http://www.w3.org/2000/svg">
<rect width="88" height="29.3125" rx="14.6562" fill="#5AD192"/>
<path d="M15.3244 22.9505L16.5644 17.3885L12.4414 13.6491L17.8724 13.157L19.9994 7.91113L22.1264 13.156L27.5564 13.648L23.4344 17.3874L24.6744 22.9495L19.9994 19.9973L15.3244 22.9505Z" fill="white"/>
<path d="M39.3244 22.9505L40.5644 17.3885L36.4414 13.6491L41.8724 13.157L43.9994 7.91113L46.1264 13.156L51.5564 13.648L47.4344 17.3874L48.6744 22.9495L43.9994 19.9973L39.3244 22.9505Z" fill="white"/>
<path d="M63.3244 22.9505L64.5644 17.3885L60.4414 13.6491L65.8724 13.157L67.9994 7.91113L70.1264 13.156L75.5564 13.648L71.4344 17.3874L72.6744 22.9495L67.9994 19.9973L63.3244 22.9505Z" fill="white"/>
</svg>
