<svg width="121" height="43" viewBox="0 0 121 43" fill="none" xmlns="http://www.w3.org/2000/svg">
<path d="M4.0157 28.6021L0.3089 11.1493H6.02355L8.71098 25.4204L11.0586 15.0414C11.7382 11.9833 13.19 10.6859 15.4141 10.6859C17.6382 10.6859 19.09 11.9833 19.7696 15.0414L22.1172 25.4204L24.8047 11.1493H30.5193L26.8125 28.6021C26.2874 31.1042 24.6193 32.4942 22.3644 32.4942C20.3256 32.4942 18.5031 31.1351 17.978 28.8492L15.4141 17.5744L12.8502 28.8492C12.3251 31.1351 10.5026 32.4942 8.46386 32.4942C6.20889 32.4942 4.54083 31.1042 4.0157 28.6021ZM34.5389 32L39.9137 14.4545C40.686 11.8906 42.8483 10.6859 45.0106 10.6859C47.1729 10.6859 49.3352 11.8906 50.1074 14.4545L55.4823 32H49.6441L48.6865 28.4785H41.3656L40.3771 32H34.5389ZM44.7944 16.1225L42.7865 23.3817H47.2656L45.2886 16.1225C45.2268 15.9063 45.165 15.8136 45.0415 15.8136C44.9179 15.8136 44.8561 15.9063 44.7944 16.1225ZM68.7652 11.1493V26.7487H77.9705V32H67.993C64.4715 32 63.0506 30.1466 63.0506 27.2121V11.1493H68.7652Z" fill="#6251A3"/>
<path d="M115.001 32.3707C113.179 32.3707 111.665 30.8571 111.665 29.0346C111.665 27.2121 113.179 25.6984 115.001 25.6984C116.824 25.6984 118.337 27.2121 118.337 29.0346C118.337 30.8571 116.824 32.3707 115.001 32.3707Z" fill="#5AD192"/>
<path d="M93.078 15.4973C91.9978 15.8225 91.4402 16.1115 90.5126 16.78L85.3818 13.8481L86.0088 13.2212C86.6867 12.5433 87.454 11.955 88.3157 11.5349C89.4341 10.9896 90.3764 10.6347 91.5141 10.3431C92.5448 10.079 93.6169 9.99904 94.6767 10.0939C96.3583 10.2444 97.6244 10.5615 99.0661 11.2265C100.103 11.7047 101.055 12.3624 101.85 13.182C102.647 14.0033 103.205 14.8057 103.889 16.047C104.507 17.4371 104.755 18.2374 104.989 19.7119C105.038 21.7058 104.932 22.7926 104.439 24.6594L99.1251 21.5443V20.6709C99.1251 20.1546 99.1009 19.6342 98.9635 19.1366C98.8418 18.6957 98.678 18.3452 98.3921 17.8794C97.7684 16.8011 97.3104 16.5722 96.3764 16.047C95.1191 15.5091 94.3981 15.3765 93.078 15.4973Z" fill="#6251A3" stroke="#6251A3" stroke-width="0.366486"/>
<path d="M94.9215 26.3086C96.0017 25.9834 96.5593 25.6944 97.4869 25.0259L102.618 27.9578L101.991 28.5847C101.313 29.2626 100.546 29.8509 99.6838 30.271C98.5654 30.8163 97.6231 31.1712 96.4854 31.4628C95.4547 31.7269 94.3826 31.8069 93.3228 31.712C91.6412 31.5615 90.3751 31.2444 88.9334 30.5794C87.8965 30.1012 86.9444 29.4435 86.1493 28.6239C85.3524 27.8026 84.7945 27.0002 84.1101 25.7589C83.493 24.3689 83.2447 23.5685 83.0107 22.094C82.9615 20.1001 83.0677 19.0133 83.5604 17.1465L88.8745 20.2616V21.135C88.8745 21.6513 88.8987 22.1717 89.036 22.6693C89.1577 23.1102 89.3216 23.4607 89.6074 23.9265C90.2311 25.0048 90.6891 25.2337 91.6231 25.7589C92.8804 26.2968 93.6014 26.4294 94.9215 26.3086Z" fill="#6251A3" stroke="#6251A3" stroke-width="0.366486"/>
</svg>
