<svg width="14" height="14" viewBox="0 0 14 14" fill="none" xmlns="http://www.w3.org/2000/svg">
<path d="M1.0435 8.048C0.7715 8.048 0.5315 7.952 0.3235 7.76C0.1315 7.552 0.0355002 7.312 0.0355002 7.04C0.0355002 6.768 0.1315 6.536 0.3235 6.344C0.5315 6.136 0.7715 6.032 1.0435 6.032H5.6995C5.8435 6.032 5.9155 5.96 5.9155 5.816V1.16C5.9155 0.855999 6.0195 0.599999 6.2275 0.391999C6.4355 0.183999 6.6915 0.079999 6.9955 0.079999C7.2995 0.079999 7.5555 0.183999 7.7635 0.391999C7.9715 0.599999 8.0755 0.855999 8.0755 1.16V5.816C8.0755 5.96 8.1475 6.032 8.2915 6.032H12.9475C13.2195 6.032 13.4515 6.136 13.6435 6.344C13.8515 6.536 13.9555 6.768 13.9555 7.04C13.9555 7.312 13.8515 7.552 13.6435 7.76C13.4515 7.952 13.2195 8.048 12.9475 8.048H8.2915C8.1475 8.048 8.0755 8.12 8.0755 8.264V12.92C8.0755 13.224 7.9715 13.48 7.7635 13.688C7.5555 13.896 7.2995 14 6.9955 14C6.6915 14 6.4355 13.896 6.2275 13.688C6.0195 13.48 5.9155 13.224 5.9155 12.92V8.264C5.9155 8.12 5.8435 8.048 5.6995 8.048H1.0435Z" fill="black"/>
</svg>
